<?xml version="1.0" encoding="UTF-8"?>
<svg width="75px" height="75px" viewBox="0 0 75 75" version="1.1" xmlns="http://www.w3.org/2000/svg" xmlns:xlink="http://www.w3.org/1999/xlink">
    <!-- Generator: Sketch 49.2 (51160) - http://www.bohemiancoding.com/sketch -->
    <title>shutterstock_754816570</title>
    <desc>Created with Sketch.</desc>
    <defs>
        <path d="M66.4271591,58.3538386 L66.4271591,51.9245079 L68.0342045,51.1204724 L72.8560227,48.709252 L72.8560227,55.138878 L66.4271591,58.3538386 Z M57.8539773,48.709252 L62.6757955,51.1204724 L64.0864773,51.8264764 L64.2825,51.9245079 L64.2825,58.3538386 L57.8539773,55.138878 L57.8539773,48.709252 Z M45.0003409,69.0646654 L38.5714773,72.2799213 L38.5714773,65.8502953 L45.0003409,62.6359252 L45.0003409,69.0646654 Z M29.9989773,62.6359252 L36.4275,65.8502953 L36.4275,72.2799213 L29.9989773,69.0646654 L29.9989773,62.6359252 Z M10.7171591,58.3538386 L10.7171591,51.9245079 L17.1460227,48.709252 L17.1460227,55.138878 L10.7171591,58.3538386 Z M2.14431818,48.709252 L6.96579545,51.1204724 L8.57284091,51.9245079 L8.57284091,58.3538386 L2.14431818,55.138878 L2.14431818,48.709252 Z M2.14431818,20.8511811 L8.57284091,24.0661417 L8.57284091,30.4954724 L2.14431818,27.2805118 L2.14431818,20.8511811 Z M16.0707955,19.2413386 L9.64193182,22.4562992 L8.03795455,21.6537402 L3.21647727,19.242815 L9.645,16.0281496 L16.0707955,19.2413386 Z M43.9278409,5.3105315 L39.1070455,7.72204724 L37.4996591,8.5257874 L31.0707955,5.3105315 L37.4996591,2.09586614 L43.9278409,5.3105315 Z M71.7835227,19.242815 L65.3573864,22.4562992 L58.9285227,19.2416339 L65.3546591,16.0281496 L71.7835227,19.242815 Z M66.4271591,30.4954724 L66.4271591,24.0661417 L72.8560227,20.8511811 L72.8560227,27.2805118 L66.4271591,30.4954724 Z M10.7171591,30.4954724 L10.7171591,24.0658465 L12.3245455,23.2624016 L17.1460227,20.8511811 L17.1460227,27.2805118 L10.7171591,30.4954724 Z M45.0003409,6.91889764 L45.0003409,13.3488189 L38.5721591,16.5637795 L38.5721591,10.1338583 L45.0003409,6.91889764 Z M38.5721591,44.4218504 L38.5721591,37.9922244 L45.0003409,34.7772638 L45.0003409,41.2068898 L38.5721591,44.4218504 Z M37.4996591,29.9542323 L43.9278409,33.1688976 L37.4996591,36.3838583 L31.0707955,33.1688976 L37.4996591,29.9542323 Z M29.9989773,41.2068898 L29.9989773,34.7772638 L34.8204545,37.1887795 L36.4275,37.9922244 L36.4275,44.4218504 L29.9989773,41.2068898 Z M56.2459091,28.621063 L64.2821591,32.6397638 L64.2821591,42.2784449 L56.7831818,46.0281496 L47.145,41.2068898 L47.145,33.1688976 C47.145,32.8370079 46.9404545,32.5302165 46.60875,32.3645669 L38.5721591,28.3461614 L38.5721591,18.7080709 L46.0725,14.957185 L55.71,19.7766732 L55.71,27.8170276 C55.71,28.1483268 55.9142045,28.4551181 56.2459091,28.621063 Z M57.8539773,20.8511811 L64.2821591,24.0658465 L64.2821591,30.4954724 L57.8539773,27.2805118 L57.8539773,20.8511811 Z M34.8204545,9.33041339 L36.4275,10.1338583 L36.4275,16.5637795 L29.9989773,13.3488189 L29.9989773,6.91889764 L34.8204545,9.33041339 Z M28.9271591,14.9574803 L36.4275,18.7080709 L36.4275,28.3461614 L28.3905682,32.3645669 C28.0592045,32.5302165 27.8546591,32.8370079 27.8546591,33.1688976 L27.8546591,41.2068898 L18.2168182,46.0281496 L10.7171591,42.2781496 L10.7171591,32.6397638 L18.7544318,28.621063 C19.0857955,28.4551181 19.29,28.1483268 19.29,27.8170276 L19.29,19.7760827 L28.9271591,14.9574803 Z M3.21647727,47.1011811 L9.645,43.8865157 L16.0725,47.1005906 L9.64465909,50.3158465 L8.03795455,49.5121063 L3.21647727,47.1011811 Z M46.0728409,59.9551181 L38.0352273,55.9364173 C37.7038636,55.7707677 37.2947727,55.7707677 36.9634091,55.9364173 L28.9268182,59.9551181 L19.29,55.1365157 L19.29,47.6359252 L28.9268182,42.8152559 L36.9634091,46.8345472 C37.1294318,46.9172244 37.3148864,46.9588583 37.4996591,46.9588583 C37.6847727,46.9588583 37.8698864,46.9172244 38.0359091,46.8345472 L46.0725,42.8155512 L55.71,47.6359252 L55.71,55.1356299 L46.0728409,59.9551181 Z M37.4996591,57.8125984 L43.9281818,61.0272638 L37.9070455,64.0378937 L37.4996591,64.2422244 L31.0707955,61.0272638 L37.4996591,57.8125984 Z M66.9620455,49.5121063 L65.3546591,50.3158465 L58.9271591,47.1005906 L65.3546591,43.8865157 L71.7835227,47.1011811 L66.9620455,49.5121063 Z M74.4640909,28.621063 C74.7954545,28.4551181 75,28.1483268 75,27.8170276 L75,19.242815 C75,18.9112205 74.7954545,18.6044291 74.4640909,18.4384843 L65.8909091,14.1516732 C65.5592045,13.9863189 65.1501136,13.9863189 64.81875,14.1516732 L56.7842045,18.1691929 L47.145,13.3488189 L47.145,5.3105315 C47.145,4.97893701 46.9404545,4.67214567 46.60875,4.50620079 L38.0359091,0.219685039 C37.7038636,0.0540354331 37.2951136,0.0540354331 36.9634091,0.219685039 L28.3905682,4.50620079 C28.0592045,4.67214567 27.8546591,4.97893701 27.8546591,5.3105315 L27.8546591,13.3488189 L18.2154545,18.1688976 L10.1809091,14.1516732 C9.84920455,13.9863189 9.44045455,13.9863189 9.10875,14.1516732 L0.53625,18.4384843 C0.204545455,18.6044291 0,18.9112205 0,19.242815 L0,27.8170276 C0,28.1483268 0.204545455,28.4551181 0.53625,28.621063 L8.57284091,32.6403543 L8.57284091,42.2781496 L0.53625,46.2968504 C0.204545455,46.4627953 0,46.7695866 0,47.1011811 L0,55.6748031 C0,56.0066929 0.204545455,56.313189 0.53625,56.4791339 L9.10875,60.7665354 C9.27477273,60.8495079 9.45988636,60.8908465 9.645,60.8908465 C9.83011364,60.8908465 10.0152273,60.8495079 10.1809091,60.7665354 L18.2209091,56.7457677 L27.8546591,61.563189 L27.8546591,69.6014764 C27.8546591,69.9327756 28.0592045,70.2395669 28.3905682,70.4049213 L36.9634091,74.6923228 C37.1294318,74.7752953 37.3145455,74.8166339 37.4996591,74.8166339 C37.6847727,74.8166339 37.8698864,74.7752953 38.0352273,74.6923228 L46.60875,70.4049213 C46.9404545,70.2395669 47.145,69.9327756 47.145,69.6014764 L47.145,61.563189 L56.77875,56.7457677 L64.81875,60.7665354 C64.9844318,60.8495079 65.1695455,60.8908465 65.3546591,60.8908465 C65.5397727,60.8908465 65.7248864,60.8495079 65.8909091,60.7665354 L74.4640909,56.4791339 C74.7954545,56.313189 75,56.0066929 75,55.6748031 L75,47.1011811 C75,46.7695866 74.7954545,46.4627953 74.4640909,46.2968504 L66.4264773,42.2781496 L66.4264773,32.6403543 L74.4640909,28.621063 Z" id="path-1"></path>
        <linearGradient x1="0.25781251%" y1="49.7500002%" x2="101.257813%" y2="49.7500002%" id="linearGradient-3">
            <stop stop-color="#3023AE" offset="0%"></stop>
            <stop stop-color="#53A0FD" offset="47.5247532%"></stop>
            <stop stop-color="#B4EC51" offset="100%"></stop>
        </linearGradient>
    </defs>
    <g id="Page-1" stroke="none" stroke-width="1" fill="none" fill-rule="evenodd">
        <g id="shutterstock_754816570">
            <g id="Group-6">
                <mask id="mask-2" fill="white">
                    <use xlink:href="#path-1"></use>
                </mask>
                <g id="Clip-5"></g>
                <path d="M66.4271591,58.3538386 L66.4271591,51.9245079 L68.0342045,51.1204724 L72.8560227,48.709252 L72.8560227,55.138878 L66.4271591,58.3538386 Z M57.8539773,48.709252 L62.6757955,51.1204724 L64.0864773,51.8264764 L64.2825,51.9245079 L64.2825,58.3538386 L57.8539773,55.138878 L57.8539773,48.709252 Z M45.0003409,69.0646654 L38.5714773,72.2799213 L38.5714773,65.8502953 L45.0003409,62.6359252 L45.0003409,69.0646654 Z M29.9989773,62.6359252 L36.4275,65.8502953 L36.4275,72.2799213 L29.9989773,69.0646654 L29.9989773,62.6359252 Z M10.7171591,58.3538386 L10.7171591,51.9245079 L17.1460227,48.709252 L17.1460227,55.138878 L10.7171591,58.3538386 Z M2.14431818,48.709252 L6.96579545,51.1204724 L8.57284091,51.9245079 L8.57284091,58.3538386 L2.14431818,55.138878 L2.14431818,48.709252 Z M2.14431818,20.8511811 L8.57284091,24.0661417 L8.57284091,30.4954724 L2.14431818,27.2805118 L2.14431818,20.8511811 Z M16.0707955,19.2413386 L9.64193182,22.4562992 L8.03795455,21.6537402 L3.21647727,19.242815 L9.645,16.0281496 L16.0707955,19.2413386 Z M43.9278409,5.3105315 L39.1070455,7.72204724 L37.4996591,8.5257874 L31.0707955,5.3105315 L37.4996591,2.09586614 L43.9278409,5.3105315 Z M71.7835227,19.242815 L65.3573864,22.4562992 L58.9285227,19.2416339 L65.3546591,16.0281496 L71.7835227,19.242815 Z M66.4271591,30.4954724 L66.4271591,24.0661417 L72.8560227,20.8511811 L72.8560227,27.2805118 L66.4271591,30.4954724 Z M10.7171591,30.4954724 L10.7171591,24.0658465 L12.3245455,23.2624016 L17.1460227,20.8511811 L17.1460227,27.2805118 L10.7171591,30.4954724 Z M45.0003409,6.91889764 L45.0003409,13.3488189 L38.5721591,16.5637795 L38.5721591,10.1338583 L45.0003409,6.91889764 Z M38.5721591,44.4218504 L38.5721591,37.9922244 L45.0003409,34.7772638 L45.0003409,41.2068898 L38.5721591,44.4218504 Z M37.4996591,29.9542323 L43.9278409,33.1688976 L37.4996591,36.3838583 L31.0707955,33.1688976 L37.4996591,29.9542323 Z M29.9989773,41.2068898 L29.9989773,34.7772638 L34.8204545,37.1887795 L36.4275,37.9922244 L36.4275,44.4218504 L29.9989773,41.2068898 Z M56.2459091,28.621063 L64.2821591,32.6397638 L64.2821591,42.2784449 L56.7831818,46.0281496 L47.145,41.2068898 L47.145,33.1688976 C47.145,32.8370079 46.9404545,32.5302165 46.60875,32.3645669 L38.5721591,28.3461614 L38.5721591,18.7080709 L46.0725,14.957185 L55.71,19.7766732 L55.71,27.8170276 C55.71,28.1483268 55.9142045,28.4551181 56.2459091,28.621063 Z M57.8539773,20.8511811 L64.2821591,24.0658465 L64.2821591,30.4954724 L57.8539773,27.2805118 L57.8539773,20.8511811 Z M34.8204545,9.33041339 L36.4275,10.1338583 L36.4275,16.5637795 L29.9989773,13.3488189 L29.9989773,6.91889764 L34.8204545,9.33041339 Z M28.9271591,14.9574803 L36.4275,18.7080709 L36.4275,28.3461614 L28.3905682,32.3645669 C28.0592045,32.5302165 27.8546591,32.8370079 27.8546591,33.1688976 L27.8546591,41.2068898 L18.2168182,46.0281496 L10.7171591,42.2781496 L10.7171591,32.6397638 L18.7544318,28.621063 C19.0857955,28.4551181 19.29,28.1483268 19.29,27.8170276 L19.29,19.7760827 L28.9271591,14.9574803 Z M3.21647727,47.1011811 L9.645,43.8865157 L16.0725,47.1005906 L9.64465909,50.3158465 L8.03795455,49.5121063 L3.21647727,47.1011811 Z M46.0728409,59.9551181 L38.0352273,55.9364173 C37.7038636,55.7707677 37.2947727,55.7707677 36.9634091,55.9364173 L28.9268182,59.9551181 L19.29,55.1365157 L19.29,47.6359252 L28.9268182,42.8152559 L36.9634091,46.8345472 C37.1294318,46.9172244 37.3148864,46.9588583 37.4996591,46.9588583 C37.6847727,46.9588583 37.8698864,46.9172244 38.0359091,46.8345472 L46.0725,42.8155512 L55.71,47.6359252 L55.71,55.1356299 L46.0728409,59.9551181 Z M37.4996591,57.8125984 L43.9281818,61.0272638 L37.9070455,64.0378937 L37.4996591,64.2422244 L31.0707955,61.0272638 L37.4996591,57.8125984 Z M66.9620455,49.5121063 L65.3546591,50.3158465 L58.9271591,47.1005906 L65.3546591,43.8865157 L71.7835227,47.1011811 L66.9620455,49.5121063 Z M74.4640909,28.621063 C74.7954545,28.4551181 75,28.1483268 75,27.8170276 L75,19.242815 C75,18.9112205 74.7954545,18.6044291 74.4640909,18.4384843 L65.8909091,14.1516732 C65.5592045,13.9863189 65.1501136,13.9863189 64.81875,14.1516732 L56.7842045,18.1691929 L47.145,13.3488189 L47.145,5.3105315 C47.145,4.97893701 46.9404545,4.67214567 46.60875,4.50620079 L38.0359091,0.219685039 C37.7038636,0.0540354331 37.2951136,0.0540354331 36.9634091,0.219685039 L28.3905682,4.50620079 C28.0592045,4.67214567 27.8546591,4.97893701 27.8546591,5.3105315 L27.8546591,13.3488189 L18.2154545,18.1688976 L10.1809091,14.1516732 C9.84920455,13.9863189 9.44045455,13.9863189 9.10875,14.1516732 L0.53625,18.4384843 C0.204545455,18.6044291 0,18.9112205 0,19.242815 L0,27.8170276 C0,28.1483268 0.204545455,28.4551181 0.53625,28.621063 L8.57284091,32.6403543 L8.57284091,42.2781496 L0.53625,46.2968504 C0.204545455,46.4627953 0,46.7695866 0,47.1011811 L0,55.6748031 C0,56.0066929 0.204545455,56.313189 0.53625,56.4791339 L9.10875,60.7665354 C9.27477273,60.8495079 9.45988636,60.8908465 9.645,60.8908465 C9.83011364,60.8908465 10.0152273,60.8495079 10.1809091,60.7665354 L18.2209091,56.7457677 L27.8546591,61.563189 L27.8546591,69.6014764 C27.8546591,69.9327756 28.0592045,70.2395669 28.3905682,70.4049213 L36.9634091,74.6923228 C37.1294318,74.7752953 37.3145455,74.8166339 37.4996591,74.8166339 C37.6847727,74.8166339 37.8698864,74.7752953 38.0352273,74.6923228 L46.60875,70.4049213 C46.9404545,70.2395669 47.145,69.9327756 47.145,69.6014764 L47.145,61.563189 L56.77875,56.7457677 L64.81875,60.7665354 C64.9844318,60.8495079 65.1695455,60.8908465 65.3546591,60.8908465 C65.5397727,60.8908465 65.7248864,60.8495079 65.8909091,60.7665354 L74.4640909,56.4791339 C74.7954545,56.313189 75,56.0066929 75,55.6748031 L75,47.1011811 C75,46.7695866 74.7954545,46.4627953 74.4640909,46.2968504 L66.4264773,42.2781496 L66.4264773,32.6403543 L74.4640909,28.621063 Z" id="Fill-4" fill="url(#linearGradient-3)" mask="url(#mask-2)"></path>
            </g>
        </g>
    </g>
</svg>