<?xml version="1.0" encoding="UTF-8"?>
<svg width="75px" height="75px" viewBox="0 0 75 75" version="1.1" xmlns="http://www.w3.org/2000/svg" xmlns:xlink="http://www.w3.org/1999/xlink">
    <!-- Generator: Sketch 49.2 (51160) - http://www.bohemiancoding.com/sketch -->
    <title>chef-seeklogo.com 3</title>
    <desc>Created with Sketch.</desc>
    <defs></defs>
    <g id="Page-1" stroke="none" stroke-width="1" fill="none" fill-rule="evenodd">
        <g id="latest-Single-course-page-" transform="translate(-761.000000, -2702.000000)" fill-rule="nonzero">
            <g id="chef-seeklogo.com-3" transform="translate(761.000000, 2702.000000)">
                <g id="Group" transform="translate(0.406347, 0.000000)">
                    <path d="M37.5139898,54.0969945 C28.2615503,54.0969945 20.7327461,46.5616271 20.7327461,37.2993446 C20.7327461,28.0356158 28.2615503,20.4988022 37.5139898,20.4988022 C45.1525979,20.4988022 51.6093676,25.6347119 53.6335193,32.6363842 L60.1264086,32.6363842 C57.9650016,22.1201356 48.6489915,14.1884746 37.5139898,14.1884746 C24.785384,14.1884746 14.4291244,24.5557514 14.4291244,37.2993446 C14.4291244,50.0414915 24.785384,60.4087682 37.5139898,60.4087682 C48.6489915,60.4087682 57.9650016,52.4785538 60.1264086,41.9623051 L53.6335193,41.9623051 C51.6093676,48.9625309 45.1525979,54.0969945 37.5139898,54.0969945" id="Shape" fill="#435363"></path>
                    <path d="M26.2012788,48.6226441 C29.0995289,51.5239775 33.1015991,53.3217627 37.5139898,53.3217627 L37.5139898,46.6238191 C34.9422624,46.6238191 32.6132598,45.5781242 30.9271891,43.8917064 L26.2012788,48.6226441 Z" id="Shape" fill="#435363"></path>
                    <path d="M21.5085987,37.2978983 C21.5085987,39.5903277 21.996938,41.7713898 22.866702,43.7456271 L28.9868353,41.0511186 C28.4811585,39.9027344 28.1979796,38.6343051 28.1979796,37.2978983 C28.1979796,32.1475254 32.3690902,27.9734237 37.512545,27.9734237 L37.512545,21.2754802 C28.6877636,21.2754802 21.5085987,28.4637288 21.5085987,37.2978983" id="Shape" fill="#F38B00"></path>
                    <path d="M43.3162693,22.3674576 L40.8890208,28.6112542 C42.8712736,29.3850395 44.5255591,30.812565 45.5773664,32.6349378 L52.8244364,32.6349378 C51.3940937,27.9329266 47.8572461,24.1421017 43.3162693,22.3674576" id="Shape" fill="#435363"></path>
                    <path d="M40.8919104,45.9845424 L43.3177139,52.228339 C47.8586912,50.4536949 51.3955387,46.6614237 52.8273261,41.9594124 L45.5802561,41.9594124 C44.5255591,43.7832318 42.8727183,45.2122034 40.8919104,45.9845424" id="Shape" fill="#F38B00"></path>
                    <path d="M7.90300268,46.2607911 C7.79753279,45.9107797 7.69639727,45.5578758 7.6024857,45.2020792 C7.59670654,45.1803843 7.59092734,45.1586894 7.58514818,45.1369945 C7.49846059,44.8072318 7.41899697,44.4774691 7.34242292,44.1448136 C7.32653018,44.076836 7.31208226,44.0088589 7.29763434,43.9408814 C7.23406343,43.6559547 7.17627171,43.3681356 7.11992478,43.0803165 C7.09536328,42.9515932 7.07369138,42.8228699 7.05201948,42.694147 C7.01156528,42.4641809 6.97111105,42.235661 6.93499123,42.0028022 C6.90465057,41.8046554 6.87864429,41.6079548 6.85263801,41.4098079 C6.67059407,40.0589378 6.57234811,38.6863729 6.57379294,37.296452 L0.252806367,37.296452 C0.251377753,38.8122034 0.346734106,40.3091525 0.524443673,41.7872994 C0.527333261,41.8191186 0.533112433,41.8509378 0.537446812,41.8827571 C0.586569781,42.2848361 0.641471925,42.6869153 0.703598032,43.0846555 C0.720935551,43.1945763 0.739717866,43.304497 0.758500176,43.4158644 C0.813402321,43.7427343 0.869749256,44.0696047 0.933320156,44.3950284 C0.96510561,44.5685877 1.00267023,44.7392542 1.03879006,44.9113674 C1.09224741,45.1702597 1.14714956,45.4291525 1.20638608,45.6865987 C1.25839863,45.9122258 1.31474557,46.137853 1.3725373,46.3634801 C1.42310506,46.5645199 1.47222803,46.7655593 1.52568538,46.9665987 C1.59792504,47.2327233 1.67449908,47.4959547 1.75107312,47.7606326 C1.78285857,47.8705538 1.81175444,47.9833674 1.84498469,48.0918419 L1.84787427,48.0918419 C2.28420183,49.5367233 2.8014378,50.9468928 3.40247178,52.3122258 L9.19464782,49.7623504 C8.69619416,48.631322 8.26564579,47.4597966 7.90300268,46.2607911 Z" id="Shape" fill="#435363"></path>
                    <path d="M37.5139898,68.2724521 C28.9839457,68.2724521 21.251426,64.7954801 15.6499726,59.1866216 L11.1725663,63.6687911 C17.9154043,70.4188021 27.2256354,74.5986894 37.5139898,74.5986894 C56.5144321,74.5986894 72.1904106,60.3610394 74.4832934,41.9623051 L68.1045429,41.9623051 C65.8506694,56.8348928 52.9920323,68.2724521 37.5139898,68.2724521" id="Shape" fill="#F38B00"></path>
                    <path d="M37.5139898,6.32623729 C44.4446507,6.32623729 50.8465181,8.61866665 56.0101999,12.4875932 L59.7969963,7.40664407 C53.5815069,2.75525424 45.8692144,0 37.5139898,0 C21.7036455,0 8.19485271,9.85816949 2.78555642,23.7703955 L8.68174715,26.0671639 C13.1822701,14.5240226 24.4097384,6.32623729 37.5139898,6.32623729" id="Shape" fill="#F38B00"></path>
                    <path d="M68.1045429,32.6363842 L74.4832934,32.6363842 C73.7999077,27.1475706 71.9245692,22.0290169 69.1245649,17.5482938 L63.7528333,20.903774 C65.9460256,24.408226 67.4587214,28.3812881 68.1045429,32.6363842" id="Shape" fill="#435363"></path>
                    <path d="M60.918154,32.6363842 L67.3185764,32.6363842 C65.6483986,21.8930622 58.2987483,13.0097175 48.4496104,9.16103953 L46.1639517,15.0447006 C53.6537465,17.9720678 59.3187708,24.5774463 60.918154,32.6363842" id="Shape" fill="#F38B00"></path>
                    <path d="M37.5139898,13.4117966 L37.5154346,7.10291525 L37.5139898,7.10291525 C24.7377059,7.10291525 13.7934165,15.095322 9.4041425,26.3491978 L15.2772166,28.6372881 C18.7504933,19.7351412 27.407679,13.4117966 37.5139898,13.4117966" id="Shape" fill="#435363"></path>
                    <path d="M13.6532719,37.2978983 L7.35109494,37.2978983 C7.35109494,49.9865309 15.212201,60.8672542 26.3139725,65.3277288 L28.6545334,59.4715479 C19.8716509,55.9425085 13.6532719,47.3354123 13.6532719,37.2978983" id="Shape" fill="#F38B00"></path>
                    <path d="M37.5139898,61.184 L37.5139898,67.4943275 C52.5629294,67.4943275 65.0719271,56.4038869 67.3185764,41.9594124 L60.916709,41.9594124 C58.7451886,52.9081131 49.0780943,61.184 37.5139898,61.184" id="Shape" fill="#435363"></path>
                </g>
            </g>
        </g>
    </g>
</svg>