<?xml version="1.0" encoding="UTF-8"?>
<svg width="75px" height="66px" viewBox="0 0 75 66" version="1.1" xmlns="http://www.w3.org/2000/svg" xmlns:xlink="http://www.w3.org/1999/xlink">
    <!-- Generator: Sketch 49.2 (51160) - http://www.bohemiancoding.com/sketch -->
    <title>deep-learning</title>
    <desc>Created with Sketch.</desc>
    <defs></defs>
    <g id="Page-1" stroke="none" stroke-width="1" fill="none" fill-rule="evenodd">
        <g id="Artboard-2-Copy-8" transform="translate(-122.000000, -10.000000)" fill-rule="nonzero">
            <g id="deep-learning" transform="translate(122.000000, 10.000000)">
                <path d="M42.7808566,8.74439018 C42.7808566,11.7877067 40.3179928,14.2545752 37.2793484,14.2545752 C34.2380342,14.2545752 31.7765052,11.7877067 31.7765052,8.74439018 C31.7765052,5.70240853 34.2382566,3.23531758 37.2793484,3.23531758 C40.3177703,3.23531758 42.7806341,5.70240853 42.7806341,8.74439018 M42.7795217,32.8390741 C42.7795217,35.8810558 40.315323,38.3492591 37.2780135,38.3492591 C34.2366993,38.3492591 31.7751703,35.8810558 31.7751703,32.8390741 C31.7751703,29.7970925 34.2369217,27.3313364 37.2780135,27.3313364 C40.315323,27.3313364 42.7795217,29.7970925 42.7795217,32.8390741" id="Shape" fill="#FFFFFF"></path>
                <path d="M14.1720348,32.8377392 C14.1720348,35.8797209 11.7078361,38.3479242 8.66941411,38.3479242 C5.62943479,38.3479242 3.16657097,35.8797209 3.16657097,32.8377392 C3.16657097,29.7957576 5.62943479,27.3288891 8.66941411,27.3288891 C11.7078361,27.3288891 14.1720348,29.7957576 14.1720348,32.8377392 M14.1720348,8.75195454 C14.1720348,11.7941587 11.7078361,14.2610271 8.66941411,14.2610271 C5.62943479,14.2610271 3.16657097,11.7941587 3.16657097,8.75195454 C3.16657097,5.70997288 5.62943479,3.24310441 8.66941411,3.24310441 C11.7078361,3.24310441 14.1720348,5.70997288 14.1720348,8.75195454 M14.1720348,56.8091687 C14.1720348,59.850038 11.7078361,62.3195762 8.66941411,62.3195762 C5.62943479,62.3195762 3.16657097,59.850038 3.16657097,56.8091687 C3.16657097,53.7658522 5.62943479,51.3003186 8.66941411,51.3003186 C11.7078361,51.3003186 14.1720348,53.7658522 14.1720348,56.8091687" id="Shape" fill="#FFFFFF"></path>
                <path d="M67.966142,32.7273887 C67.966142,35.7707052 65.5019433,38.2375737 62.4635214,38.2375737 C59.423542,38.2375737 56.9606782,35.7707052 56.9606782,32.7273887 C56.9606782,29.685407 59.423542,27.219651 62.4635214,27.219651 C65.5019433,27.219651 67.966142,29.685407 67.966142,32.7273887" id="Shape" fill="#FFFFFF"></path>
                <path d="M42.781969,56.7964873 C42.781969,59.8371341 40.3191052,62.3053374 37.2793484,62.3053374 C34.2407039,62.3053374 31.7778401,59.8371341 31.7778401,56.7964873 C31.7778401,53.7529483 34.2407039,51.2874147 37.2793484,51.2874147 C40.3191052,51.2874147 42.781969,53.7531708 42.781969,56.7964873" id="Shape" fill="#FFFFFF"></path>
                <path d="M48.1039352,23.5885398 C48.0667809,23.5885398 48.0296265,23.5834228 47.9938071,23.5729662 C47.8566163,23.5318423 47.7214228,23.4843278 47.5886694,23.4305784 C47.4563237,23.3752352 47.3266926,23.3136122 47.2002177,23.2459192 C47.0734035,23.1791749 46.9950903,23.0481337 46.9950903,22.9070808 C46.9937554,22.7079603 47.0115538,22.4821422 47.0306872,22.2574365 C47.044926,22.0945804 47.0578299,21.9315019 47.0618345,21.7851095 C46.9557264,21.691643 46.8554234,21.5917858 46.7614853,21.4860951 C46.5654796,21.4898773 46.4115228,21.5027812 46.2564536,21.5156851 C45.8795709,21.5439401 45.45263,21.6362697 45.2986732,21.3437073 C45.170442,21.0976503 45.0640586,20.8408114 44.980748,20.5761481 C44.9379076,20.4386919 44.9750334,20.2888169 45.0770822,20.1872515 C45.2076785,20.0575451 45.3680873,19.9202744 45.5282735,19.784116 C45.6628745,19.6699833 45.7988103,19.5556281 45.9116082,19.4452776 C45.9026283,19.301621 45.9026283,19.1575437 45.9116082,19.0138871 C45.8025925,18.9113234 45.6757784,18.8060899 45.5489643,18.6981867 C45.3783214,18.5557989 45.2090134,18.4120762 45.0717427,18.274583 C44.9712672,18.1747985 44.9338215,18.0278367 44.974296,17.8921383 C45.015455,17.7548676 45.0628434,17.6200441 45.1166838,17.4865556 C45.1731116,17.3518227 45.2359983,17.2198869 45.3051252,17.091207 C45.4653114,16.7986445 45.8949221,16.8936439 46.2758094,16.9256812 C46.4424476,16.9396975 46.6090859,16.9539362 46.7603729,16.9577184 C46.8543709,16.8497398 46.9554523,16.7481381 47.0629469,16.653587 C47.0602772,16.4982953 47.0462609,16.32743 47.0322446,16.1554522 C47.0128887,15.9398682 46.9975375,15.7242842 46.9975375,15.5342855 C46.9975375,15.3905628 47.0758508,15.2595215 47.2039998,15.1927772 C47.4486279,15.0630852 47.7048566,14.9565716 47.9693342,14.8746295 C48.1060893,14.8319315 48.2552368,14.8695837 48.3553386,14.9720762 C48.4872698,15.1042298 48.6258754,15.2659735 48.7642586,15.4277171 C48.8770564,15.5612057 48.9911891,15.6946942 49.1002047,15.8077145 C49.2423344,15.7974805 49.385016,15.7974805 49.5271456,15.8077145 C49.636041,15.68791 49.7420466,15.5655102 49.8450709,15.440621 C49.9874587,15.2710905 50.1298465,15.1017826 50.2655598,14.9645118 C50.3661219,14.8637925 50.5137994,14.8262966 50.6502293,14.8668427 C50.7886125,14.9091141 50.9245483,14.956725 51.0580369,15.0119003 C51.1937502,15.0708577 51.3221217,15.1298151 51.4451537,15.1965594 C51.5708554,15.2621913 51.6489462,15.3930101 51.6489462,15.5329506 C51.6502811,15.7345183 51.6322601,15.9643411 51.6131268,16.192829 C51.598888,16.3519029 51.5848717,16.5109767 51.5810895,16.6549219 C51.6874354,16.7483639 51.7886642,16.8484803 51.8823287,16.9552711 C52.0535451,16.9510022 52.2245761,16.9411336 52.3951472,16.9256812 C52.6065041,16.9089951 52.8183059,16.8936439 53.0040775,16.892309 L53.0054124,16.892309 C53.1491351,16.892309 53.2812887,16.9719572 53.3478105,17.1003287 C53.4743495,17.3453108 53.5794558,17.6007816 53.6619536,17.8638832 C53.7045047,18.0003463 53.6679247,18.1491509 53.5669542,18.2503326 C53.4323533,18.385156 53.2681624,18.5262089 53.102859,18.6674843 C52.9733751,18.7791697 52.8425563,18.8895203 52.7310934,18.9960886 C52.7411533,19.1396207 52.7415993,19.283665 52.7324283,19.4272566 C52.8374393,19.5260382 52.9618061,19.6288244 53.086173,19.732723 C53.2592631,19.8804503 53.4336882,20.0279551 53.5734062,20.1705654 C53.6741679,20.2701992 53.7112053,20.4175776 53.6695179,20.5530101 C53.6280079,20.6899212 53.5801223,20.8248176 53.5260177,20.957258 C53.4718045,21.0894131 53.4109906,21.2187631 53.3438059,21.3448197 C53.2775822,21.4704002 53.1476043,21.5493275 53.0056349,21.5501696 L53.0040775,21.5501696 C52.7913857,21.5501696 52.5720195,21.5334835 52.3542107,21.5156851 C52.19808,21.5003632 52.041535,21.4896053 51.884776,21.4834253 C51.7899991,21.5913286 51.6887703,21.6925574 51.5810895,21.7864444 C51.5848717,21.9444058 51.598888,22.1201657 51.6144617,22.2948133 C51.6322601,22.5066151 51.6489462,22.7181945 51.6489462,22.904411 C51.6500002,23.0479854 51.5708705,23.1801543 51.4438188,23.2470316 C51.1986692,23.3770166 50.942019,23.4840411 50.6771495,23.5667367 C50.5392315,23.6113253 50.3879604,23.5734212 50.287363,23.4690676 C50.1578791,23.3382488 50.0219432,23.1791749 49.8860074,23.0185437 C49.7707622,22.8839427 49.6566295,22.7477844 49.546279,22.6336517 C49.4038912,22.6425509 49.2592786,22.6438858 49.1193381,22.6347641 C49.0192217,22.7402201 48.9168805,22.863252 48.8129819,22.9865064 C48.665477,23.161154 48.5168598,23.3358015 48.3746945,23.4768544 C48.3029207,23.5486617 48.2054618,23.5888625 48.1039352,23.5885398 Z M47.7706588,22.6696936 C47.8064782,22.6861572 47.8436325,22.7030658 47.8796744,22.7181945 C47.9168287,22.7324332 47.9553179,22.7477844 47.9924722,22.7604658 C48.0694506,22.6745882 48.1462066,22.5822586 48.2245198,22.489929 C48.3913805,22.2908086 48.5577963,22.0956928 48.7117531,21.9519702 C48.7949609,21.8763266 48.9130983,21.8416196 49.0194442,21.8531886 C49.2245716,21.8763266 49.4321463,21.8763266 49.6386086,21.8505189 C49.7527413,21.8402847 49.8617569,21.8725445 49.9438524,21.9468531 C50.1104906,22.0981401 50.2911451,22.3088296 50.4720221,22.5192965 C50.5387664,22.5989447 50.6066231,22.6785929 50.6733674,22.7529015 C50.7401116,22.7273162 50.8052985,22.700396 50.8707079,22.670806 C50.864256,22.5693547 50.8553567,22.4641212 50.8475699,22.3575529 C50.8246544,22.0830114 50.8028512,21.8082475 50.8141978,21.5848766 C50.820484,21.4735642 50.874188,21.3702872 50.9617026,21.3012135 C51.1258935,21.172842 51.2731759,21.0253371 51.4002125,20.8622586 C51.4694041,20.7737112 51.5746376,20.7198708 51.6861005,20.7147537 C51.9926792,20.7080793 52.2029237,20.7301049 52.4180627,20.7481259 C52.5362001,20.7570251 52.6554499,20.7672592 52.7682477,20.7737112 C52.7838214,20.7390042 52.7989501,20.7018499 52.8143013,20.6658079 C52.8298749,20.6273187 52.8438912,20.5901644 52.8579075,20.5530101 C52.77003,20.4747726 52.6807259,20.3981522 52.5900405,20.3231873 C52.3900302,20.1538793 52.1926896,19.9870187 52.0503018,19.8315045 C51.9736301,19.7484256 51.9374886,19.6357682 51.9515203,19.5235909 C51.9759932,19.3169061 51.9759932,19.1088864 51.9501854,18.9035366 C51.9360588,18.7925242 51.9712633,18.6808942 52.0465196,18.5980702 C52.1926896,18.4352142 52.397817,18.2578969 52.6040568,18.082137 C52.6874871,18.0102757 52.7709175,17.9384143 52.8503432,17.8690003 C52.8247579,17.8011436 52.7978377,17.7355117 52.7695826,17.6701023 C52.665684,17.6765543 52.5604505,17.685676 52.4554395,17.6932403 C52.2374082,17.7110388 52.0193769,17.7279474 51.8271534,17.7279474 L51.6836532,17.7252776 C51.5729593,17.7192535 51.4701985,17.6659281 51.4015474,17.5788851 C51.2729997,17.415538 51.1249092,17.2685682 50.9605902,17.1412652 C50.8708157,17.0716667 50.8163465,16.9659851 50.8117505,16.8524849 C50.8028512,16.6433529 50.8246544,16.3866099 50.8464575,16.1260847 C50.8553567,16.0079473 50.8669258,15.8873627 50.8731552,15.7716726 C50.8362234,15.7549865 50.7963993,15.7383005 50.7579101,15.720502 C50.722851,15.7057965 50.6873885,15.6920715 50.6515642,15.679343 C50.5810378,15.761661 50.5078415,15.8488735 50.4348678,15.9347511 C50.2617776,16.140101 50.0911348,16.344116 49.9320609,16.4905085 C49.8488531,16.566152 49.7385025,16.607311 49.6259272,16.58929 C49.4198171,16.5636031 49.2113154,16.5636031 49.0052054,16.58929 C48.8848432,16.5997466 48.7836144,16.5674869 48.7015189,16.4931782 C48.537328,16.344116 48.3577859,16.1363188 48.1795787,15.9282992 C48.1109742,15.8477744 48.0417808,15.7677533 47.972004,15.6882423 C47.9052597,15.71405 47.8398503,15.7423051 47.7744409,15.7705602 C47.7811154,15.8757937 47.7900146,15.9834744 47.7989138,16.0927126 C47.820717,16.3648067 47.8411852,16.6369009 47.8296162,16.857602 C47.8236316,16.9692548 47.7693892,17.0727864 47.6809989,17.1412652 C47.5185066,17.2689948 47.3720858,17.4159385 47.2449363,17.5788851 C47.1759672,17.667655 47.0718462,17.7212729 46.9590483,17.7266125 C46.654027,17.7290598 46.4295438,17.7110388 46.2115124,17.6932403 C46.0976022,17.6843411 45.9859168,17.6738845 45.8769011,17.667655 C45.8604376,17.7048093 45.8424166,17.7432985 45.8270654,17.7804529 C45.8125726,17.8161209 45.7988497,17.852097 45.7859064,17.8883561 C45.8682244,17.9615523 45.9552144,18.035861 46.0424269,18.1090572 C46.2475544,18.2810349 46.4488996,18.4516778 46.5937347,18.6109741 C46.6707131,18.6932921 46.7065325,18.8060899 46.6925162,18.9177753 C46.6680433,19.1244601 46.6680433,19.3335922 46.6925162,19.5389421 C46.7065325,19.6479577 46.6718255,19.7585307 46.5988517,19.8406262 C46.4488996,20.0099342 46.2384326,20.1910337 46.0270758,20.3707982 C45.9474276,20.4386549 45.8691143,20.5053992 45.7934708,20.5721435 C45.8192786,20.6388878 45.8461988,20.705632 45.8769011,20.7712639 C45.9807997,20.7645895 46.0884805,20.7556902 46.1961613,20.746791 C46.4104104,20.7301049 46.624437,20.7134189 46.8128784,20.7134189 L46.9628305,20.717201 C47.0731811,20.7223181 47.1757448,20.776381 47.2449363,20.8635935 C47.3732953,21.0262864 47.5204929,21.1731852 47.6834462,21.3012135 C47.7719936,21.3706275 47.825834,21.475861 47.8309511,21.5888813 C47.8398503,21.7993482 47.8193821,22.0585385 47.7975789,22.3203986 C47.7873448,22.4383135 47.7771107,22.5566733 47.7706588,22.6696936 Z M49.3233531,21.1421396 C49.0716317,21.1417223 48.8224309,21.0919879 48.5898335,20.9957472 C48.1195864,20.8012424 47.7460198,20.4276758 47.551515,19.9574287 C47.3551232,19.4873923 47.3541624,18.9584665 47.5488453,18.4877197 C47.9437489,17.5341665 49.0950877,17.0513829 50.0539805,17.4453966 C50.524854,17.6389244 50.8991187,18.0122282 51.0938563,18.4826027 C51.2901768,18.9526686 51.2910576,19.4815945 51.0963036,19.9523116 C50.8022633,20.6726551 50.1011753,21.1430966 49.3231306,21.1421396 L49.3233531,21.1421396 Z M49.3233531,18.070568 C48.8573959,18.0693844 48.4371307,18.3504994 48.2603393,18.781617 C48.1434446,19.063598 48.1439251,19.3805712 48.2616742,19.6621965 C48.3779898,19.9437803 48.6017998,20.16735 48.8835083,20.2833632 C49.4655184,20.524755 50.1503147,20.2308577 50.3848096,19.6595267 C50.5016425,19.3776105 50.501162,19.0607303 50.3834747,18.7791697 C50.2667393,18.4974291 50.0425601,18.2738103 49.7605281,18.1577805 C49.6221053,18.0997549 49.4734452,18.0700985 49.3233531,18.070568 Z" id="Shape" fill="#FFFFFF"></path>
                <path d="M49.0092101,50.386367 C48.9077588,50.386367 48.8089772,50.345208 48.7373384,50.2733467 L47.3078984,48.8423494 C47.2114277,48.7466034 47.1728333,48.6069524 47.2064471,48.4752558 C47.2400165,48.3431256 47.3409767,48.238611 47.4718669,48.2004919 C47.7617595,48.1143918 47.8333984,48.0465351 47.8360681,48.0438653 C48.0337096,47.8438405 48.0331137,47.5218741 47.8347333,47.3225822 C47.6411749,47.1288013 47.3052287,47.1299137 47.1116703,47.3225822 C47.1065532,47.3301465 47.0424787,47.3995606 46.9566011,47.6883408 C46.9185323,47.819 46.8140422,47.9196796 46.6820596,47.9528706 C46.5504928,47.9873557 46.4105377,47.9486302 46.315411,47.8514193 L44.8859711,46.4188647 C44.7359939,46.2684686 44.7359939,46.0250724 44.8859711,45.8746763 L46.2308683,44.5268869 C46.1867191,44.4961029 46.1451283,44.4618035 46.1065015,44.4243232 C45.6090341,43.9261884 45.6090341,43.1139106 46.1051666,42.6133285 C46.5886176,42.1267627 47.4322653,42.1267627 47.9154938,42.6133285 C47.9526481,42.6491479 47.9873552,42.6914193 48.0193924,42.7390302 L49.3631772,41.3925757 C49.4352392,41.3204751 49.5329993,41.2799662 49.6349376,41.2799662 C49.7368759,41.2799662 49.8346361,41.3204751 49.9066981,41.3925757 L51.3388078,42.8237954 C51.4349908,42.9197442 51.4734658,43.059293 51.4400429,43.1909754 C51.4066201,43.3226579 51.3062508,43.426966 51.1759518,43.4654304 C50.887394,43.5501957 50.8168675,43.6144926 50.8093032,43.622057 C50.6116003,43.8220208 50.6120969,44.1439871 50.8104156,44.3433401 C51.003974,44.5360086 51.3399202,44.5360086 51.5310313,44.3433401 C51.5388181,44.3357758 51.6015578,44.2663617 51.6874354,43.9775815 C51.7258029,43.8469579 51.8299654,43.74609 51.9617544,43.7119393 C52.0935339,43.6798421 52.2325123,43.7188033 52.3284029,43.8147255 L53.7580653,45.2457228 C53.8310391,45.3164717 53.8708632,45.4165881 53.8708632,45.5178169 C53.8708632,45.6192682 53.8310391,45.7180498 53.7580653,45.7899111 L52.4118333,47.1363656 C52.4592217,47.1697378 52.5014931,47.2031099 52.537535,47.2391518 C52.778604,47.4800048 52.9137554,47.8069943 52.9130828,48.1477639 C52.9130828,48.4892721 52.7795942,48.8114245 52.5386474,49.0541512 C52.0527491,49.5380472 51.2131061,49.5380472 50.7298775,49.0541512 C50.6905192,49.0154609 50.655255,48.9728157 50.624644,48.9268921 L49.2808593,50.2733467 C49.2092204,50.345208 49.1117738,50.386367 49.0092101,50.386367 Z M48.2487703,48.694622 L49.0092101,49.4557293 L50.4784741,47.9849079 C50.5734286,47.8874057 50.7135537,47.8486332 50.8451226,47.8834566 C50.9759414,47.9168287 51.0809524,48.0169451 51.1181067,48.1466515 C51.2053192,48.4340969 51.2656116,48.5008411 51.2720635,48.5070706 C51.4669568,48.7050786 51.802903,48.7037437 51.9951265,48.508628 C52.0911005,48.4131505 52.1447243,48.2831389 52.1439663,48.1477639 C52.1439663,48.0104932 52.0912383,47.8807868 51.9951265,47.7846751 C51.9900095,47.779558 51.9208179,47.7192657 51.6324826,47.6304958 C51.502573,47.5921527 51.4028944,47.487558 51.370845,47.3559543 C51.3374962,47.2247117 51.3759927,47.0856168 51.4720739,46.9901957 L52.9426728,45.5178169 L52.1835679,44.7569322 C52.1513324,44.8034251 52.1153167,44.8471798 52.0758871,44.887751 C51.5953283,45.371647 50.7503458,45.371647 50.2668947,44.887751 C49.767988,44.3865603 49.767988,43.5763895 50.2668947,43.0751989 C50.3072985,43.0365199 50.3505845,43.0009688 50.3963786,42.968853 L49.6348264,42.2088582 L48.1668973,43.6812369 C48.0717351,43.7776028 47.9325386,43.8161508 47.8013611,43.7824657 C47.6696922,43.749775 47.5652625,43.6496647 47.5270421,43.5194933 C47.4384947,43.2280433 47.3757551,43.1599641 47.3733078,43.1575168 C47.1770797,42.9648483 46.8424683,42.9637359 46.6513572,43.1575168 C46.4529413,43.3573151 46.4523459,43.6796049 46.6500223,43.8801349 C46.6578092,43.8865868 46.7256659,43.9493264 47.0091066,44.0314219 C47.1391716,44.0704533 47.2393439,44.1746765 47.2731914,44.3061858 C47.3066273,44.4382521 47.268183,44.5781722 47.1719626,44.6746142 L45.7013637,46.1467705 L46.4629159,46.9092126 C46.4949531,46.8591544 46.5307726,46.8155482 46.5692618,46.7783938 C47.0513779,46.2944978 47.8936907,46.2918281 48.3782542,46.7783938 C48.618444,47.0181976 48.7531915,47.3438173 48.7526895,47.6832238 C48.7526895,48.0271793 48.619201,48.3479967 48.3782542,48.5893885 C48.3388185,48.6288169 48.2954285,48.6640807 48.2487703,48.694622 Z M23.534032,30.2155791 C23.391225,30.215623 23.2558318,30.1520045 23.1647137,30.042044 C23.0828913,29.9440162 23.0435098,29.8174216 23.0552847,29.6902773 C23.0670596,29.5631329 23.1290201,29.4459236 23.2274533,29.3645895 L24.6070575,28.2183678 L23.2276758,27.0748159 C23.023154,26.9052514 22.9948155,26.6019945 23.16438,26.3974727 C23.3339445,26.1929509 23.6372013,26.1646124 23.8417231,26.3341769 L25.6660667,27.8486045 C25.7764172,27.9384868 25.8404917,28.0744227 25.8404917,28.2183678 C25.8403131,28.3617619 25.7764011,28.4976564 25.6660667,28.5892435 L23.8417231,30.1050061 C23.7552831,30.1767769 23.6463833,30.2159115 23.534032,30.2155791 Z M20.094032,30.2155791 C19.9508567,30.215861 19.8150263,30.1522288 19.7236012,30.042044 C19.5545665,29.8374244 19.5826033,29.5346864 19.7863409,29.3645895 L21.1657226,28.2183678 L19.7863409,27.0748159 C19.582316,26.9046826 19.5542661,26.6016043 19.7236012,26.3969165 C19.8932889,26.1928126 20.1961952,26.1646422 20.4006107,26.3339544 L22.2249543,27.8486045 C22.3354941,27.9395512 22.3994935,28.0752234 22.3993793,28.2183678 C22.3992007,28.3617619 22.3352887,28.4976564 22.2249543,28.5892435 L20.4006107,30.1050061 C20.3145024,30.1765983 20.2060144,30.2157264 20.094032,30.2155791 Z" id="Shape" fill="#FFFFFF"></path>
                <path d="M12.8349244,36.6897739 C12.6591645,36.6897739 12.5067651,36.5716365 12.4618239,36.4007712 L11.4720063,32.5785489 L10.6399276,34.5846594 C10.5747619,34.7414727 10.4145284,34.8370489 10.2455843,34.8198777 C10.0766402,34.8027065 9.93891308,34.6768461 9.90663052,34.5101283 L9.0078076,29.8869747 L8.11031956,34.5101283 C8.07857646,34.6768443 7.9408194,34.8027367 7.77192607,34.8193768 C7.59616614,34.8349505 7.44376671,34.741286 7.37813484,34.5846594 L6.54116161,32.5772141 L5.55512616,36.4007712 C5.5119028,36.571196 5.35851365,36.6905388 5.18269309,36.6905388 C5.00687254,36.6905388 4.85348339,36.571196 4.81026003,36.4007712 L3.82311218,32.5734319 L3.64601736,32.9957007 C3.5855752,33.1381823 3.44570932,33.2306375 3.29093781,33.2304181 L1.97296082,33.2304181 C1.76063659,33.2304181 1.58851379,33.0582953 1.58851379,32.845971 C1.58851379,32.6336468 1.76063659,32.461524 1.97296082,32.461524 L3.03575219,32.461524 L3.55502266,31.2205254 C3.61909717,31.0692384 3.77817103,30.9766863 3.93724489,30.9855855 C4.10200967,30.9973657 4.24083219,31.113081 4.28209032,31.2730309 L5.18202565,34.764424 L6.08329587,31.2730309 C6.12491827,31.1133118 6.26353797,30.9977656 6.4281413,30.9855855 C6.59500199,30.9766863 6.74740142,31.0690159 6.81036352,31.2218603 L7.59883591,33.1125032 L8.63092491,27.7974339 C8.70011648,27.4341226 9.31549871,27.4341226 9.38602517,27.7974339 L10.4183366,33.1098334 L11.2014695,31.2231952 C11.2630967,31.0690159 11.4028147,30.9766863 11.5834692,30.9855855 C11.7476602,30.9971546 11.8860433,31.1126222 11.9283147,31.2730309 L12.8349244,34.7695411 L13.3566422,32.7491918 C13.4006967,32.5799296 13.5535065,32.4617787 13.7284078,32.4617465 L15.3569682,32.4617465 C15.569231,32.4617465 15.741304,32.6338195 15.741304,32.8460823 C15.741304,33.0583451 15.569231,33.2304181 15.3569682,33.2304181 L14.0271997,33.2304181 L13.2066901,36.4007712 C13.1633727,36.5707429 13.010329,36.6897159 12.8349244,36.6897739 M7.90519214,59.6059764 C7.56301649,60.3145781 7.137188,61.191153 6.33848149,60.8345161 C6.02567331,60.6943531 5.96671587,60.3172479 5.94758251,60.1915462 C5.8345622,59.4713754 6.07817881,57.7346894 6.71803394,57.1609111 C6.83173962,57.0588391 6.99489,57.0332993 7.13434878,57.0957407 C7.27380756,57.158182 7.36341651,57.2968924 7.36300614,57.4496913 C7.36300614,57.5562597 7.32073476,57.662828 7.23463464,57.7398064 C6.91159234,58.0259169 6.68844398,59.1670215 6.68844398,59.808879 C6.68844398,59.9345807 6.7091347,60.0053297 6.72693318,60.0836429 C6.87176826,59.9552714 7.0846825,59.5238809 7.20771445,59.2684728 C7.20771445,59.2684728 7.6001708,58.3649778 7.80529821,58.2584094 C8.68343041,57.8178972 9.25008932,57.5562597 9.42584925,56.9184069 C9.50149276,56.6347437 9.54754632,56.2264912 9.32328555,55.8889876 C9.10013718,55.5525965 8.65139316,55.3356776 7.98461783,55.2460178 C7.88258756,55.2324283 7.79018637,55.1787191 7.72788108,55.0967868 C7.66557579,55.0148545 7.63850911,54.9114618 7.6526763,54.8095102 C7.68191466,54.5983754 7.87607743,54.4504182 8.08740402,54.4782361 C8.98622695,54.6001556 9.61807277,54.9314297 9.96959263,55.4616018 C10.2694969,55.913238 10.3400234,56.5037024 10.1720503,57.1235343 C9.90907781,58.0813146 9.13350932,58.4917919 8.28719189,58.8922576 L7.90519214,59.6059764" id="Shape" fill="#5F5F5F"></path>
                <path d="M6.42569401,63.5105166 C5.28325447,63.5105166 4.82828098,62.8508607 4.71659556,62.6479581 C4.02423493,61.4042897 4.39867032,59.4829444 4.67054201,58.0786449 C4.71793045,57.8361407 4.76153671,57.6127698 4.79490885,57.4138719 C4.81804686,56.9657953 4.75775453,56.449862 4.70146686,55.9517272 C4.62804815,55.3176566 4.55373953,54.6631177 4.66542495,54.0457332 C5.11550386,50.397936 7.47446908,49.627707 9.37312127,49.627707 C12.139894,49.627707 13.7913699,51.6006678 13.7913699,54.9045095 C13.7913699,56.7359725 13.0155789,58.6728914 11.6066073,60.3581844 L11.4668892,60.5045768 C10.8105705,61.1976049 9.58225334,62.4940013 8.0142078,63.149875 C7.43976205,63.3901544 6.9051404,63.5105166 6.42569401,63.5105166 Z M9.37334375,50.590382 C7.14363995,50.590382 5.91532277,51.7686409 5.61541849,54.1907907 C5.52420131,54.6940426 5.5884983,55.2522472 5.65635498,55.8427116 C5.71798219,56.380448 5.7820567,56.9375402 5.74868456,57.5215526 C5.70908296,57.7782956 5.66280692,58.0119006 5.6140836,58.2621916 C5.38470577,59.4495723 5.03585568,61.243881 5.55779593,62.1807481 C5.59228047,62.2437102 5.79229082,62.5478416 6.42569401,62.5478416 C6.77699139,62.5478416 7.18724621,62.4517299 7.64377706,62.2630661 C9.02449367,61.6841707 10.1618161,60.4841086 10.7718588,59.838469 L10.8913311,59.7138796 C12.1336646,58.2277071 12.8298074,56.5101544 12.8298074,54.9045095 C12.8298074,53.2937477 12.3810633,50.5906044 9.37334375,50.5906044 L9.37334375,50.590382 Z" id="Shape" fill="#5F5F5F"></path>
                <path d="M9.39114223,60.0462661 C9.30110027,60.0959954 9.19492714,60.1077066 9.09621119,60.0787979 C8.99749524,60.0498891 8.91441194,59.9827545 8.86541981,59.8923093 C8.76376065,59.7043777 8.83244721,59.4696325 9.01937661,59.366142 C10.4283483,58.5972479 11.4631071,56.4471923 11.3798992,55.179051 C11.3336232,54.4270655 11.0937887,53.8390484 10.67063,53.4321308 C10.67063,53.4321308 10.3669436,52.3720092 9.15664733,52.3720092 C7.94879841,52.3720092 7.28224556,53.4643905 7.28224556,54.2190458 C7.28224556,55.0148601 7.48336832,55.6104415 8.48475495,56.1083538 C8.57663487,56.1540079 8.64654462,56.2343805 8.67902632,56.3317004 C8.71150801,56.4290202 8.70388583,56.5352701 8.65784511,56.6269568 C8.56272268,56.8185313 8.33093102,56.8975828 8.13857463,56.8040517 C7.01170876,56.2405075 6.50778947,55.4446932 6.50778947,54.2188233 C6.50778947,52.9533518 7.57191572,51.5955508 9.15664733,51.5955508 C10.5989912,51.5955508 11.0528522,52.5415397 11.2065866,52.8739262 C11.7732455,53.4194494 12.0938405,54.1778868 12.151463,55.1276579 C12.2540267,56.6859143 11.0937887,59.114516 9.39114223,60.0462661 Z M8.66941411,12.4745053 C5.56936494,12.4745053 2.73317814,11.1124771 1.44479111,9.00491535 C1.34991263,8.85106101 1.34991263,8.65685272 1.44479111,8.50299838 C2.73317814,6.39410172 5.56936494,5.03229599 8.66941411,5.03229599 C11.7694633,5.03229599 14.6040927,6.39410172 15.8940371,8.50299838 C15.9889156,8.65685272 15.9889156,8.85106101 15.8940371,9.00491535 C14.6040927,11.1124771 11.7692408,12.4742829 8.66941411,12.4742829 L8.66941411,12.4745053 Z M2.42949168,8.75462431 C3.61798476,10.4388049 6.02567331,11.5116079 8.66941411,11.5116079 C11.3129324,11.5116079 13.7208435,10.4385824 14.9080017,8.75462431 C13.7208435,7.06933132 11.31182,5.99497094 8.66941411,5.99497094 C6.02567331,5.99497094 3.61798476,7.06933132 2.42949168,8.75462431 Z" id="Shape" fill="#5F5F5F"></path>
                <path d="M8.66807923,11.6849205 C7.05398013,11.6849205 5.74112021,10.3693908 5.74112021,8.75328942 C5.74112021,8.53770541 5.76670552,8.32456868 5.81921101,8.10142032 C5.86148239,7.92566039 5.99875312,7.78683229 6.17295568,7.74456092 C6.34869229,7.70109038 6.53390192,7.76070203 6.65128966,7.89851772 C6.75785803,8.02043726 6.93984742,8.16682971 7.20904934,8.16682971 C7.62472065,8.16670856 7.96193365,7.83029158 7.96303718,7.41462171 C7.96303718,7.10403834 7.76035706,6.91025746 7.6397724,6.82282246 C7.49363893,6.71621363 7.41901386,6.53711345 7.446214,6.35828229 C7.47442041,6.17973342 7.6001774,6.03198614 7.77192607,5.9756151 C8.08740402,5.87171651 8.38085636,5.8205459 8.66807923,5.8205459 C10.2835132,5.8205459 11.5990429,7.13607559 11.5990429,8.75328942 C11.5990429,10.3693908 10.2835132,11.6849205 8.66807923,11.6849205 Z M6.72582077,9.05742084 C6.87310314,9.99962755 7.68738332,10.7222456 8.66807923,10.7222456 C9.75400861,10.7222456 10.6374804,9.83921881 10.6374804,8.75328942 C10.6374804,7.71118878 9.82453506,6.85619459 8.8002329,6.78833791 C8.88210588,6.98456609 8.92459973,7.19636792 8.92459973,7.41462171 C8.92459973,8.36061059 8.1552607,9.12950466 7.20927182,9.12950466 C7.04241113,9.12950466 6.88088998,9.10503176 6.72582077,9.05764332 L6.72582077,9.05742084 Z M3.31029365,2.70648042 C3.49103317,2.89541534 3.4879428,3.19406731 3.3033323,3.37922168 C3.11872179,3.56437604 2.8200802,3.56834493 2.63061443,3.38816197 C2.44340163,3.19949601 2.44340163,2.89514638 2.63061443,2.70648042 C2.81839352,2.51901167 3.12251456,2.51901167 3.31029365,2.70648042 Z M1.41520115,5.20316134 C1.66033219,5.30600379 1.77612488,5.58772623 1.67416894,5.83322731 C1.57206275,6.07799024 1.29117541,6.19400676 1.0461053,6.09264007 C0.8006635,5.98998388 0.684768676,5.7079134 0.787137504,5.46235161 C0.889794462,5.21814225 1.17019238,5.10242721 1.41520115,5.20316134 Z M2.24105033,3.86293626 C2.34708801,3.93427592 2.42042716,4.04483238 2.44492118,4.17026515 C2.4694152,4.29569791 2.4430559,4.4257231 2.37164664,4.53171391 C2.22405632,4.75224057 1.92565758,4.8114024 1.70509379,4.66386758 C1.48519462,4.51493988 1.42624246,4.2167055 1.57294012,3.99531241 C1.72184612,3.77571872 2.01966269,3.71671078 2.24105033,3.86293626 Z M0.862781018,6.69066879 C1.03152721,6.72456904 1.16936954,6.84591919 1.22438415,7.0090078 C1.27939876,7.17209642 1.24322762,7.35214645 1.12949604,7.48133481 C1.01576446,7.61052316 0.841750977,7.66922305 0.673004791,7.63532279 C0.413098318,7.58150216 0.244988948,7.32844496 0.296122108,7.06799643 C0.350173351,6.80851249 0.602522877,6.64047763 0.862781018,6.69066879 Z M1.41520115,12.3023051 C1.66045494,12.1994622 1.77627278,11.9175791 1.67416894,11.6720166 C1.57197622,11.4273405 1.29111413,11.3114339 1.0461053,11.4128264 C0.800851506,11.5156693 0.685033663,11.7975524 0.787137504,12.0431148 C0.889330224,12.2877909 1.17019232,12.4036975 1.41520115,12.3023051 Z M2.24105033,13.6425302 C2.34695113,13.5714001 2.42022353,13.4610809 2.44472047,13.3358836 C2.46921741,13.2106863 2.44292836,13.0808862 2.37164664,12.9750874 C2.30104046,12.8688611 2.19099965,12.7951652 2.065892,12.770319 C1.94078435,12.7454729 1.81093341,12.7715268 1.70509379,12.8427113 C1.48511619,12.9910763 1.42609598,13.2891582 1.57294012,13.510154 C1.72111826,13.7308739 2.02000075,13.7899935 2.24105033,13.6423077 L2.24105033,13.6425302 Z M0.862781018,10.8159101 C1.03152721,10.7820098 1.16936954,10.6606597 1.22438415,10.497571 C1.27939876,10.3344824 1.24322762,10.1544324 1.12949604,10.025244 C1.01576446,9.89605568 0.841750977,9.8373558 0.673004791,9.87125606 C0.412878619,9.92475136 0.244603895,10.1780575 0.296122108,10.4385824 C0.350600865,10.6977771 0.602624877,10.8655952 0.862781018,10.8159101 Z M2.63061443,14.1173045 C2.72047637,14.0266679 2.84282116,13.9756832 2.97045404,13.9756832 C3.09808692,13.9756832 3.22043171,14.0266679 3.31029365,14.1173045 C3.49747291,14.3054636 3.49747291,14.609492 3.31029365,14.7976511 C3.22043171,14.8882877 3.09808692,14.9392724 2.97045404,14.9392724 C2.84282116,14.9392724 2.72047637,14.8882877 2.63061443,14.7976511 C2.44343516,14.609492 2.44343516,14.3054636 2.63061443,14.1173045 Z M0.61004269,8.2707283 C0.875878038,8.2707283 1.09138017,8.48623043 1.09138017,8.75206578 C1.09138017,9.01790112 0.875878038,9.23340325 0.61004269,9.23340325 C0.344207342,9.23340325 0.128705214,9.01790112 0.128705214,8.75206578 C0.128705214,8.48623043 0.344207342,8.2707283 0.61004269,8.2707283 Z M3.31029365,26.7949349 C3.48905404,26.9841701 3.48502138,27.2812236 3.30118988,27.4655364 C3.11735839,27.6498493 2.82031654,27.6546588 2.63061443,27.476394 C2.44354876,27.2877541 2.44354876,26.9835747 2.63061443,26.7949349 C2.81839352,26.6074661 3.12251456,26.6074661 3.31029365,26.7949349 Z M1.41520115,29.2913933 C1.66033219,29.3942358 1.77612488,29.6759582 1.67416894,29.9214593 C1.57206275,30.1662222 1.29117541,30.2822387 1.0461053,30.180872 C0.800851506,30.0780291 0.685033663,29.796146 0.787137504,29.5505836 C0.889330224,29.3059075 1.17019232,29.1900009 1.41520115,29.2913933 Z M2.24105033,27.9513907 C2.34695113,28.0225208 2.42022353,28.13284 2.44472047,28.2580373 C2.46921741,28.3832346 2.44292836,28.5130347 2.37164664,28.6188335 C2.22405632,28.8393601 1.92565758,28.898522 1.70509379,28.7509872 C1.48511619,28.6026221 1.42609598,28.3045402 1.57294012,28.0835444 C1.72111826,27.8628245 2.02000075,27.8037049 2.24105033,27.9513907 Z M0.862781018,30.7775659 C1.03152721,30.8114661 1.16936956,30.9328163 1.22438417,31.0959049 C1.27939878,31.2589935 1.24322764,31.4390436 1.12949605,31.5682319 C1.01576447,31.6974203 0.84175098,31.7561201 0.673004791,31.7222199 C0.412878619,31.6687246 0.244603895,31.4154185 0.296122108,31.1548935 C0.350600865,30.8956988 0.602624877,30.7278807 0.862781018,30.7775659 Z M1.41520115,36.3894247 C1.66051671,36.2874402 1.77670954,36.0058979 1.6747251,35.7605824 C1.57274067,35.5152668 1.2911984,35.3990739 1.04588282,35.5010583 C0.800527782,35.6038011 0.684742882,35.8858463 0.787137504,36.1313468 C0.889482617,36.3758706 1.17049928,36.4913433 1.41520115,36.3894247 Z M2.24105033,37.7305397 C2.34702521,37.6592025 2.42032068,37.5486885 2.4448123,37.4233098 C2.46930391,37.2979311 2.4429854,37.1679583 2.37164664,37.0619845 C2.22412791,36.8413812 1.92571543,36.782117 1.70509379,36.9296084 C1.48516657,37.0786195 1.42622024,37.3769236 1.57294012,37.598386 C1.72148348,37.8185567 2.01987212,37.8775786 2.24105033,37.7305397 Z M0.862781018,34.9028071 C1.12283676,34.8502744 1.29138239,34.597257 1.2396637,34.3370382 C1.18743052,34.0762084 0.933972998,33.9068387 0.673004791,33.9583756 C0.412878619,34.0118709 0.244603895,34.265177 0.296122108,34.525702 C0.350600865,34.7848967 0.602624877,34.9527148 0.862781018,34.9030296 L0.862781018,34.9028071 Z M2.63061443,38.204424 C2.81839352,38.0169553 3.12251456,38.0169553 3.31029365,38.204424 C3.49735932,38.3930639 3.49735932,38.6972433 3.31029365,38.8858831 C3.12251456,39.0733519 2.81839352,39.0733519 2.63061443,38.8858831 C2.44340163,38.6972171 2.44340163,38.3928675 2.63061443,38.2042016 L2.63061443,38.204424 Z M0.61004269,32.3589603 C0.875878038,32.3589603 1.09138017,32.5744624 1.09138017,32.8402978 C1.09138017,33.1061331 0.875878038,33.3216352 0.61004269,33.3216352 C0.344207342,33.3216352 0.128705214,33.1061331 0.128705214,32.8402978 C0.128705214,32.5744624 0.344207342,32.3589603 0.61004269,32.3589603 Z M62.4635214,17.3544019 C62.1978344,17.3541563 61.9826171,17.1386403 61.9827401,16.8729532 C61.9827401,16.607311 62.1981016,16.3930618 62.4621865,16.3930618 C62.7289411,16.3930618 62.9443026,16.6086458 62.9443026,16.8742881 C62.943812,17.1395047 62.7287384,17.3542797 62.4635214,17.3544019 Z M62.4635214,19.079519 C62.1978344,19.0792733 61.9826171,18.8637574 61.9827401,18.5980702 C61.9827401,18.332428 62.1981016,18.1181789 62.4621865,18.1181789 C62.7289411,18.1181789 62.9443026,18.3337629 62.9443026,18.5994051 C62.943812,18.8646217 62.7287384,19.0793967 62.4635214,19.079519 Z M62.0403627,14.2481232 C61.9223414,14.2969218 61.7897499,14.2967344 61.6718669,14.2476026 C61.553984,14.1984708 61.4605067,14.1044361 61.4120765,13.9862632 C61.3635442,13.8683728 61.3638463,13.7360287 61.4129162,13.618361 C61.4619861,13.5006934 61.5558019,13.4073466 61.6737141,13.358867 C61.7915338,13.3099175 61.9239869,13.3098523 62.0418548,13.3586856 C62.1597226,13.407519 62.2533202,13.5012384 62.3020002,13.6191697 C62.4017282,13.8650945 62.2850881,14.1454871 62.0403627,14.2481232 Z M62.403229,15.7805718 C62.2780383,15.8051288 62.1482206,15.7788979 62.0423861,15.7076599 C61.9365517,15.636422 61.8633873,15.5260242 61.8390174,15.4007969 C61.7876132,15.1401501 61.9567529,14.8870376 62.217235,14.8348054 C62.4775377,14.7836348 62.7300535,14.9527203 62.7814466,15.2148029 C62.8315651,15.4751913 62.6629805,15.7274731 62.403229,15.7807943 L62.403229,15.7805718 Z M61.3802618,12.8055569 C61.2742995,12.8765842 61.144338,12.902299 61.0193115,12.8769761 C60.8942849,12.8516532 60.784572,12.7773948 60.7145988,12.6707335 C60.6130954,12.5278714 60.5973667,12.3410956 60.6735488,12.1832703 C60.7497309,12.025445 60.9057545,11.9215739 61.0807524,11.9121787 C61.2557503,11.9027835 61.4219983,11.9893526 61.5146402,12.1381142 C61.660105,12.3599185 61.6000994,12.6574668 61.3800393,12.8055569 L61.3802618,12.8055569 Z M57.0260876,9.22962108 C56.9259482,9.47511826 57.0428338,9.75540529 57.2877252,9.85701728 C57.4055411,9.90565667 57.5378714,9.90540409 57.6555008,9.85631531 C57.7731302,9.80722654 57.8663848,9.71333864 57.9146764,9.59537971 C57.9635888,9.47745952 57.9636411,9.34493625 57.914822,9.22697744 C57.8660028,9.10901863 57.7723132,9.01529199 57.6543737,8.96642615 C57.4082057,8.8670584 57.1279325,8.98446746 57.0260876,9.22962108 Z M55.4951964,8.86497484 C55.4442435,9.12597281 55.6139444,9.379032 55.8747488,9.43096631 C56.1356078,9.48263433 56.388961,9.31305154 56.4406291,9.05219254 C56.4922971,8.79133354 56.3227143,8.53798034 56.0618553,8.48631231 C55.8011713,8.4361898 55.5486276,8.60494888 55.4951964,8.86497484 Z M58.4670966,9.88927701 C58.3963383,9.99527166 58.3706472,10.1250587 58.3956889,10.2500167 C58.4207306,10.3749748 58.4944482,10.4848402 58.6005851,10.5553849 C58.8212969,10.6907587 59.1095502,10.6273291 59.2530491,10.4118114 C59.3965479,10.1962938 59.3438964,9.90587841 59.1338719,9.75445357 C58.9120949,9.60973663 58.6152255,9.66976427 58.4670966,9.88927701 Z M54.8862661,8.80579492 C54.8863891,9.07148202 54.6711718,9.286998 54.4054848,9.28724364 C54.1396495,9.28724364 53.9241474,9.07174151 53.9241474,8.80590616 C53.9241474,8.54007081 54.1396495,8.32456868 54.4054848,8.32456868 C54.6708166,8.32566814 54.8855347,8.54068439 54.8862661,8.8060174 L54.8862661,8.80579492 Z M60.4429496,11.5089381 C60.3530877,11.5995747 60.2307429,11.6505594 60.10311,11.6505594 C59.9754771,11.6505594 59.8531323,11.5995747 59.7632704,11.5089381 C59.6728273,11.4188825 59.6219843,11.2965082 59.6219843,11.168876 C59.6219843,11.0412439 59.6728273,10.9188695 59.7632704,10.8288139 C59.8531323,10.7381774 59.9754771,10.6871927 60.10311,10.6871927 C60.2307429,10.6871927 60.3530877,10.7381774 60.4429496,10.8288139 C60.6301289,11.0169731 60.6301289,11.3210014 60.4429496,11.5091606 L60.4429496,11.5089381 Z M62.4635214,48.1902578 C62.197686,48.1898892 61.9818851,48.4050925 61.9815165,48.6709278 C61.9811479,48.9367631 62.1963511,49.1525641 62.4621865,49.1529327 C62.7289411,49.1529327 62.9443026,48.9371262 62.9443026,48.6701491 C62.9432025,48.4052223 62.7284497,48.1908671 62.4635214,48.1902578 Z M62.4635214,46.4253166 C62.197686,46.424948 61.9818851,46.6401513 61.9815165,46.9059866 C61.9811479,47.171822 62.1963511,47.3876229 62.4621865,47.3879916 C62.7289411,47.3879916 62.9443026,47.1721851 62.9443026,46.905208 C62.9432025,46.6402812 62.7284497,46.4259259 62.4635214,46.4253166 Z M62.0403627,51.2963139 C61.7956336,51.1961975 61.5121929,51.3118876 61.4120765,51.5595089 C61.3636464,51.6772476 61.3640087,51.8094097 61.4130838,51.9268811 C61.4621589,52.0443525 61.5559206,52.1374959 61.6737141,52.1857927 C61.7915397,52.2346805 61.9239683,52.234715 62.0418194,52.1858887 C62.1596705,52.1370623 62.2532725,52.0433819 62.3020002,51.92549 C62.4016145,51.6795043 62.2850253,51.399135 62.0403627,51.2963139 Z M62.403229,49.7638653 C62.2779805,49.7390664 62.1480133,49.7652261 62.0421124,49.8365506 C61.9362115,49.907875 61.8631169,50.0184777 61.8390174,50.1438628 C61.7880012,50.4044319 61.9569731,50.6572933 62.217235,50.7098542 C62.3423036,50.7348074 62.4721599,50.7088788 62.5780554,50.6378086 C62.6839508,50.5667384 62.7571497,50.4563895 62.7814466,50.3311917 C62.8320008,50.0704192 62.663386,49.817497 62.403229,49.7638653 Z M61.3802618,52.7391027 C61.2743905,52.6681885 61.1446179,52.642404 61.0196786,52.6674587 C60.8947394,52.6925133 60.7849422,52.7663399 60.7145988,52.8725913 C60.6435268,52.9789519 60.6176606,53.1092068 60.6426998,53.2346534 C60.6677391,53.3601 60.7416289,53.4704435 60.8480874,53.5413689 C61.0695233,53.6874736 61.3673934,53.6272235 61.5146402,53.4065455 C61.6599773,53.1847165 61.5999913,52.8872651 61.3800393,52.7391027 L61.3802618,52.7391027 Z M57.0260876,56.3150386 C56.9257621,56.0698471 57.0427925,55.7897106 57.2877252,55.6887548 C57.4053256,55.6395431 57.5377139,55.6393583 57.6554512,55.6882415 C57.7731886,55.7371246 57.8665145,55.8310233 57.9146764,55.9490575 C57.9637817,56.0669914 57.9639322,56.1996197 57.9150946,56.3176647 C57.866257,56.4357098 57.7724473,56.5294648 57.6543737,56.5782335 C57.4082057,56.6776013 57.1279325,56.5601922 57.0260876,56.3150386 Z M55.4951964,56.6807972 C55.4439841,56.419747 55.6137976,56.1665199 55.8747488,56.1148058 C55.9999892,56.0894603 56.1301651,56.1152052 56.2363294,56.1863157 C56.3424936,56.2574261 56.4158452,56.3680069 56.4400729,56.4934683 C56.4910891,56.7540374 56.3221172,57.0068988 56.0618553,57.0594598 C55.8014283,57.108319 55.5496964,56.9401024 55.4951964,56.6807972 Z M58.4670966,55.6553827 C58.3962676,55.5493708 58.3705358,55.4195313 58.3955799,55.2945191 C58.4206241,55.169507 58.4943854,55.0595993 58.6005851,54.9890523 C58.7067062,54.9180374 58.8366917,54.8920884 58.9619455,54.9169138 C59.0871992,54.9417393 59.1974607,55.0153055 59.2684728,55.1214284 C59.415594,55.3437189 59.3554377,55.6431083 59.1338719,55.7913185 C58.9119055,55.9363274 58.6145813,55.8757118 58.4670966,55.6553827 Z M54.8862661,56.7386423 C54.8863891,56.4729552 54.6711718,56.2574392 54.4054848,56.2571935 C54.1396495,56.2571935 53.9241474,56.4726957 53.9241474,56.738531 C53.9241474,57.0043664 54.1396495,57.2198685 54.4054848,57.2198685 C54.6707301,57.2187698 54.8854127,57.0038884 54.8862661,56.7386423 Z M60.4429496,54.0354991 C60.2550907,53.8476979 59.9505629,53.8477291 59.7627425,54.0355688 C59.5749221,54.2234085 59.5749221,54.5279363 59.7627425,54.715776 C59.9505629,54.9036156 60.2550907,54.9036469 60.4429496,54.7158457 C60.6301289,54.5276865 60.6301289,54.2236582 60.4429496,54.0354991 Z M3.31029365,50.7496783 C3.48905404,50.9389136 3.48502138,51.235967 3.30118988,51.4202799 C3.11735839,51.6045928 2.82031654,51.6094023 2.63061443,51.4311374 C2.44354876,51.2424976 2.44354876,50.9383181 2.63061443,50.7496783 C2.72047637,50.6590418 2.84282116,50.608057 2.97045404,50.608057 C3.09808692,50.608057 3.22043171,50.6590418 3.31029365,50.7496783 Z M1.41520115,53.2461367 C1.66082392,53.3481212 1.77726579,53.6299125 1.67528135,53.8755353 C1.57329691,54.121158 1.29150559,54.2375999 1.04588282,54.1356155 C0.800166299,54.0324973 0.68438416,53.7498614 0.787137504,53.5039921 C0.890408203,53.2604021 1.17049764,53.1453105 1.41520115,53.2459143 L1.41520115,53.2461367 Z M2.24105033,51.9047993 C2.46130645,52.0538615 2.52048637,52.3542107 2.37164664,52.5749118 C2.30083493,52.6809341 2.19067744,52.7543515 2.065569,52.7789055 C1.94046057,52.8034595 1.81072536,52.7771238 1.70509379,52.7057306 C1.48511619,52.5573655 1.42609598,52.2592836 1.57294012,52.0382878 C1.7215636,51.818419 2.01935054,51.7589211 2.24105033,51.9047993 Z M0.862781018,54.7325318 C1.11827395,54.7902841 1.28104173,55.041312 1.2295203,55.298134 C1.17799887,55.5549559 0.931003806,55.7237807 0.673004791,55.6785207 C0.412691848,55.6243902 0.244552097,55.3706917 0.296122108,55.1098594 C0.350600865,54.8506647 0.602624877,54.6828466 0.862781018,54.7325318 Z M1.41520115,60.3441681 C1.57389251,60.2781957 1.68533353,60.1325739 1.70754547,59.962157 C1.7297574,59.7917401 1.65936573,59.6224184 1.5228863,59.5179738 C1.38640688,59.4135293 1.20457418,59.3898294 1.04588282,59.4558018 C0.800527782,59.5585445 0.684742882,59.8405897 0.787137504,60.0860902 C0.889482617,60.330614 1.17049928,60.4460867 1.41520115,60.3441681 Z M2.24105033,61.6855056 C2.34708801,61.6141659 2.42042716,61.5036095 2.44492118,61.3781767 C2.4694152,61.2527439 2.4430559,61.1227187 2.37164664,61.0167279 C2.22405632,60.7962013 1.92565758,60.7370394 1.70509379,60.8845743 C1.48530338,61.033574 1.42637047,61.3317111 1.57294012,61.5531294 C1.72141232,61.7733767 2.01981449,61.8325007 2.24105033,61.6855056 Z M0.862781018,58.8577731 C1.12294154,58.8052436 1.29152019,58.5520771 1.2396637,58.2917816 C1.18724335,58.0311994 0.933647307,57.8623345 0.673004791,57.9144539 C0.4130652,57.9673122 0.244654183,58.220227 0.296122108,58.4804454 C0.350600865,58.7396401 0.602624877,58.9074582 0.862781018,58.8577731 Z M2.63061443,62.1602799 C2.72047637,62.0696433 2.84282116,62.0186586 2.97045404,62.0186586 C3.09808692,62.0186586 3.22043171,62.0696433 3.31029365,62.1602799 C3.4974001,62.3476088 3.4974001,62.6519627 3.31029365,62.8406265 C3.12251456,63.0280953 2.81839352,63.0280953 2.63061443,62.8406265 C2.44343516,62.6524674 2.44343516,62.348439 2.63061443,62.1602799 Z M0.61004269,56.3137037 C0.875878038,56.3137037 1.09138017,56.5292058 1.09138017,56.7950412 C1.09138017,57.0608765 0.875878038,57.2763787 0.61004269,57.2763787 C0.344207342,57.2763787 0.128705214,57.0608765 0.128705214,56.7950412 C0.128705214,56.5292058 0.344207342,56.3137037 0.61004269,56.3137037 Z M62.4837671,23.0109794 C62.218167,23.010611 62.0030853,22.795131 62.0032083,22.5295306 L62.0032083,21.0202201 C62.0032083,20.7545778 62.2185699,20.5387713 62.4837671,20.5387713 C62.7494094,20.5387713 62.9647709,20.7545778 62.9647709,21.0202201 L62.9647709,22.5295306 C62.9648938,22.7952177 62.7496766,23.0107337 62.4839896,23.0109794 L62.4837671,23.0109794 Z M74.158676,33.2034979 L72.6880771,33.2034979 C72.4222418,33.2034979 72.2067397,32.9879957 72.2067397,32.7221604 C72.2067397,32.456325 72.4222418,32.2408229 72.6880771,32.2408229 L74.158676,32.2408229 C74.4245114,32.2408229 74.6400135,32.456325 74.6400135,32.7221604 C74.6400135,32.9879957 74.4245114,33.2034979 74.158676,33.2034979 Z M52.2990355,33.2034979 L50.7810481,33.2034979 C50.5152128,33.2034979 50.2997106,32.9879957 50.2997106,32.7221604 C50.2997106,32.456325 50.5152128,32.2408229 50.7810481,32.2408229 L52.2990355,32.2408229 C52.5648708,32.2408229 52.7803729,32.456325 52.7803729,32.7221604 C52.7803729,32.9879957 52.5648708,33.2034979 52.2990355,33.2034979 Z M55.2976333,26.0144718 C55.1701857,26.0143759 55.0480209,25.9635406 54.9581274,25.8731964 L53.8681934,24.7785903 C53.7777901,24.6883395 53.7271002,24.5657697 53.7273507,24.4380281 C53.7276013,24.3102866 53.7787716,24.1879166 53.8695283,24.0980211 C53.9595594,24.0076294 54.0819565,23.9569284 54.2095347,23.9571791 C54.3371129,23.9574297 54.4593098,24.0086113 54.548985,24.099356 L55.6389191,25.1930722 C55.7754429,25.3312019 55.8158061,25.5377386 55.7413297,25.7171037 C55.6668534,25.8964688 55.4920668,26.0136706 55.2978558,26.0144718 L55.2976333,26.0144718 Z M69.6699009,26.0093547 C69.5424533,26.0092589 69.4202885,25.9584235 69.330395,25.8680794 C69.1433294,25.6794395 69.1433294,25.3752601 69.330395,25.1866203 L70.4187717,24.0969087 C70.508883,24.0063156 70.6313897,23.9553802 70.7591675,23.9553802 C70.8869453,23.9553802 71.009452,24.0063156 71.0995633,24.0969087 C71.2865951,24.285042 71.2865951,24.5888997 71.0995633,24.7770329 L70.0111867,25.8680794 C69.9177447,25.9617438 69.7931554,26.0093547 69.6701234,26.0093547 L69.6699009,26.0093547 Z M58.595468,23.8092409 C58.4010159,23.8088075 58.2259521,23.6913374 58.1518411,23.5115614 L57.5593744,22.0830114 C57.4581802,21.8374502 57.5745445,21.5562861 57.8196771,21.4540579 C58.065054,21.3526457 58.3462034,21.4691275 58.4479632,21.7143605 L59.0402074,23.143133 C59.1014569,23.2917682 59.0846288,23.4611492 58.9953314,23.5948275 C58.9060339,23.7285058 58.7560057,23.8089087 58.5952456,23.8092409 L58.595468,23.8092409 Z M71.8764667,29.3105267 C71.681455,29.3108756 71.5056055,29.1932323 71.4315049,29.0128472 C71.3305742,28.7672863 71.4468617,28.4863079 71.6918076,28.3838936 L73.1190227,27.7934293 C73.3637517,27.6933128 73.6458575,27.8074456 73.7470863,28.0539544 C73.848017,28.2995154 73.7317295,28.5804937 73.4867836,28.682908 L72.0600135,29.2733724 C72.0020329,29.2982337 71.9395516,29.3108814 71.8764667,29.3105267 Z M53.0899551,29.3105267 C53.0285504,29.3105267 52.9655883,29.2989577 52.905296,29.2733724 L51.482308,28.682908 C51.3642503,28.6341854 51.2704435,28.5404719 51.2216035,28.4224627 C51.1727635,28.3044536 51.1729081,28.1718568 51.2220053,28.0539544 C51.2704989,27.9358646 51.3640654,27.8419768 51.4819884,27.7930789 C51.5999114,27.744181 51.7324617,27.744307 51.8502914,27.7934293 L53.2735019,28.3852285 C53.391291,28.4338197 53.4849202,28.52726 53.5337493,28.6449506 C53.5825784,28.7626413 53.5825983,28.8949194 53.5338046,29.0126247 C53.4598014,29.1926499 53.2845968,29.3103312 53.0899551,29.3107492 L53.0899551,29.3105267 Z M66.3738461,23.7990068 C66.3099954,23.7991013 66.2467661,23.7864706 66.187852,23.7618525 C65.9436128,23.6587364 65.8280596,23.3780929 65.9288842,23.1328989 L66.5224633,21.7081311 C66.5711642,21.5902424 66.6648333,21.4966191 66.7827458,21.447976 C66.9006583,21.3993329 67.0330936,21.3996801 67.1507494,21.4489408 C67.2685633,21.4982112 67.3619353,21.5923283 67.4102678,21.71053 C67.4586003,21.8287317 67.4579219,21.9613058 67.4083824,22.0790068 L66.817473,23.5024397 C66.7428711,23.6816604 66.5679732,23.7985807 66.3738461,23.7990068 Z M62.4837671,44.9262402 C62.218167,44.9258718 62.0030853,44.7103918 62.0032083,44.4447914 L62.0032083,42.9174599 C62.0032083,42.6518177 62.2185699,42.4360112 62.4837671,42.4360112 C62.7494094,42.4360112 62.9647709,42.6518177 62.9647709,42.9174599 L62.9647709,44.4447914 C62.9648938,44.7104785 62.7496766,44.9259945 62.4839896,44.9262402 L62.4837671,44.9262402 Z M54.2054745,41.4926921 C54.0777133,41.4931923 53.955002,41.4428431 53.8644112,41.3527516 C53.6783616,41.1630885 53.6783616,40.8593982 53.8644112,40.6697351 L54.9581274,39.5764639 C55.1463887,39.3891113 55.4506578,39.3891113 55.6389191,39.5764639 C55.8247828,39.765597 55.8247828,40.0687898 55.6389191,40.257923 L54.5452028,41.3527516 C54.4517609,41.446416 54.3271715,41.4926921 54.2054745,41.4926921 Z M70.7622823,41.4926921 C70.6349976,41.4930975 70.5128054,41.4427312 70.4227764,41.3527516 L69.3315075,40.26304 C69.2408486,40.1731237 69.1897619,40.0507847 69.1895531,39.9230979 C69.1893443,39.7954111 69.2400308,39.6729057 69.330395,39.5826934 C69.4201,39.4919781 69.5423136,39.4408367 69.6698917,39.4406278 C69.7974699,39.4404189 69.9198503,39.4911599 70.0098518,39.581581 L71.1008982,40.6699576 C71.2389382,40.8073079 71.2806464,41.014288 71.2065736,41.1943807 C71.1325009,41.3744734 70.9572351,41.4922114 70.7625047,41.4926921 L70.7622823,41.4926921 Z M58.0043362,44.0354265 C57.9409703,44.0361211 57.8781311,44.0238561 57.8196771,43.9993846 C57.5745445,43.8971564 57.4581802,43.6159923 57.5593744,43.3704311 L58.1518411,41.9354291 C58.2003791,41.8174348 58.2939263,41.7236399 58.411792,41.6747902 C58.5296576,41.6259405 58.6621285,41.6260615 58.7799047,41.6751264 C59.0251018,41.7771676 59.1415181,42.0583577 59.0402074,42.3038575 L58.4479632,43.7388595 C58.3743379,43.9188803 58.1988294,44.0362087 58.0043362,44.0354265 Z M73.3007896,37.6896032 C73.2393849,37.6896032 73.1779801,37.6780342 73.1176878,37.6535613 L71.69203,37.0630969 C71.4460387,36.9614811 71.3289992,36.6796898 71.430615,36.4336984 C71.5322308,36.187707 71.8140221,36.0706675 72.0600135,36.1722833 L73.4856712,36.7627477 C73.7309779,36.8655375 73.8472628,37.1471059 73.7459739,37.3930361 C73.6713791,37.5728645 73.4956978,37.6899562 73.3010121,37.6896032 L73.3007896,37.6896032 Z M51.663185,37.6909381 C51.4689669,37.690811 51.2939183,37.5737901 51.219558,37.394371 C51.170213,37.2764928 51.1699447,37.1437973 51.2188127,37.0257205 C51.2676807,36.9076437 51.3616447,36.8139478 51.4798607,36.7654174 L52.9055184,36.1736182 C53.0232863,36.1241926 53.1559294,36.123917 53.2739016,36.1728527 C53.3918739,36.2217884 53.4853766,36.3158709 53.5335821,36.4341433 C53.5825154,36.5518999 53.5825688,36.6842901 53.5337306,36.8020862 C53.4848924,36.9198822 53.391179,37.0133967 53.2732794,37.0619845 L51.8476217,37.6537838 C51.7875518,37.6793691 51.7245897,37.6909381 51.6629625,37.6909381 L51.663185,37.6909381 Z M66.9660903,44.0354265 C66.7720875,44.0358842 66.5969478,43.9193294 66.5224633,43.7401944 L65.9288842,42.3167614 C65.8277334,42.0708278 65.9431695,41.7892788 66.187852,41.6851381 C66.3058626,41.6356078 66.4387734,41.6352921 66.5570179,41.6842612 C66.6752625,41.7332303 66.7690341,41.827423 66.817473,41.9458857 L67.4083824,43.3693187 C67.4579219,43.4870196 67.4586003,43.6195937 67.4102678,43.7377954 C67.3619353,43.8559971 67.2685633,43.9501142 67.1507494,43.9993846 C67.0922345,44.0236546 67.0294369,44.0359114 66.9660903,44.0354265 Z M58.2811025,28.5031434 C58.188893,28.5938779 58.13716,28.717957 58.1376023,28.8473214 C58.1361148,28.9769308 58.1875349,29.1015442 58.2799901,29.1923893 C58.3704472,29.2850534 58.4943923,29.3374119 58.6238877,29.3376631 C58.7533831,29.3379142 58.8775303,29.2860368 58.9683461,29.1937242 C59.0620105,29.1013946 59.1134036,28.9781402 59.1120687,28.8473214 C59.1120687,28.7162801 59.0608981,28.5943606 58.9683461,28.5047008 C58.7863567,28.3209315 58.4646493,28.3195966 58.281325,28.5031434 L58.2811025,28.5031434 Z M57.2568003,31.0638988 C57.3157578,31.0894841 57.3787199,31.1010531 57.4441293,31.1010531 C57.6381317,31.1019527 57.813647,30.9861126 57.8890911,30.8073783 C57.9415966,30.6890185 57.9453788,30.5581997 57.8979904,30.437615 C57.8486937,30.3144925 57.7528465,30.2157674 57.6312357,30.1628511 L57.4479114,30.1281441 C57.2516833,30.1281441 57.0734761,30.2438341 56.9913806,30.4284933 C56.8917506,30.6772362 57.0098381,30.9599334 57.2568003,31.0638988 Z M57.4414595,34.3432676 L57.2556879,34.3806444 C57.0089839,34.4854696 56.8919373,34.7687776 56.9927155,35.0171623 C57.0706021,35.1975113 57.2476854,35.3148104 57.4441293,35.3161767 C57.6439051,35.3150079 57.8231893,35.1932879 57.8979904,35.0080406 C57.9449012,34.8909921 57.9420894,34.7598815 57.8902035,34.6449518 C57.8163505,34.4621179 57.638645,34.342649 57.4414595,34.3432676 Z M58.2799901,36.2481493 C58.1878575,36.3403051 58.1365615,36.4655795 58.1376023,36.595887 C58.137838,36.7248326 58.1893181,36.8483966 58.280705,36.9393662 C58.3720918,37.0303358 58.4958902,37.0812498 58.6248355,37.0808954 C58.7538267,37.081552 58.8776459,37.030228 58.9683461,36.9385076 C59.1561062,36.7466877 59.1561062,36.4399692 58.9683461,36.2481493 C58.7850218,36.0670498 58.4684314,36.0657149 58.2799901,36.2481493 Z M57.5082038,32.7222716 C57.5098243,32.5930457 57.4593273,32.4686136 57.3681112,32.3770625 C57.2768951,32.2855115 57.1526489,32.2345589 57.0234178,32.2357058 C56.7531035,32.2357058 56.5339598,32.4539596 56.5339598,32.7222716 C56.5339598,32.9905836 56.7531035,33.2086149 57.0234178,33.2086149 C57.1526098,33.2097608 57.2768214,33.1588385 57.3680309,33.067336 C57.4592404,32.9758336 57.509764,32.8514592 57.5082038,32.7222716 Z M65.9840595,36.2481493 C65.7943201,36.4397646 65.7943201,36.7484496 65.9840595,36.940065 C66.0763891,37.0312821 66.199421,37.0824527 66.3302398,37.0824527 C66.4597237,37.0824527 66.5827557,37.0312821 66.6750852,36.9387301 C66.8635459,36.7461993 66.8624558,36.4380072 66.6726379,36.2468144 C66.4879788,36.0659374 66.1751706,36.06438 65.9840595,36.2481493 Z M67.698275,34.3793095 L67.5136158,34.3432676 C67.3149404,34.3432676 67.1391804,34.4600701 67.0635369,34.6411696 C67.0121254,34.7602064 67.0112422,34.8950149 67.0610896,35.0147151 C67.109813,35.1352997 67.2021425,35.2289642 67.3225047,35.2776875 C67.4423039,35.3285028 67.5774797,35.329141 67.6977533,35.2794591 C67.8180269,35.2297773 67.9133462,35.1339276 67.9623599,35.0133802 C68.0624763,34.770876 67.9456738,34.4858779 67.698275,34.3793095 Z M67.5109461,31.1010531 C67.575243,31.1010531 67.6377602,31.0894841 67.7007223,31.0638988 C67.9461746,30.9571155 68.0621267,30.674433 67.9623599,30.426046 C67.8841055,30.2450477 67.7056893,30.1279402 67.5084988,30.1281441 L67.3213923,30.164186 C67.2008077,30.2153566 67.1084781,30.3103559 67.0597548,30.4311631 C67.0109622,30.5507035 67.0123253,30.6848495 67.0635369,30.8033737 C67.1384654,30.9841836 67.315227,31.1017902 67.5109461,31.1010531 Z M66.3302398,29.3374469 C66.4597237,29.3374469 66.5827557,29.2862763 66.6750852,29.1923893 C66.8625025,29.0016871 66.8619077,28.6957851 66.6737503,28.5058132 C66.4890912,28.3222664 66.1725008,28.321154 65.9840595,28.5071481 C65.7995641,28.6988238 65.7995641,29.0020484 65.9840595,29.1937242 C66.0763891,29.2862763 66.199421,29.3374469 66.3302398,29.3374469 Z M67.9301001,32.2357058 C67.6614387,32.2357058 67.4436456,32.453499 67.4436456,32.7221604 C67.4436456,32.9908218 67.6614387,33.2086149 67.9301001,33.2086149 C68.2008594,33.2086149 68.4200031,32.9905836 68.4200031,32.7222716 C68.4190218,32.4527393 68.1998557,32.2349673 67.9303226,32.2357058 L67.9301001,32.2357058 Z M64.7673113,27.23122 L64.5815398,27.1954005 C64.3866465,27.1954005 64.2095516,27.312203 64.1327957,27.4957498 C64.0326793,27.7447059 64.1505942,28.029704 64.3955457,28.1309328 C64.5141336,28.1818482 64.6482167,28.1829254 64.7676073,28.1339221 C64.886998,28.0849188 64.981661,27.9899538 65.0302838,27.8704077 C65.1319082,27.621282 65.0148278,27.3367033 64.7673113,27.23122 Z M60.3710883,28.169422 C60.4351628,28.169422 60.4992373,28.1567406 60.5595296,28.1322677 C60.8064154,28.0268921 60.9233139,27.7431089 60.8222796,27.4944149 C60.7468554,27.3121227 60.5683617,27.193831 60.3710883,27.1954005 L60.1839818,27.2325549 C59.9384809,27.3392892 59.8233242,27.6226835 59.9247916,27.8704077 C59.9984568,28.0519305 60.1751897,28.1703397 60.3710883,28.169422 Z M62.4775377,26.7742442 C62.2083358,26.7742442 61.9889696,26.9924979 61.9889696,27.2608099 C61.9887253,27.5296333 62.2063428,27.7478131 62.4751659,27.7482625 C62.743989,27.7487119 62.9623348,27.5312609 62.9629894,27.2624383 C62.963644,26.9936156 62.7463598,26.7751039 62.4775377,26.7742442 Z M60.5595296,37.3122755 C60.3134657,37.2108242 60.0222382,37.3327438 59.9247916,37.5725782 C59.8216202,37.8221355 59.9390243,38.1081962 60.187764,38.2133233 L60.3697534,38.2504776 C60.5699862,38.2504776 60.7466361,38.1310053 60.8222796,37.9463462 C60.9226429,37.6987004 60.8056398,37.4163476 60.5595296,37.3122755 Z M64.3955457,37.3122755 C64.1494464,37.4169662 64.0329412,37.6998082 64.1339081,37.9474586 C64.2077383,38.1304935 64.3852878,38.2503856 64.5826522,38.2504776 L64.7686462,38.2133233 C65.015551,38.107238 65.13194,37.8228967 65.0302838,37.5741356 C64.9328371,37.3316314 64.6364925,37.2132715 64.3955457,37.3122755 Z M64.5826522,38.0642611 C64.5853219,38.0642611 64.5893266,38.0655959 64.5915514,38.0655959 L64.5826522,38.0900688 L64.5826522,38.0642611 Z M62.4775377,37.6947202 C62.2083358,37.6947202 61.9889696,37.9127516 61.9889696,38.1810635 C61.9889696,38.4520453 62.2083358,38.6714115 62.4775377,38.6714115 C62.7470704,38.670063 62.9645445,38.4505974 62.963436,38.1810635 C62.963436,37.912974 62.7454047,37.6947202 62.4775377,37.6947202 Z M40.7869826,12.2780547 C40.695559,12.3706805 40.644389,12.4956472 40.6445948,12.6257924 C40.6445948,12.7554987 40.6959879,12.8787532 40.7869826,12.9697479 C40.8784454,13.0619512 41.0030131,13.1137023 41.1328855,13.1134515 C41.2627579,13.1132007 41.3871248,13.0609689 41.4782308,12.968413 C41.6640024,12.7797492 41.6651148,12.4718356 41.475561,12.2764973 C41.289567,12.0969552 40.9767588,12.0956203 40.7869826,12.2780547 Z M42.5011981,10.4092149 L42.3154265,10.373173 C42.1178635,10.373173 41.9409911,10.4910879 41.8666825,10.6708525 C41.8151368,10.7899233 41.8141732,10.9248255 41.8640127,11.0446204 C41.9129585,11.1652051 42.0050656,11.2588696 42.1256503,11.3075929 C42.2454618,11.3579617 42.3804314,11.3583747 42.5005489,11.3087401 C42.6206663,11.2591054 42.7159749,11.1635375 42.765283,11.0432856 C42.8653994,10.8007814 42.7474845,10.5155608 42.5011981,10.4092149 Z M42.7319108,8.26561124 C42.4632494,8.26561124 42.2454563,8.48340435 42.2454563,8.75206578 C42.2454563,9.0207272 42.4632494,9.23852031 42.7319108,9.23852031 C43.0024476,9.23852031 43.2218138,9.02048901 43.2218138,8.75195454 C43.22071,8.48250926 43.0015798,8.26487245 42.7321333,8.26561124 L42.7319108,8.26561124 Z M39.1984688,13.3421809 C38.9522982,13.4468024 38.8354684,13.7294713 38.9359413,13.977364 C39.0106156,14.1602131 39.1882887,14.279892 39.3857977,14.280383 L39.5715693,14.2443411 C39.8184681,14.1375225 39.9347089,13.8529501 39.8332069,13.6038185 C39.7357602,13.3613143 39.4394156,13.2431769 39.1984688,13.3419585 L39.1984688,13.3421809 Z M39.3857977,14.0941665 C39.388245,14.0941665 39.3922497,14.0955013 39.394697,14.0955013 L39.3857977,14.1199742 L39.3857977,14.0941665 Z M37.2793484,13.7244032 C37.0153803,13.7323721 36.8055229,13.9486605 36.8055229,14.2127488 C36.8055229,14.4768371 37.0153803,14.6931255 37.2793484,14.7010944 C37.5487939,14.6997459 37.7662321,14.480416 37.7652467,14.2109689 C37.7652467,13.9426569 37.5472154,13.7244032 37.2793484,13.7244032 Z M33.0611101,28.5712226 C32.9676681,28.6624397 32.9149401,28.7870291 32.9149401,28.9178478 C32.9149401,29.0513364 32.9661107,29.1759257 33.0611101,29.2682553 C33.1534397,29.3619198 33.2753592,29.4133129 33.4086253,29.4133129 C33.5421138,29.4133129 33.6638109,29.3619198 33.7534707,29.2695902 C33.8495825,29.1757032 33.9023104,29.0513364 33.8996407,28.9178478 C33.9003833,28.7880981 33.8486269,28.6635618 33.7561405,28.5725575 C33.5714813,28.3878983 33.2457692,28.3852285 33.0611101,28.5712226 Z M32.0265738,31.1575633 C32.1455779,31.2082493 32.2798799,31.2093939 32.3997306,31.1607437 C32.5195813,31.1120935 32.6150877,31.0176643 32.665094,30.898373 C32.7182136,30.7799683 32.7209439,30.6450621 32.6726584,30.5246051 C32.623715,30.4003545 32.5273339,30.3006914 32.4047913,30.2476163 L32.2187973,30.2115744 C32.0201218,30.2115744 31.8405797,30.3297118 31.7584843,30.5159283 C31.6581882,30.7671261 31.7773783,31.052391 32.0265738,31.1575633 Z M32.2123454,34.4689693 L32.023904,34.507681 C31.7755494,34.6151331 31.6583228,34.9011384 31.7598192,35.1519858 C31.8386362,35.3334517 32.0171747,35.4512557 32.2150151,35.452335 C32.2817594,35.452335 32.344499,35.4394311 32.4047913,35.4151807 C32.527132,35.3635279 32.6236307,35.2649453 32.6726584,35.1415292 C32.720897,35.0238995 32.7181577,34.8915263 32.665094,34.775993 C32.5915921,34.5903513 32.4120081,34.4685696 32.2123454,34.4689693 Z M33.0611101,36.3932068 C32.9675603,36.486267 32.9149562,36.6127732 32.9149401,36.7447267 C32.9149401,36.8759905 32.9676681,37.0003573 33.0611101,37.0926869 C33.1534397,37.1863513 33.2778065,37.2364095 33.4086253,37.2364095 C33.5392729,37.2368363 33.6645675,37.1845366 33.7561405,37.091352 C33.9445818,36.9000184 33.9445818,36.5896575 33.7534707,36.3932068 C33.5688115,36.2121074 33.2495514,36.2107725 33.0611101,36.3932068 Z M32.2790896,32.8326222 C32.2790896,32.5578582 32.0637281,32.3409393 31.790744,32.3409393 C31.659872,32.3404073 31.5341585,32.391932 31.4413048,32.4841597 C31.3484511,32.5763874 31.2960772,32.7017495 31.2957239,32.8326222 C31.2957239,33.1033814 31.5162025,33.324305 31.790744,33.324305 C31.9210445,33.3249705 32.0461525,33.2732738 32.1379758,33.1808231 C32.2297991,33.0883723 32.2806425,32.9629151 32.2790896,32.8326222 Z M35.1715641,28.233719 C35.2369735,28.233719 35.301048,28.2208151 35.3613403,28.1965647 C35.6118083,28.0910749 35.7303099,27.8033136 35.6267601,27.5520375 C35.5507396,27.367915 35.3707603,27.2481926 35.1715641,27.2492409 L34.9831228,27.2877301 C34.7350187,27.3954267 34.6182624,27.6814894 34.7201503,27.9320349 C34.7948648,28.1153694 34.9735929,28.2348151 35.1715641,28.233719 Z M37.2984817,26.8245248 C37.0324471,26.8325252 36.820931,27.0504977 36.820931,27.3166526 C36.820931,27.5828076 37.0324471,27.8007801 37.2984817,27.8087804 C37.4289614,27.8086037 37.5540202,27.7565707 37.6461162,27.6641408 C37.7382123,27.5717109 37.7897924,27.4464647 37.7894971,27.3159852 C37.7894971,27.0452259 37.5703534,26.8243024 37.2984817,26.8243024 L37.2984817,26.8245248 Z M35.3611178,37.4686796 C35.1137191,37.3661159 34.8202667,37.4893704 34.7203728,37.7318746 C34.6168785,37.9837678 34.7350531,38.2720664 34.9855701,38.3788491 L35.1702292,38.4173383 C35.3715745,38.4173383 35.5511166,38.2967536 35.6267601,38.1092022 C35.7304362,37.8615809 35.6111864,37.5741356 35.3613403,37.4686796 L35.3611178,37.4686796 Z M39.4253993,38.2286745 C39.4280691,38.2286745 39.4331862,38.2300093 39.4358559,38.2300093 L39.4253993,38.2544822 L39.4253993,38.2286745 Z M37.2984817,37.855129 C37.0268246,37.8551287 36.8064997,38.075155 36.8061314,38.3468118 C36.8057178,38.4778045 36.857358,38.6035963 36.9496917,38.6965141 C37.0420254,38.789432 37.1674891,38.8418645 37.2984817,38.8422768 C37.4293159,38.8417471 37.5545743,38.7892342 37.6466706,38.6963033 C37.7387669,38.6033725 37.7901476,38.4776455 37.7894971,38.3468118 C37.7894971,38.0758301 37.5703534,37.855129 37.2984817,37.855129 Z M42.3140916,55.1163114 C42.379501,55.1163114 42.4422407,55.1034075 42.5052028,55.0789346 C42.7505686,54.972067 42.8664122,54.6894084 42.7666178,54.4410818 C42.6883236,54.2593591 42.509293,54.1417555 42.3114219,54.1420674 L42.1256503,54.1792217 C42.0050656,54.2303923 41.9127361,54.3242793 41.8640127,54.4475337 C41.8152416,54.566617 41.8166054,54.7003455 41.8677949,54.8184094 C41.9425486,54.9988913 42.1187412,55.1164994 42.3140916,55.1163114 Z M41.1331629,53.3527051 C41.2639817,53.3527051 41.3870136,53.301312 41.4793432,53.2089824 C41.6656994,53.0172795 41.6652058,52.7119483 41.4782308,52.5208489 C41.2922368,52.3373022 40.9754239,52.3361898 40.78854,52.5221838 C40.6026239,52.7133712 40.6026239,53.0177951 40.78854,53.2089824 C40.8806471,53.301312 41.003679,53.3527051 41.1333854,53.3527051 L41.1331629,53.3527051 Z M42.7332457,56.2509641 C42.4645843,56.2509641 42.2467912,56.4687572 42.2467912,56.7374186 C42.2467912,57.00608 42.4645843,57.2238732 42.7332457,57.2238732 C43.0028151,57.2246119 43.2220449,57.0068755 43.2231487,56.7373074 C43.2220449,56.467775 43.002779,56.2501023 42.7332457,56.2509641 Z M39.5715693,51.2462557 L39.3857977,51.2104363 C39.1909045,51.2104363 39.0140321,51.3272388 38.9357188,51.5121204 C38.8356024,51.7597417 38.9550747,52.0460746 39.1998037,52.1461911 C39.3184244,52.1967905 39.4523816,52.1977092 39.5716852,52.1487417 C39.6909889,52.0997741 39.7856737,52.0050103 39.8345418,51.8856659 C39.9363122,51.6364784 39.8192072,51.3517408 39.5715693,51.2462557 Z M37.2804608,50.7895024 C37.0112589,50.7895024 36.7932275,51.0075337 36.7932275,51.2758457 C36.7932275,51.5441577 37.0112589,51.7648588 37.2804608,51.7648588 C37.5494051,51.7632681 37.7665863,51.5447947 37.7665816,51.2758457 C37.7665816,51.0075337 37.5485503,50.7895024 37.2804608,50.7895024 Z" id="Shape" fill="#000000"></path>
                <path d="M37.2804608,65.342202 C32.5727644,65.342202 28.741643,61.5081883 28.741643,56.7964873 C28.741643,52.0805592 32.5727644,48.245433 37.2804608,48.245433 C41.9897145,48.245433 45.8206135,52.0805592 45.8206135,56.7964873 C45.8206135,61.5081883 41.989492,65.342202 37.2804608,65.342202 Z M37.2804608,49.2078855 C33.1036039,49.2078855 29.703428,52.6118436 29.703428,56.7964873 C29.703428,60.9782387 33.1036039,64.3795271 37.2804608,64.3795271 C41.458875,64.3795271 44.8590509,60.9782387 44.8590509,56.7964873 C44.8590509,52.6120661 41.458875,49.208108 37.2804608,49.208108 L37.2804608,49.2078855 Z M37.2804608,41.3887935 C32.5727644,41.3887935 28.741643,37.5534449 28.741643,32.8388516 C28.741643,28.1258158 32.5727644,24.2906896 37.2804608,24.2906896 C41.9897145,24.2906896 45.8206135,28.1258158 45.8206135,32.8390741 C45.8206135,37.5534449 41.989492,41.3887935 37.2804608,41.3887935 Z M37.2804608,25.2533646 C33.1036039,25.2533646 29.703428,28.6573227 29.703428,32.8390741 C29.703428,37.0234953 33.1036039,40.4261185 37.2804608,40.4261185 C41.458875,40.4261185 44.8590509,37.0234953 44.8590509,32.8390741 C44.8590509,28.6573227 41.458875,25.2533646 37.2804608,25.2533646 Z M37.2804608,17.3016739 C32.5727644,17.3016739 28.741643,13.4665478 28.741643,8.75328942 C28.741643,4.03891867 32.5727644,0.20245764 37.2804608,0.20245764 C41.9897145,0.20245764 45.8206135,4.03891867 45.8206135,8.75328942 C45.8206135,13.4665478 41.989492,17.3016739 37.2804608,17.3016739 Z M37.2804608,1.16513259 C33.1036039,1.16513259 29.703428,4.56909071 29.703428,8.75328942 C29.703428,12.9350408 33.1036039,16.338999 37.2804608,16.338999 C41.458875,16.338999 44.8590509,12.9350408 44.8590509,8.75328942 C44.8590509,4.56909071 41.458875,1.16513259 37.2804608,1.16513259 Z M60.8338486,17.4069074 C60.5683354,17.4065391 60.3532896,17.1911946 60.3532898,16.9256812 C60.3532898,14.158241 58.3954577,11.7247446 55.7003238,11.1393973 C55.575589,11.1123313 55.4667262,11.0367983 55.3977074,10.929431 C55.3286886,10.8220638 55.3051735,10.6916667 55.3323404,10.5669539 C55.3888505,10.3077636 55.6464834,10.1473549 55.9030039,10.1985255 C59.0388725,10.8788722 61.3146299,13.7092745 61.3146299,16.9256812 C61.3146301,17.1911946 61.0995843,17.4065391 60.8340711,17.4069074 L60.8338486,17.4069074 Z M55.8017751,55.3577032 C55.5753055,55.3574748 55.3797311,55.1991615 55.3323404,54.9777058 C55.3051074,54.8529604 55.3285904,54.7225058 55.3976151,54.6150877 C55.4666398,54.5076696 55.5755415,54.4321033 55.7003238,54.4050399 C58.3954577,53.819915 60.3530673,51.3861962 60.3530673,48.6189785 C60.3530673,48.3533363 60.5684289,48.1375298 60.8338486,48.1375298 C61.0992684,48.1375298 61.3146299,48.3533363 61.3146299,48.6189785 C61.3146299,51.8367201 59.0377601,54.6668999 55.9030039,55.3459117 C55.8696318,55.3536985 55.8349248,55.3574807 55.8017751,55.3574807 L55.8017751,55.3577032 Z M8.66941411,17.3016739 C7.03763224,17.3036625 5.43977479,16.8358443 4.06672879,15.954107 C3.95906667,15.8850372 3.88328239,15.7759971 3.85607348,15.6510114 C3.82886456,15.5260257 3.85246368,15.3953502 3.92167122,15.2877766 C3.99033557,15.1801826 4.09913619,15.1044766 4.22388738,15.0774875 C4.34863856,15.0504985 4.4790022,15.074463 4.58599926,15.1440539 C5.80429101,15.9259138 7.22181725,16.3407298 8.66941411,16.338999 C12.8476058,16.338999 16.2464469,12.9350408 16.2464469,8.75328942 C16.2464469,4.56909071 12.8476058,1.16513259 8.66941411,1.16513259 C7.22181442,1.16315955 5.80424134,1.57791206 4.58599926,2.35985515 C4.47883251,2.42922356 4.34840914,2.452944 4.22368052,2.42575099 C4.09895189,2.39855797 3.99023803,2.32270146 3.92167122,2.21502007 C3.85253008,2.10765455 3.82896624,1.97718443 3.85618235,1.8524161 C3.88339846,1.72764777 3.95915609,1.61884296 4.06672879,1.55002459 C5.43977479,0.668287267 7.03763224,0.200469084 8.66941411,0.20245764 C13.3771104,0.20245764 17.2082319,4.03891867 17.2082319,8.75328942 C17.2082319,13.4665478 13.3771104,17.3016739 8.66941411,17.3016739 Z M8.66941411,41.3887935 C7.03760999,41.3907157 5.43975081,40.9228198 4.06672879,40.0410041 C3.95917098,39.9722276 3.88341777,39.863462 3.85620045,39.7387299 C3.82898314,39.6139978 3.85254111,39.4835619 3.92167122,39.3762311 C3.99040397,39.2687503 4.09908852,39.1930453 4.22373039,39.1658294 C4.34837225,39.1386136 4.47872099,39.1621252 4.58599926,39.2311735 C5.80424134,40.0131166 7.22181442,40.4278691 8.66941411,40.4258961 C12.8476058,40.4258961 16.2464469,37.0234953 16.2464469,32.840409 C16.2464469,28.6573227 12.8476058,25.2533646 8.66941411,25.2533646 C7.22181442,25.2513915 5.80424134,25.666144 4.58599926,26.4480871 C4.47883251,26.5174555 4.34840914,26.541176 4.22368052,26.513983 C4.09895189,26.48679 3.99023803,26.4109334 3.92167122,26.303252 C3.85253008,26.1958865 3.82896624,26.0654164 3.85618235,25.9406481 C3.88339846,25.8158798 3.95915609,25.7070749 4.06672879,25.6382566 C5.43977479,24.7565192 7.03763224,24.2887011 8.66941411,24.2906896 C13.3771104,24.2906896 17.2082319,28.1258158 17.2082319,32.840409 C17.2082319,37.5547797 13.3771104,41.3887935 8.66941411,41.3887935 Z M8.66941411,65.3435369 C7.03760999,65.3454591 5.43975081,64.8775632 4.06672879,63.9957475 C3.9591979,63.9272212 3.88342717,63.8186491 3.8561999,63.6940801 C3.82897262,63.5695112 3.85253619,63.4392274 3.92167122,63.3320869 C3.99030614,63.2245175 4.09890449,63.1486612 4.22352426,63.1212415 C4.34814402,63.0938218 4.47855248,63.1170902 4.58599926,63.1859169 C5.80424134,63.96786 7.22181442,64.3826125 8.66941411,64.3806395 C12.8476058,64.3806395 16.2464469,60.9793511 16.2464469,56.7962648 C16.2464469,52.6120661 12.8476058,49.208108 8.66941411,49.208108 C7.22200247,49.2063424 5.80458696,49.6206627 4.58599926,50.4017181 C4.47889095,50.4713682 4.348353,50.4952294 4.22353123,50.4679743 C4.09870946,50.4407192 3.98999867,50.3646174 3.92167122,50.2566606 C3.85260082,50.149313 3.82907749,50.0188958 3.85629092,49.8941815 C3.88350435,49.7694672 3.95921827,49.6607042 4.06672879,49.5918876 C5.44012592,48.7110496 7.03782224,48.2436648 8.66941411,48.245433 C13.3771104,48.245433 17.2082319,52.0805592 17.2082319,56.7964873 C17.2082319,61.5095232 13.3771104,65.3435369 8.66941411,65.3435369 Z" id="Shape" fill="#FFFFFF"></path>
                <path d="M52.4952636,9.28724364 L45.3371624,9.28724364 C45.0717427,9.28724364 45.0717427,8.32456868 45.3371624,8.32456868 L52.4952636,8.32456868 C52.761099,8.32456868 52.9766011,8.54007081 52.9766011,8.80590616 C52.9766011,9.07174151 52.761099,9.28724364 52.4952636,9.28724364 Z M52.4952636,57.5498077 L45.3371624,57.5498077 C45.0717427,57.5498077 45.0717427,56.5871328 45.3371624,56.5871328 L52.4952636,56.5871328 C52.761099,56.5871328 52.9766011,56.8026349 52.9766011,57.0684702 C52.9766011,57.3343056 52.761099,57.5498077 52.4952636,57.5498077 Z M62.4697508,41.2808902 C57.7607196,41.2808902 53.9298206,37.4457641 53.9298206,32.7325057 C53.9298206,28.018135 57.7607196,24.1827864 62.4697508,24.1827864 C67.1803394,24.1827864 71.0112384,28.018135 71.0112384,32.7325057 C71.0112384,37.4457641 67.1801169,41.2808902 62.4697508,41.2808902 Z M62.4697508,25.1454613 C58.2902242,25.1454613 54.8913832,28.5494194 54.8913832,32.7325057 C54.8913832,36.9155921 58.2902242,40.3182153 62.4697508,40.3182153 C66.6494999,40.3182153 70.0496759,36.9155921 70.0496759,32.7325057 C70.0496759,28.5494194 66.6494999,25.1454613 62.4697508,25.1454613 Z M47.1385905,32.2408229 C46.8727551,32.2404543 46.6569542,32.4556576 46.6565856,32.7214929 C46.6562169,32.9873283 46.8714202,33.2031292 47.1372556,33.2034979 C47.2652341,33.2036163 47.3879986,33.152799 47.4784514,33.0622627 C47.5689042,32.9717264 47.6196082,32.8489151 47.6193717,32.7209367 C47.6183936,32.455923 47.4036053,32.2414329 47.1385905,32.2408229 Z M48.841237,32.2408229 C48.5754016,32.2404543 48.3596007,32.4556576 48.359232,32.7214929 C48.3588634,32.9873283 48.5740667,33.2031292 48.8399021,33.2034979 C48.9678806,33.2036163 49.0906451,33.152799 49.1810979,33.0622627 C49.2715507,32.9717264 49.3222547,32.8489151 49.3220182,32.7209367 C49.3210401,32.455923 49.1062518,32.2414329 48.841237,32.2408229 Z M16.7272282,9.23473814 L29.2226467,9.23473814 L29.2226467,8.2718407 L16.7272282,8.2718407 L16.7272282,9.23473814 Z M30.7891349,37.6459969 L22.9749374,44.1907182 L15.1591826,37.6459969 L14.542688,38.385301 L22.2249543,44.8183369 L14.542688,51.2513728 L15.1605175,51.9908994 L22.9749374,45.4446207 L30.7893574,51.9882296 L31.4047396,51.2489255 L23.7249206,44.8183369 L31.4047396,38.385301 L30.7893574,37.6459969 L30.7891349,37.6459969 Z M16.7272282,57.2777135 L29.2226467,57.2777135 L29.2226467,56.3150386 L16.7272282,56.3150386 L16.7272282,57.2777135 Z M30.8674482,13.6463124 L22.9749374,20.2473213 L15.0835391,13.6463124 L14.4683794,14.3842816 L22.2262891,20.8740501 L14.5451353,27.2979643 L15.1605175,28.0372684 L22.9749374,21.5001114 L30.7893574,28.0372684 L31.4047396,27.2979643 L23.7249206,20.8738276 L31.4828304,14.3840591 L30.8674482,13.6463124 Z M16.7272282,33.3203003 L29.2226467,33.3203003 L29.2226467,32.3576254 L16.7272282,32.3576254 L16.7272282,33.3203003 Z M36.7996795,24.7719159 L37.761242,24.7719159 L37.761242,16.8204477 L36.7996795,16.8204477 L36.7996795,24.7719159 Z M36.7996795,48.7266593 L37.761242,48.7266593 L37.761242,40.9075673 L36.7996795,40.9075673 L36.7996795,48.7266593 Z" id="Shape" fill="#FFFFFF"></path>
                <path d="M18.2018317,51.1488091 C18.3709172,51.354159 18.3442195,51.657178 18.1402045,51.8278209 C17.9357041,51.9931076 17.6363757,51.9635475 17.468156,51.7614527 C17.2999363,51.559358 17.3251753,51.2596344 17.5248223,51.0885168 C17.6224643,51.0064671 17.7487625,50.9666815 17.875802,50.9779535 C18.0028416,50.9892255 18.1201616,51.0506269 18.2018317,51.1485866 M19.7260485,49.8768856 C19.8363337,50.0088304 19.8678496,50.1895888 19.8087247,50.3510708 C19.7495998,50.5125529 19.6088164,50.6302258 19.4394064,50.6597631 C19.2699963,50.6893005 19.097697,50.6262149 18.9874119,50.4942702 C18.8179936,50.2893746 18.8456117,49.9861721 19.0492616,49.8152584 C19.2532511,49.6456507 19.5560484,49.6732229 19.7260485,49.8768856 M21.2504878,48.6036273 C21.4195733,48.8076423 21.3928756,49.1104389 21.1890831,49.2813042 C21.0913888,49.3632708 20.9650873,49.4029819 20.8380648,49.3916696 C20.7110423,49.3803574 20.5937459,49.3189523 20.5120736,49.2210119 C20.3424764,49.0162138 20.3700036,48.712918 20.5737008,48.5420001 C20.6715508,48.4602584 20.7979073,48.420816 20.9248822,48.4323781 C21.0518571,48.4439403 21.1690114,48.5055564 21.2504878,48.6036273 M22.7749271,47.3314814 C22.9420494,47.5356866 22.9134549,47.8364073 22.7108411,48.0054556 C22.5082274,48.1745038 22.2072494,48.1487577 22.0362904,47.9477536 C21.8666886,47.7433595 21.8942382,47.4403136 22.0979176,47.2698542 C22.1957801,47.1880427 22.3221867,47.1485579 22.4492161,47.1601212 C22.5762455,47.1716845 22.6934451,47.2333445 22.7749271,47.3314814" id="Shape" fill="#000000"></path>
            </g>
        </g>
    </g>
</svg>