<?xml version="1.0" encoding="UTF-8"?>
<svg width="58px" height="76px" viewBox="0 0 58 76" version="1.1" xmlns="http://www.w3.org/2000/svg" xmlns:xlink="http://www.w3.org/1999/xlink">
    <!-- Generator: Sketch 49.2 (51160) - http://www.bohemiancoding.com/sketch -->
    <title>digital-markeing</title>
    <desc>Created with Sketch.</desc>
    <defs></defs>
    <g id="Page-1" stroke="none" stroke-width="1" fill="none" fill-rule="evenodd">
        <g id="Artboard-2-Copy-16" transform="translate(-201.000000, -49.000000)" fill-rule="nonzero">
            <g id="digital-markeing" transform="translate(201.000000, 49.000000)">
                <path d="M6.24527926,13.3133318 L6.14264589,13.1705153 L14.7418382,6.40285519 L14.8447276,6.54515982 L6.24527926,13.3133318 M3.23179957,27.3902286 L3.07132294,27.3528609 L5.98191332,13.0573882 L6.14264589,13.094756 L3.23179957,27.3902286 M13.5432545,28.414003 L3.32726652,27.0516153 L3.34902173,26.8783415 L13.5650097,28.2407292 L13.5432545,28.414003 M13.6622682,37.6279718 L13.5650097,37.622341 L13.7236947,28.414003 L13.8209532,28.4191218 L13.6622682,37.6279718 M5.42805142,40.6992947 L5.37481515,40.5273006 L13.5117734,37.8839154 L13.5650097,38.0553976 L5.42805142,40.6992947" id="Shape" fill="#FFFFFF"></path>
                <path d="M13.9455978,50.9370379 L5.37481515,40.2977193 L5.50560232,40.1874076 L14.0768968,50.8267262 L13.9455978,50.9370379 M14.4649073,50.6810943 L14.3328404,50.5810204 L19.0637015,44.2825048 L19.1957684,44.3823228 L14.4649073,50.6810943 M31.1790468,47.6097714 L19.1957684,44.4432374 L19.2420942,44.2825048 L31.2251166,47.4485269 L31.1790468,47.6097714 M27.7975202,56.0559095 L27.6419065,55.9919236 L30.8135593,47.6097714 L30.969173,47.6737573 L27.7975202,56.0559095" id="Shape" fill="#F2F2F2"></path>
                <path d="M21.5954954,60.1510067 L21.4992606,60.0120293 L27.8016153,55.7999659 L27.8978501,55.9389432 L21.5954954,60.1510067 M34.5464964,60.6628939 L21.4992606,60.2938232 L21.5056592,60.1510067 L34.5523831,60.5195655 L34.5464964,60.6628939" id="Shape" fill="#FFFFFF"></path>
                <path d="M34.1666761,60.6628939 L34.040496,60.5459277 L42.359942,51.7048686 L42.4866341,51.8220908 L34.1666761,60.6628939 M42.6831987,51.7048686 L30.969173,47.516352 L31.0285519,47.3538278 L42.7425776,51.5423444 L42.6831987,51.7048686 M27.9047606,32.2531566 L27.8978501,32.0238312 L42.7359231,31.2293823 L42.7425776,31.4587078 L27.9047606,32.2531566 M27.5991639,32.2531566 L13.5650097,28.5867649 L13.6077522,28.414003 L27.6419065,32.0803947 L27.5991639,32.2531566 M13.7157604,28.414003 L13.5650097,28.3351723 L18.0209874,19.7119213 L18.1719941,19.7910078 L13.7157604,28.414003" id="Shape" fill="#FFFFFF"></path>
                <path d="M27.503697,31.9972131 L17.9160505,19.8168582 L18.0547719,19.7119213 L27.6419065,31.8922762 L27.503697,31.9972131 Z M27.8133887,31.7412695 L27.6419065,31.7085087 L31.5655216,12.2895575 L31.7370038,12.3228302 L27.8133887,31.7412695 Z M40.309578,22.2713571 L31.7370038,12.4021727 L31.8659993,12.2895575 L40.4390854,22.1589978 L40.309578,22.2713571 Z M40.2292117,22.5273006 L40.1831418,22.3675919 L52.1664202,19.2000341 L52.21249,19.3597429 L40.2292117,22.5273006 Z M52.0788875,19.2000341 L45.0460698,10.6105676 L45.1796724,10.4979525 L52.21249,19.0869071 L52.0788875,19.2000341 Z M52.21249,30.7174952 L52.4684336,30.7174952 L52.4684336,19.2000341 L52.21249,19.2000341 L52.21249,30.7174952 Z M42.7553748,31.7412695 L42.7425776,31.5416335 L52.4556364,30.7174952 L52.4684336,30.9171312 L42.7553748,31.7412695 Z M19.3375611,44.5384484 L19.1957684,44.4411899 L27.7560573,32.2531566 L27.8978501,32.3504152 L19.3375611,44.5384484 Z" id="Shape" fill="#FFFFFF"></path>
                <path d="M18.0793425,19.9678649 L17.9160505,19.9079741 L20.8240814,12.0336139 L20.9873735,12.0935047 L18.0793425,19.9678649 M20.8901149,12.0336139 L20.7314299,12.0003413 L22.6202935,1.79587078 L22.7789785,1.82914344 L20.8901149,12.0336139" id="Shape" fill="#FFFFFF"></path>
                <path d="M14.93354,6.40285519 L14.8447276,6.25696735 L22.9461097,1.5399272 L23.0349221,1.68581504 L14.93354,6.40285519 M32.2373735,2.56370151 L23.2908657,1.76643727 L23.302895,1.5399272 L32.2488909,2.33667956 L32.2373735,2.56370151 M40.1365601,4.61125014 L31.9929473,2.22508816 L32.0395291,2.05181436 L40.1831418,4.43848823 L40.1365601,4.61125014 M44.9163064,10.753896 L40.1831418,4.71874645 L40.3123934,4.61125014 L45.0460698,10.6463997 L44.9163064,10.753896 M18.085997,19.9678649 L6.14264589,13.2083949 L6.22864293,13.0573882 L18.1719941,19.8168582 L18.085997,19.9678649 M31.9824536,13.0573882 L21.4992606,12.246303 L21.5097543,12.0336139 L31.9929473,12.8441872 L31.9824536,13.0573882 M31.8557616,12.5455011 L31.7370038,12.4218803 L40.3205836,4.61125014 L40.4390854,4.73461495 L31.8557616,12.5455011 M21.6187863,60.1510067 L14.3328404,51.0414629 L14.4692583,50.9370379 L21.7552042,60.0465817 L21.6187863,60.1510067 M5.44136048,39.931464 L3.07132294,26.9054715 L3.26072119,26.8783415 L5.63075873,39.904078 L5.44136048,39.931464 M40.5849733,39.1636333 L40.4390854,39.124218 L42.0848026,31.2293823 L42.2306905,31.2690536 L40.5849733,39.1636333 M31.0830679,47.8657149 L30.969173,47.7349278 L40.5808782,39.4195768 L40.695029,39.550364 L31.0830679,47.8657149 M42.8876976,51.7048686 L42.7425776,51.6129849 L50.0198214,40.1874076 L50.1649414,40.2792913 L42.8876976,51.7048686" id="Shape" fill="#FFFFFF"></path>
                <path d="M50.0873905,40.4433512 L49.9089978,40.4039358 L52.289785,30.7174952 L52.4684336,30.7569105 L50.0873905,40.4433512 M49.8918496,40.6992947 L40.695029,39.6133261 L40.7121772,39.4195768 L49.9089978,40.5052895 L49.8918496,40.6992947 M27.7463315,32.2531566 L27.6419065,32.1167387 L40.078205,22.5273006 L40.1831418,22.6637186 L27.7463315,32.2531566 M52.112928,30.9734387 L40.1831418,22.6685815 L40.282448,22.5273006 L52.21249,30.8321579 L52.112928,30.9734387 M35.1343988,67.8293141 L21.4291321,67.8293141 C20.7636788,67.8293141 20.2195427,67.2731487 20.2195427,66.5933625 L20.2195427,65.9939427 C20.2195427,65.3144125 20.7636788,64.7579911 21.4291321,64.7579911 L35.1343988,64.7579911 C35.7998521,64.7579911 36.3439882,65.3144125 36.3439882,65.9939427 L36.3439882,66.5933625 C36.3439882,67.2731487 35.7998521,67.8293141 35.1343988,67.8293141 M33.6082073,71.5276988 L22.69938,71.5276988 C22.0395575,71.5276988 21.4992606,70.9712774 21.4992606,70.2914913 L21.4992606,69.6923274 C21.4992606,69.0125412 22.0395575,68.4563758 22.69938,68.4563758 L33.6082073,68.4563758 C34.2685417,68.4563758 34.8083267,69.0125412 34.8083267,69.6923274 L34.8083267,70.2914913 C34.8083267,70.9712774 34.2682857,71.5276988 33.6082073,71.5276988 M29.7503697,75.0511887 L26.301274,75.0511887 C25.6307019,75.0511887 25.0824707,74.4950233 25.0824707,73.8152372 L25.0824707,73.2160733 C25.0824707,72.5362871 25.6309578,71.9798658 26.301274,71.9798658 L29.7503697,71.9798658 C30.42043,71.9798658 30.969173,72.5362871 30.969173,73.2160733 L30.969173,73.8152372 C30.969173,74.4950233 30.42043,75.0511887 29.7503697,75.0511887" id="Shape" fill="#FFFFFF"></path>
                <path d="M17.6601069,60.0230349 C17.6601069,57.9734387 19.3216926,56.311853 21.3712888,56.311853 C23.420885,56.311853 25.0824707,57.9734387 25.0824707,60.0230349 C25.0824707,62.072887 23.420885,63.7342168 21.3712888,63.7342168 C19.3216926,63.7342168 17.6601069,62.072887 17.6601069,60.0230349" id="Shape" fill="#C1272D"></path>
                <path d="M22.0764134,62.0112046 C22.1693209,61.8159197 22.2478956,61.6106529 22.3131612,61.3982198 C22.4570015,61.4325162 22.5967467,61.474491 22.7334205,61.5236321 C22.5466397,61.7255942 22.3238272,61.8909459 22.0764134,62.0112046 Z M20.154533,58.0351211 C20.0607952,58.2333541 19.9815853,58.4381362 19.9175293,58.6478501 C19.7752604,58.6138447 19.6349633,58.5720631 19.4972699,58.5226937 C19.6841467,58.3207283 19.9070435,58.1553785 20.154533,58.0351211 Z M22.5174042,59.9129792 C22.5088878,59.5350222 22.4547475,59.1594776 22.3561597,58.7945057 C22.5122853,58.7471562 22.6684109,58.6898248 22.8235127,58.6230235 C23.1226191,58.9887952 23.2962408,59.4410191 23.3187635,59.9129792 L22.5176601,59.9129792 L22.5174042,59.9129792 Z M22.5174042,60.1330907 L23.3187635,60.1330907 C23.2976683,60.5708681 23.1460435,60.9923154 22.8834035,61.3431919 C22.7165137,61.2801554 22.5457989,61.2277526 22.3722842,61.1862985 C22.4605847,60.8446138 22.5094699,60.4914117 22.5174042,60.1333466 L22.5174042,60.1330907 Z M21.2264248,61.2661529 C21.5161529,61.2635934 21.8066488,61.2917472 22.0956091,61.3495905 C22.0112976,61.6227242 21.8996531,61.8866579 21.7623706,62.1373848 C21.5882136,62.1900372 21.4081821,62.2208162 21.2264248,62.2290126 L21.2264248,61.2661529 Z M20.1506939,61.4025708 C20.4301898,61.3309715 20.7161278,61.2874163 21.0042657,61.2725515 L21.0042657,62.2290126 C20.8225112,62.2207898 20.642483,62.1900113 20.4683199,62.1373848 C20.3403986,61.9025767 20.2340859,61.6566268 20.1506939,61.4025708 Z M19.9364691,61.4629735 C19.9978956,61.6498123 20.0703276,61.8333239 20.1553009,62.0119725 C19.9373596,61.9065277 19.7380899,61.7662176 19.5653509,61.596576 C19.6868731,61.5461941 19.8107185,61.5016097 19.9364691,61.4629735 Z M19.7132863,60.1333466 C19.7221689,60.5112731 19.7763029,60.886774 19.8745308,61.25182 C19.7184052,61.2994255 19.5622796,61.356501 19.4071778,61.4235582 C19.1079694,61.0577674 18.9344167,60.6053997 18.9121829,60.1333466 L19.7132863,60.1333466 Z M19.7132863,59.9132351 L18.9121829,59.9132351 C18.9332463,59.4754152 19.084774,59.0539006 19.347287,58.7028779 C19.5136503,58.766352 19.6833409,58.8180526 19.8584063,58.8597714 C19.7697842,59.2041099 19.7210904,59.5575048 19.7132863,59.9129792 L19.7132863,59.9132351 Z M21.0042657,58.7801729 C20.7145376,58.7824764 20.4240416,58.7545785 20.1353373,58.6967353 C20.219562,58.4236096 20.3311208,58.1596756 20.4683199,57.908941 C20.642483,57.8563145 20.8225112,57.825536 21.0042657,57.8173132 L21.0042657,58.7801729 Z M22.0799966,58.6440109 C21.800492,58.7155239 21.514554,58.7589933 21.2264248,58.7737743 L21.2264248,57.8173132 C21.4081821,57.8255096 21.5882136,57.8562886 21.7623706,57.908941 C21.8908543,58.1444091 21.9970709,58.3911387 22.0799966,58.6440109 Z M22.2942214,58.5833523 C22.2329616,58.395992 22.1598707,58.2127092 22.0753896,58.0346093 C22.2933595,58.139897 22.4926403,58.2801285 22.6653396,58.4497497 C22.5438174,58.5001317 22.419972,58.5447161 22.2942214,58.5833523 Z M21.2264248,59.9129792 L21.2264248,58.9941417 C21.5356001,58.9789597 21.842432,58.9323947 22.1421909,58.8551644 C22.2349551,59.200442 22.2861649,59.55556 22.2947332,59.9129792 L21.2264248,59.9129792 Z M20.9725287,59.0023319 L21.0042657,59.002076 L21.0042657,59.9132351 L19.9359572,59.9132351 C19.9441474,59.5718064 19.9907292,59.2352406 20.0751905,58.9094244 C20.3704276,58.9704281 20.6710561,59.0015542 20.9725287,59.0023319 Z M20.0884996,61.1911614 C19.9958857,60.8458528 19.9446785,60.4907529 19.9359572,60.1333466 L21.0042657,60.1333466 L21.0042657,61.0521841 C20.694574,61.0675407 20.3874417,61.1141224 20.0884996,61.1911614 Z M21.2264248,61.0462973 L21.2264248,60.1333466 L22.2949892,60.1333466 C22.2870491,60.4721848 22.2402464,60.8089921 22.1554999,61.1371573 C21.8498008,61.0747087 21.5384305,61.0442579 21.2264248,61.0462973 Z M21.1153452,57.5915709 C19.7747128,57.5915709 18.6838812,58.6824025 18.6838812,60.0232909 C18.6838812,61.3639233 19.7747128,62.4544989 21.1153452,62.4544989 C22.4559777,62.4544989 23.5468092,61.3641793 23.5468092,60.0232909 C23.5468092,58.6824025 22.4559777,57.5915709 21.1153452,57.5915709 Z" id="Shape" fill="#FFFFFF"></path>
                <path d="M28.6976738,15.5845751 C26.9488113,13.8354567 26.9488113,10.9996019 28.6976738,9.25048345 C30.4473041,7.50110909 33.2831589,7.50110909 35.0322773,9.25048345 C36.7811398,10.9996019 36.7811398,13.8354567 35.0322773,15.5845751 C33.2831589,17.3339495 30.4473041,17.3339495 28.6976738,15.5845751" id="Shape" fill="#009245"></path>
                <path d="M34.5523831,10.753896 L31.7377716,12.2895575 L28.9216244,10.753896 L34.5523831,10.753896 M31.7370038,12.8014447 L28.9216244,14.3371061 L28.9216244,11.2657832 L31.7370038,12.8014447 M34.5523831,14.3371061 L28.9216244,14.3371061 L31.7377716,12.8014447 L34.5523831,14.3371061" id="Shape" fill="#FFFFFF"></path>
                <polyline id="Shape" fill="#FFFFFF" points="34.5523831 11.2657832 34.5523831 14.3371061 31.7370038 12.8014447 34.5523831 11.2657832"></polyline>
                <path d="M40.695029,44.2825048 C38.1506939,44.2825048 36.0880446,42.2198555 36.0880446,39.6755204 C36.0880446,37.1311853 38.1506939,35.068536 40.695029,35.068536 C43.2393641,35.068536 45.3020134,37.1311853 45.3020134,39.6755204 C45.3020134,42.2198555 43.2393641,44.2825048 40.695029,44.2825048" id="Shape" fill="#00A99D"></path>
                <path d="M38.2261972,38.6640314 C38.2261972,37.8578091 38.8783415,37.2015698 39.6799568,37.2015698 C40.4815721,37.2015698 41.1337163,37.8575532 41.1337163,38.6640314 C41.1337163,39.4707656 40.4815721,40.1272608 39.6799568,40.1272608 C38.8783415,40.1272608 38.2261972,39.4707656 38.2261972,38.6640314 Z M43.3926743,41.8108577 L41.3822375,39.818081 C41.6134192,39.4776474 41.7368425,39.0755406 41.7364634,38.6640314 C41.7364634,37.5284097 40.8140428,36.6041975 39.6799568,36.6041975 C38.5461267,36.6041975 37.6237061,37.5281538 37.6237061,38.6640314 C37.6237061,39.8001649 38.5461267,40.7243772 39.6799568,40.7243772 C40.083432,40.7245505 40.4778735,40.6049175 40.8132749,40.380645 L42.8244796,42.3741895 C42.9818577,42.5299401 43.2352962,42.5299401 43.3926743,42.3741895 C43.4679682,42.2998023 43.5103448,42.198366 43.5103448,42.0925236 C43.5103448,41.9866812 43.4679682,41.8852449 43.3926743,41.8108577 Z" id="Shape" fill="#FFFFFF"></path>
                <path d="M16.2048117,34.6948584 C17.8039472,36.2440849 17.8039472,38.7559151 16.2048117,40.3051416 C14.6054203,41.8543681 12.0124559,41.8543681 10.4135764,40.3051416 C8.81392902,38.7559151 8.81392902,36.2440849 10.4135764,34.6948584 C12.0124559,33.1456319 14.6054203,33.1456319 16.2048117,34.6948584" id="Shape" fill="#ED1E79"></path>
                <path d="M11.7211921,40.2424354 L15.4088272,40.2424354 L15.4088272,35.2694517 L11.7211921,35.2694517 L11.7211921,40.2424354 Z M11.517461,40.4433512 L15.6125583,40.4433512 L15.6125583,35.068536 L11.517461,35.068536 L11.517461,40.4433512 Z" id="Shape" fill="#FFFFFF"></path>
                <path d="M12.0293482,36.0923103 L14.8447276,36.0923103 L14.8447276,35.5804232 L12.0293482,35.5804232 L12.0293482,36.0923103 Z M12.5412354,37.0208736 L14.3328404,37.0208736 L14.3328404,36.8601411 L12.5412354,36.8601411 L12.5412354,37.0208736 Z M12.0293482,38.0446479 L14.8447276,38.0446479 L14.8447276,37.8839154 L12.0293482,37.8839154 L12.0293482,38.0446479 Z M12.0293482,37.7881925 L14.8447276,37.7881925 L14.8447276,37.6279718 L12.0293482,37.6279718 L12.0293482,37.7881925 Z M12.0293482,39.836253 L14.8447276,39.836253 L14.8447276,39.6755204 L12.0293482,39.6755204 L12.0293482,39.836253 Z M12.0293482,38.5560232 L13.8209532,38.5560232 L13.8209532,38.3958025 L12.0293482,38.3958025 L12.0293482,38.5560232 Z M12.0293482,39.5803094 L13.8209532,39.5803094 L13.8209532,39.4195768 L12.0293482,39.4195768 L12.0293482,39.5803094 Z M12.0293482,38.8124787 L13.8209532,38.8124787 L13.8209532,38.6517461 L12.0293482,38.6517461 L12.0293482,38.8124787 Z M14.3328404,39.4195768 L15.3566147,39.4195768 L15.3566147,38.3958025 L14.3328404,38.3958025 L14.3328404,39.4195768 Z" id="Shape" fill="#FFFFFF"></path>
                <path d="M27.6741554,44.3147537 C29.4230179,42.5653794 32.2593846,42.5653794 34.0082471,44.3147537 C35.7576214,46.0636162 35.7576214,48.8999829 34.0082471,50.6488454 C32.2593846,52.3982198 29.4230179,52.3982198 27.6741554,50.6488454 C25.924781,48.8999829 25.924781,46.0636162 27.6741554,44.3147537" id="Shape" fill="#662D91"></path>
                <path d="M27.8978501,49.65732 L28.4097372,49.65732 L28.4097372,47.6097714 L27.8978501,47.6097714 L27.8978501,49.65732 Z M28.9216244,49.9132636 L29.4335115,49.9132636 L29.4335115,46.585997 L28.9216244,46.585997 L28.9216244,49.9132636 Z M29.6894551,49.9132636 L30.2013423,49.9132636 L30.2013423,45.3062791 L29.6894551,45.3062791 L29.6894551,49.9132636 Z M30.7132294,49.9132636 L31.2251166,49.9132636 L31.2251166,47.0978842 L30.7132294,47.0978842 L30.7132294,49.9132636 Z M31.7370038,49.9132636 L32.2488909,49.9132636 L32.2488909,45.8181663 L31.7370038,45.8181663 L31.7370038,49.9132636 Z M32.5048345,49.9132636 L33.0167216,49.9132636 L33.0167216,46.8419406 L32.5048345,46.8419406 L32.5048345,49.9132636 Z M33.5286088,49.9132636 L34.040496,49.9132636 L34.040496,45.3062791 L33.5286088,45.3062791 L33.5286088,49.9132636 Z" id="Shape" fill="#FFFFFF"></path>
                <path d="M43.8026959,26.1468547 C41.8037766,28.1457741 38.5625071,28.1457741 36.5635878,26.1468547 C34.5646684,24.1479354 34.5646684,20.9066659 36.5635878,18.9077466 C38.5625071,16.9088272 41.8037766,16.9088272 43.8026959,18.9077466 C45.8016153,20.9066659 45.8016153,24.1479354 43.8026959,26.1468547" id="Shape" fill="#1B1464"></path>
                <path d="M38.717097,24.1108236 L38.717097,20.6878341 L42.2358094,22.3993289 L38.7165851,24.1108236 L38.717097,24.1108236 Z M40.0551701,19.2000341 C38.2850643,19.2000341 36.8558753,20.6343419 36.8558753,22.3993289 C36.8558753,24.1694346 38.2850643,25.5986236 40.0551701,25.5986236 C41.820157,25.5986236 43.2544648,24.1694346 43.2544648,22.3993289 C43.2544648,20.6343419 41.820157,19.2000341 40.0551701,19.2000341 Z" id="Shape" fill="#FFFFFF"></path>
                <path d="M28.0258219,24.0629621 C32.1956546,24.0629621 35.5761574,27.443209 35.5761574,31.6132977 C35.5761574,35.7828745 32.1956546,39.1636333 28.0258219,39.1636333 C23.8559891,39.1636333 20.4754863,35.7828745 20.4754863,31.6132977 C20.4754863,27.442953 23.8559891,24.0629621 28.0258219,24.0629621" id="Shape" fill="#C1272D"></path>
                <polyline id="Shape" fill="#FFFFFF" points="30.7132294 28.414003 30.7132294 29.8401206 26.7734899 29.8401206 26.7734899 32.9900182 26.6421909 32.9900182 24.4909851 34.8125924 24.4909851 32.9902741 23.2908657 32.9902741 23.2908657 28.414003 30.7132294 28.414003"></polyline>
                <polyline id="Shape" fill="#FFFFFF" points="33.2726652 30.7174952 33.2726652 34.4918951 32.2829314 34.4918951 32.2829314 36.0923103 30.51129 34.4918951 27.3859629 34.4918951 27.3859629 30.7174952 33.2726652 30.7174952"></polyline>
                <path d="M23.0349221,19.9678649 C23.0349221,22.3709191 21.0866796,24.3189057 18.6838812,24.3189057 C16.280571,24.3189057 14.3328404,22.3709191 14.3328404,19.9678649 C14.3328404,17.5648106 16.280571,15.616824 18.6838812,15.616824 C21.0866796,15.616824 23.0349221,17.5648106 23.0349221,19.9678649" id="Shape" fill="#F15A24"></path>
                <path d="M20.6014105,19.4687749 L18.9597884,19.4687749 C18.8921791,19.4684853 18.8359808,19.4166184 18.830281,19.3492492 L18.6879763,17.7042999 C18.6859919,17.6813312 18.6780524,17.659277 18.6649414,17.640314 L18.3634399,17.2082812 C18.3381117,17.1716754 18.2957292,17.1506789 18.2512614,17.1527072 C18.2067936,17.1547356 18.1664986,17.1795034 18.1446081,17.218263 L16.9173587,19.3681891 C16.894405,19.4087953 16.8513883,19.433921 16.8047435,19.4339666 L16.4556364,19.4339666 L16.4556364,19.4224491 C16.4556364,19.2752815 16.3371346,19.1557559 16.1912467,19.1557559 L15.2306905,19.1557559 C15.1960268,19.1558912 15.1628405,19.1698089 15.1384497,19.1944397 C15.1140589,19.2190706 15.100467,19.2523916 15.1006711,19.2870549 L15.1006711,22.3960016 C15.100467,22.4306649 15.1140589,22.463986 15.1384497,22.4886168 C15.1628405,22.5132477 15.1960268,22.5271653 15.2306905,22.5273006 L16.1912467,22.5273006 C16.3371346,22.5273006 16.4556364,22.4080309 16.4556364,22.2606074 L16.4556364,22.2496019 L19.8284609,22.2496019 C19.8856326,22.2493127 19.9359069,22.2117108 19.9523376,22.1569503 L20.7252872,19.6384655 C20.7377237,19.5989218 20.7306381,19.5558218 20.7061965,19.5223408 C20.6817549,19.4888598 20.6428632,19.4689787 20.6014105,19.4687749" id="Shape" fill="#FFFFFF"></path>
                <path d="M3.45523831,29.9496644 C1.54666705,29.9496644 0,28.5174042 0,26.7503697 C0,24.9833352 1.54692299,23.551075 3.45523831,23.551075 C5.36355363,23.551075 6.91047662,24.9833352 6.91047662,26.7503697 C6.91047662,28.5174042 5.36355363,29.9496644 3.45523831,29.9496644" id="Shape" fill="#1B1464"></path>
                <path d="M3.19929473,27.0518712 C2.72375156,27.0518712 2.33881242,26.6748663 2.33881242,26.209305 C2.33881242,25.7439995 2.72375156,25.3667387 3.19903879,25.3667387 C3.67407007,25.3667387 4.05900921,25.7439995 4.05900921,26.209305 C4.05900921,26.6751223 3.67407007,27.0518712 3.19903879,27.0518712 L3.19929473,27.0518712 Z M3.19929473,24.8307929 C2.4214822,24.8307929 1.79160505,25.4476169 1.79160505,26.209305 C1.79160505,26.9709931 3.19929473,29.1818337 3.19929473,29.1818337 C3.19929473,29.1818337 4.60698442,26.9709931 4.60698442,26.209305 C4.60698442,25.4476169 3.97633944,24.8307929 3.19929473,24.8307929 Z" id="Shape" fill="#FFFFFF"></path>
                <path d="M15.2286429,9.73012172 C13.4618644,9.73012172 12.0293482,8.29786145 12.0293482,6.53082698 C12.0293482,4.76456035 13.4616085,3.33153225 15.2286429,3.33153225 C16.9956774,3.33153225 18.4279377,4.7643044 18.4279377,6.53082698 C18.4279377,8.29811739 16.9956774,9.73012172 15.2286429,9.73012172" id="Shape" fill="#9E005D"></path>
                <path d="M15.9094528,4.65399272 C15.8646524,4.65470896 15.8276451,4.61918651 15.8265271,4.57439427 C15.8276451,4.52946067 15.864767,4.49382366 15.9097088,4.49453987 C15.9560346,4.49453987 15.9931464,4.53037197 15.9931464,4.57439427 C15.9926771,4.59602739 15.9836126,4.61658316 15.9679562,4.63151926 C15.9522997,4.64645535 15.93134,4.65454217 15.9097088,4.65399272 L15.9094528,4.65399272 Z M13.6965647,7.94798658 L15.9931464,7.94798658 L15.9931464,4.85772381 L13.6965647,4.85772381 L13.6965647,7.94798658 Z M14.8449835,8.34828233 C14.7584746,8.34828233 14.6880901,8.28148106 14.6880901,8.19906723 C14.6880901,8.11614151 14.7584746,8.04959618 14.8449835,8.04959618 C14.9309805,8.04959618 15.001621,8.11614151 15.001621,8.19906723 C15.001621,8.28148106 14.9309805,8.34828233 14.8449835,8.34828233 Z M14.2273917,4.6250711 L15.4623194,4.6250711 L15.4623194,4.52371744 L14.2273917,4.52371744 L14.2273917,4.6250711 Z M13.5650097,8.45040382 L16.1244455,8.45040382 L16.1244455,4.35530656 L13.5650097,4.35530656 L13.5650097,8.45040382 Z" id="Shape" fill="#FFFFFF"></path>
                <path d="M34.1684678,63.9901604 C32.4014333,63.9901604 30.969173,62.5576442 30.969173,60.7908657 C30.969173,59.0240871 32.4014333,57.5915709 34.1684678,57.5915709 C35.9355022,57.5915709 37.3677625,59.0240871 37.3677625,60.7908657 C37.3677625,62.5576442 35.9355022,63.9901604 34.1684678,63.9901604" id="Shape" fill="#2E3192"></path>
                <path d="M35.0727164,61.7614037 C34.8806239,61.8893172 34.6549395,61.95745 34.4241554,61.9572005 C34.1935343,61.9574255 33.9680206,61.8892904 33.7761062,61.7614037 C33.4505283,61.5458498 33.2545131,61.1815883 33.2539813,60.7911216 C33.2539813,60.3872426 33.4607838,60.0307132 33.7748265,59.8216073 C33.9669067,59.692913 34.1929478,59.6243077 34.4241554,59.6245308 C34.6647424,59.6245308 34.8881811,59.6972187 35.0742521,59.8216073 C35.3992639,60.0371403 35.5947157,60.401138 35.5948413,60.7911216 C35.5944937,61.1816348 35.3984346,61.5459778 35.0727164,61.7614037 Z M35.2674895,59.6706006 L35.2674895,58.6153452 L33.5815891,58.6153452 L33.5815891,59.6706006 C33.2265696,59.9336567 33.0170567,60.349265 33.0167216,60.7911216 C33.0167216,61.2484928 33.2388807,61.6554431 33.5815891,61.9111307 L33.5815891,62.9663861 L35.2674895,62.9663861 L35.2674895,61.9111307 C35.6222761,61.6480204 35.8316636,61.2325673 35.832101,60.7908657 C35.8317446,60.3490738 35.6223484,59.9335087 35.2674895,59.6703447 L35.2674895,59.6706006 Z" id="Shape" fill="#FFFFFF"></path>
                <path d="M34.1684678,60.4069503 C34.0977909,60.4069503 34.040496,60.4642452 34.040496,60.5349221 C34.040496,60.6055989 34.0977909,60.6628939 34.1684678,60.6628939 C34.2391446,60.6628939 34.2964395,60.6055989 34.2964395,60.5349221 C34.2964395,60.4642452 34.2391446,60.4069503 34.1684678,60.4069503 M34.1684678,59.8950631 C34.1227478,59.8951088 34.0805253,59.9195424 34.0577049,59.9591599 C34.0348845,59.9987773 34.0349333,60.0475599 34.0578329,60.0871316 C34.0807324,60.1267034 34.1230038,60.1510524 34.1687237,60.1510067 C34.2394006,60.150936 34.2966382,60.0935838 34.2965675,60.022907 C34.2964968,59.9522301 34.2391446,59.8949925 34.1684678,59.8950631 M33.6565806,60.4069503 C33.5859037,60.4069503 33.5286088,60.4642452 33.5286088,60.5349221 C33.5286088,60.6055989 33.5859037,60.6628939 33.6565806,60.6628939 C33.7272575,60.6628939 33.7845524,60.6055989 33.7845524,60.5349221 C33.7845524,60.4642452 33.7272575,60.4069503 33.6565806,60.4069503 M34.1684678,61.174781 C34.0977909,61.174781 34.040496,61.2320759 34.040496,61.3027528 C34.040496,61.3734297 34.0977909,61.4307246 34.1684678,61.4307246 C34.2391446,61.4307246 34.2964395,61.3734297 34.2964395,61.3027528 C34.2964395,61.2320759 34.2391446,61.174781 34.1684678,61.174781 M34.9362985,60.4069503 C34.8656216,60.4069503 34.8083267,60.4642452 34.8083267,60.5349221 C34.8083267,60.6055989 34.8656216,60.6628939 34.9362985,60.6628939 C35.0069754,60.6628939 35.0642703,60.6055989 35.0642703,60.5349221 C35.0642703,60.4642452 35.0069754,60.4069503 34.9362985,60.4069503" id="Shape" fill="#FFFFFF"></path>
                <path d="M13.948925,54.0083608 C12.0406097,54.0083608 10.4936867,52.4614378 10.4936867,50.5531225 C10.4936867,48.6448072 12.0406097,47.0978842 13.948925,47.0978842 C15.8572404,47.0978842 17.4041633,48.6448072 17.4041633,50.5531225 C17.4041633,52.4614378 15.8572404,54.0083608 13.948925,54.0083608" id="Shape" fill="#9E005D"></path>
                <path d="M14.8447276,50.0412354 C14.8447733,49.8126358 14.7228591,49.6013766 14.5249089,49.4870372 C14.3269587,49.3726979 14.0830459,49.3726491 13.88505,49.4869093 C13.6870541,49.6011695 13.5650554,49.8123798 13.5650097,50.0409794 C13.5648683,50.3943637 13.8512283,50.6809529 14.2046127,50.6810943 C14.557997,50.6812356 14.8445862,50.3948756 14.8447276,50.0414913 M13.3090661,50.2971789 C13.3090661,49.9437946 13.0225915,49.65732 12.6692071,49.65732 C12.3158228,49.65732 12.0293482,49.9437946 12.0293482,50.2971789 C12.0293482,50.6505633 12.3158228,50.9370379 12.6692071,50.9370379 C13.0225915,50.9370379 13.3090661,50.6505633 13.3090661,50.2971789" id="Shape" fill="#FFFFFF"></path>
                <path d="M13.3090661,50.9856672 C13.1514048,51.0987942 13.0474918,51.294847 13.0474918,51.5159823 L13.0474918,51.9608122 L12.0293482,51.9608122 L12.0293482,51.4985781 C12.0293482,51.1888864 12.2599534,50.9370379 12.543027,50.9370379 L13.0999602,50.9370379 C13.1741838,50.9370379 13.245848,50.954442 13.3090661,50.9856672 M16.1244455,50.2971789 C16.1244455,49.9437946 15.8379708,49.65732 15.4845865,49.65732 C15.1312022,49.65732 14.8447276,49.9437946 14.8447276,50.2971789 C14.8447276,50.6505633 15.1312022,50.9370379 15.4845865,50.9370379 C15.8379708,50.9370379 16.1244455,50.6505633 16.1244455,50.2971789" id="Shape" fill="#FFFFFF"></path>
                <path d="M16.1244455,51.4985781 L16.1244455,51.9608122 L15.1063019,51.9608122 L15.1063019,51.5159823 C15.1063019,51.294847 15.0023888,51.0987942 14.8447276,50.9854112 C14.909791,50.9537024 14.9811988,50.9371631 15.0535775,50.9370379 L15.6105107,50.9370379 C15.8938403,50.9370379 16.1244455,51.1888864 16.1244455,51.4985781" id="Shape" fill="#FFFFFF"></path>
                <path d="M15.1006711,51.4407348 L15.1006711,52.2167558 L13.0531225,52.2167558 L13.0531225,51.4407348 C13.0531225,51.2385394 13.1606188,51.0650097 13.314185,50.9856672 C13.3732244,50.9535123 13.4394271,50.9367855 13.5066545,50.9370379 L14.6471391,50.9370379 C14.7162439,50.9370379 14.7820214,50.9539302 14.8398646,50.9856672 C14.9936867,51.0650097 15.1006711,51.2385394 15.1006711,51.4407348" id="Shape" fill="#FFFFFF"></path>
                <path d="M45.1740416,13.825219 C43.4070072,13.825219 41.9747469,12.3929587 41.9747469,10.6259242 C41.9747469,8.85914572 43.4070072,7.42662951 45.1740416,7.42662951 C46.9408202,7.42662951 48.3733364,8.85914572 48.3733364,10.6259242 C48.3733364,12.3929587 46.9408202,13.825219 45.1740416,13.825219" id="Shape" fill="#93278F"></path>
                <path d="M45.4299852,9.20211011 C44.5026901,9.20323885 43.7513296,9.95482837 43.7504834,10.8821238 C43.7516116,11.8092193 44.5028897,12.5604973 45.4299852,12.5616255 C46.3570807,12.5604973 47.1083588,11.8092193 47.109487,10.8821238 C47.1086408,9.95482837 46.3572803,9.20323885 45.4299852,9.20211011 Z M45.4299852,12.8014447 C44.3716585,12.8014447 43.5104084,11.9404505 43.5104084,10.8818678 C43.5104084,9.82328518 44.3716585,8.96229098 45.4299852,8.96229098 C46.4883119,8.96229098 47.3495621,9.82328518 47.3495621,10.8818678 C47.3495621,11.9404505 46.4883119,12.8014447 45.4299852,12.8014447 Z" id="Shape" fill="#FFFFFF"></path>
                <path d="M45.3020134,9.96303037 C44.724069,9.96359448 44.2556536,10.4318954 44.2549482,11.0098396 C44.2555123,11.5879254 44.7239278,12.0564553 45.3020134,12.0571607 C45.8798995,12.0564559 46.3482325,11.5882374 46.3490786,11.0103515 C46.3486553,10.4322073 45.8801575,9.96359495 45.3020134,9.96303037 Z M45.3020134,12.2895575 C44.596377,12.2895575 44.0222955,11.7154761 44.0222955,11.0098396 C44.0222955,10.3042032 44.596377,9.73012172 45.3020134,9.73012172 C46.0076499,9.73012172 46.5817313,10.3042032 46.5817313,11.0098396 C46.5817313,11.7154761 46.0076499,12.2895575 45.3020134,12.2895575 Z" id="Shape" fill="#FFFFFF"></path>
                <path d="M45.1740416,10.1992663 C44.9388295,10.1992663 44.7473837,10.3904561 44.7473837,10.6259242 C44.7553476,10.8558115 44.9440165,11.0380575 45.1740416,11.0380575 C45.4040668,11.0380575 45.5927357,10.8558115 45.6006996,10.6259242 C45.6006996,10.3904561 45.4092538,10.1992663 45.1740416,10.1992663 Z M45.1740416,11.2657832 C44.8208327,11.2653601 44.5346058,10.9791332 44.5341827,10.6259242 C44.5341827,10.2727221 44.8213514,9.98606529 45.1740416,9.98606529 C45.5267319,9.98606529 45.8139006,10.2727221 45.8139006,10.6259242 C45.8139006,10.9786145 45.5267319,11.2657832 45.1740416,11.2657832 Z" id="Shape" fill="#FFFFFF"></path>
                <path d="M47.6055056,9.18368217 L47.6055056,8.99991469 L47.2287567,8.99991469 L47.4726709,8.75600046 L47.2996531,8.5829826 L47.0557388,8.82689683 L47.0557388,8.45040382 L46.8724832,8.45040382 L46.8724832,9.01066432 L46.7352975,9.14759413 L46.7352975,8.77135707 L46.5517859,8.77135707 L46.5517859,9.33110568 L45.0821579,10.8007337 C45.0475046,10.8358781 45.0372475,10.8883486 45.0561155,10.9339554 C45.0749834,10.9795622 45.1193127,11.0094498 45.1686668,11.0098396 C45.2010704,11.0100003 45.2321685,10.9970812 45.2549198,10.9740075 L46.7248038,9.50412354 L47.2848083,9.50412354 L47.2848083,9.32061199 L46.9085713,9.32061199 L47.0455011,9.18368217 L47.6055056,9.18368217" id="Shape" fill="#FFFFFF"></path>
                <path d="M31.9929473,4.61125014 C30.720693,4.61117947 29.6893844,3.57975629 29.6894551,2.30750199 C29.6895258,1.0352477 30.720949,0.00393910586 31.9932033,0.00400978273 C33.2654576,0.0040804596 34.2967662,1.03550364 34.2966955,2.30775793 C34.2966248,3.58001223 33.2652016,4.61132082 31.9929473,4.61125014" id="Shape" fill="#2E3192"></path>
                <path d="M31.9929473,3.55753043 C32.184905,3.55753043 32.3568991,3.67475259 32.4313787,3.8557047 L32.4359857,3.8674781 C32.5937482,3.80961291 32.7389992,3.72213219 32.8639233,3.60974292 L32.8623877,3.60769537 C32.7397907,3.43954044 32.7282732,3.23043454 32.8219486,3.06176772 C32.9141396,2.89309962 33.0993682,2.79714514 33.2903253,2.8191332 L33.3031225,2.82066887 C33.3184791,2.73723126 33.3261574,2.65097827 33.3261574,2.56344557 C33.3261574,2.47616881 33.3184791,2.38991582 33.3031225,2.30622227 L33.2916051,2.30775793 C33.1003107,2.33046195 32.9144172,2.23462801 32.8219486,2.06563531 C32.7334816,1.9065027 32.7382828,1.71190756 32.8344898,1.55733136 L32.8344898,1.53941531 L32.8626436,1.51638039 C32.7381042,1.40469769 32.5934956,1.31767197 32.4364976,1.25992492 L32.4313787,1.27221021 C32.3591603,1.45115649 32.1859147,1.56867627 31.9929473,1.56961665 C31.8002634,1.56844949 31.6272852,1.45124459 31.5547719,1.2727221 L31.5496531,1.25992492 C31.4043554,1.31331629 31.2695599,1.39180266 31.1514048,1.49180981 L31.1524286,1.55835514 C31.2471277,1.71089751 31.2527585,1.9064384 31.1639461,2.06512342 C31.0717277,2.23441985 30.8857256,2.33051248 30.6942896,2.30775793 L30.6827722,2.30622227 C30.6518857,2.47596194 30.651799,2.64987472 30.6825162,2.81964509 L30.6850756,2.81862132 L30.7070868,2.81862132 C30.8847116,2.79686611 31.069247,2.89182118 31.1639461,3.06176772 C31.257521,3.23055096 31.2459767,3.43804852 31.1342566,3.59541008 L31.1227392,3.61025481 C31.2468675,3.72177823 31.391043,3.80871785 31.5476055,3.86645433 L31.5547719,3.85468092 C31.6273174,3.67614901 31.8002437,3.55887832 31.9929473,3.55753043 Z M32.3238824,4.09936298 L32.2698783,4.03435332 C32.2552085,3.99807809 32.2448986,3.96018907 32.2391651,3.9214822 C32.1957822,3.82409284 32.0995577,3.76097676 31.9929473,3.7599818 C31.8874986,3.7599818 31.7912638,3.82345581 31.7459618,3.9232738 C31.7404397,3.96144374 31.730387,3.99881927 31.7160164,4.03460926 L31.69938,4.06225117 L31.6686668,4.09757138 L31.5752474,4.09782732 L31.5644978,4.08503014 C31.3284881,4.01384327 31.1132996,3.88639902 30.937436,3.71365601 L30.9144011,3.71365601 L30.8611648,3.59976112 L30.896741,3.55164373 C30.9207997,3.51888295 30.9479297,3.49021727 30.9771073,3.46667046 C31.0364862,3.3752986 31.0405813,3.25654078 30.987345,3.16030599 C30.9373519,3.06750065 30.8378816,3.01231714 30.7326812,3.01902514 C30.6963082,3.03366648 30.6582,3.04355913 30.6192981,3.04845865 L30.5056592,3.0622796 L30.5056592,2.95990217 C30.4731772,2.8301765 30.4569285,2.69691958 30.4572859,2.56318963 C30.4572859,2.44136048 30.4705949,2.32183483 30.4964452,2.20666022 L30.4693152,2.17492322 L30.5704129,2.07254579 L30.6192981,2.07868843 C30.6576897,2.08329542 30.6953134,2.09327722 30.7319133,2.107866 C30.8355705,2.11477648 30.9346206,2.06102832 30.987345,1.9663292 C31.0410932,1.87009441 31.0367421,1.75108065 30.9768513,1.65970879 C30.9467791,1.63495341 30.9198728,1.60658574 30.896741,1.57524741 L30.8447844,1.5058867 L30.9364122,1.41349107 C31.1126108,1.2407365 31.3280275,1.11322525 31.5642418,1.04186099 L31.5744796,1.0295757 L31.6681549,1.02931976 L31.7165283,1.09330565 C31.7311171,1.13016153 31.7413548,1.16829712 31.7467296,1.20643272 C31.7927995,1.30445911 31.8880105,1.36716528 31.9929473,1.36716528 C32.0978842,1.36716528 32.1930952,1.30445911 32.2391651,1.20643272 C32.2445399,1.16855307 32.2545217,1.13067342 32.2693664,1.0935616 L32.2924013,1.05900921 L32.3231145,1.0277841 L32.4121829,1.03111136 L32.4216528,1.04186099 C32.6692085,1.11661229 32.8937612,1.25292899 33.074309,1.43806165 L33.1436697,1.50204755 L33.0891537,1.57550336 C33.0735411,1.59674667 33.055881,1.61645433 33.0369412,1.63462632 L33.0369412,1.68991014 L32.9918951,1.69016608 C32.9491525,1.77641906 32.9509441,1.8805881 32.9988056,1.96658514 C33.051274,2.06102832 33.1505801,2.11426459 33.2542373,2.107866 C33.2905813,2.09327722 33.328205,2.08329542 33.3665965,2.07868843 L33.4157377,2.07254579 L33.5165795,2.17389944 L33.4894494,2.20614833 C33.5449946,2.45454041 33.5417519,2.71247315 33.4799795,2.95939029 L33.4799795,3.06074394 L33.3665965,3.04794676 C33.327559,3.04317972 33.2893381,3.03319407 33.2529576,3.01825731 C33.1478516,3.01226542 33.0487373,3.06750616 32.9985497,3.16005005 C32.9453134,3.25654078 32.9494085,3.37555454 33.0090433,3.46718235 C33.0384769,3.49072915 33.0653509,3.51888295 33.0894096,3.55164373 L33.1244739,3.59950518 L33.0722614,3.71237629 L33.0494824,3.71288818 C32.8735304,3.88594756 32.6581603,4.01365884 32.4219088,4.08503014 L32.4126948,4.09526789 L32.3238824,4.09910704 L32.3238824,4.09936298 Z" id="Shape" fill="#FFFFFF"></path>
                <path d="M32.2488909,1.73495621 C31.9363838,1.73495621 31.6819759,1.99192356 31.6819759,2.30775793 C31.6819759,2.62384825 31.9363838,2.88081561 32.2488909,2.88081561 C32.561398,2.88081561 32.8158059,2.62384825 32.8158059,2.30775793 C32.8158059,1.99192356 32.561398,1.73495621 32.2488909,1.73495621 Z M32.2488909,3.07558867 C31.8255602,3.07558867 31.4810602,2.73108861 31.4810602,2.30775793 C31.4810602,1.88442726 31.8255602,1.5399272 32.2488909,1.5399272 C32.6722216,1.5399272 33.0167216,1.88442726 33.0167216,2.30775793 C33.0167216,2.73108861 32.6722216,3.07558867 32.2488909,3.07558867 Z" id="Shape" fill="#FFFFFF"></path>
                <path d="M52.3404618,33.5328745 C50.7152201,33.5328745 49.3971107,32.2147651 49.3971107,30.5895234 C49.3971107,28.9642817 50.7152201,27.6461722 52.3404618,27.6461722 C53.9662154,27.6461722 55.283813,28.9642817 55.283813,30.5895234 C55.283813,32.2147651 53.9662154,33.5328745 52.3404618,33.5328745" id="Shape" fill="#F15A24"></path>
                <path d="M52.8446707,31.1382664 L52.8073029,31.1932943 C52.6793311,31.3819247 52.5690195,31.5452167 52.4382323,31.6463144 L52.4274827,31.6545046 L52.3000228,31.6545046 L52.729752,30.0522978 C52.7747752,30.0467916 52.808789,30.0088405 52.8093505,29.9634854 C52.8085091,29.9133225 52.7673789,29.8732205 52.7172108,29.8736492 C52.6974201,29.8735564 52.6781254,29.8798384 52.6621829,29.8915652 L52.4822546,29.7815095 L52.4164771,29.9286771 L52.3327835,29.7451655 L52.2503697,29.9286771 L52.1669321,29.7451655 L52.0845183,29.9291889 L52.0021044,29.7451655 L51.9184109,29.9286771 L51.8357411,29.7451655 L51.7523035,29.9286771 L51.68627,29.7815095 L51.5065977,29.8915652 C51.4907634,29.880006 51.4716861,29.8737365 51.4520817,29.8736492 C51.400893,29.8736492 51.359686,29.9138323 51.359686,29.9634854 C51.359686,30.0080196 51.3929587,30.0448754 51.4390286,30.0520419 L51.8685019,31.6542487 L51.7418098,31.6542487 L51.7310602,31.6460585 C51.6015527,31.5462405 51.4917529,31.3844841 51.364549,31.1973894 L51.3241099,31.1382664 C50.9941986,30.6537652 50.8196451,30.2342737 50.8196451,29.924326 C50.8196451,29.153424 51.3566147,28.5652656 52.0686498,28.5557957 L52.1003868,28.5557957 C52.8124218,28.5652656 53.3493914,29.153424 53.3493914,29.924326 C53.3493914,30.2340177 53.1748379,30.6537652 52.8449266,31.1382664 L52.8446707,31.1382664 Z M52.2273348,31.6545046 L51.9414458,31.6545046 L51.5076214,30.0351496 C51.5305644,30.0184758 51.544164,29.9918471 51.5442214,29.9634854 C51.5442214,29.9609259 51.5442214,29.9575987 51.5434535,29.9540155 L51.6532533,29.888238 L51.7517916,30.1088613 L51.8357411,29.9248379 L51.9184109,30.1088613 L52.0018485,29.9248379 L52.0658344,30.0673985 L52.0714651,30.0794278 L52.0980833,30.0794278 L52.167188,29.9248379 L52.2503697,30.1088613 L52.3330395,29.9248379 L52.416733,30.1088613 L52.5157832,29.888238 L52.6248152,29.9540155 L52.6245592,29.9634854 C52.6245592,29.992663 52.6383802,30.0190251 52.6614151,30.0354055 L52.2273348,31.6545046 Z M52.1725628,28.4168183 L52.1725628,28.414003 L51.9969856,28.4150267 L51.9969856,28.4165624 C51.241952,28.463656 50.6768286,29.1045387 50.6768286,29.9240701 C50.6768286,30.2678023 50.8549653,30.7029064 51.2061199,31.2176089 L51.2445114,31.2741724 C51.3443294,31.4210841 51.4318621,31.5505915 51.5306564,31.6545046 C51.4808175,31.6833603 51.4501518,31.7366061 51.4502046,31.7941957 C51.4502574,31.8517852 51.4810206,31.9049748 51.5309123,31.9337391 C51.5110971,32.0045958 51.5415969,32.0798987 51.6051359,32.1169947 C51.591792,32.1666057 51.6023814,32.2196021 51.6337655,32.2602759 C51.6651495,32.3009497 51.7137274,32.324634 51.7651007,32.324309 L51.822688,32.324309 C51.8365089,32.369355 51.872597,32.4100501 51.8963997,32.433085 C51.9250654,32.4612388 51.9834205,32.5091002 52.0430554,32.5091002 L52.1259811,32.5091002 C52.1817768,32.5091002 52.2368047,32.4678933 52.2736606,32.4325731 C52.3018144,32.4049312 52.3340632,32.3660278 52.3466045,32.324309 L52.4044477,32.324309 C52.4960755,32.324309 52.5708111,32.251365 52.5708111,32.1617848 C52.570721,32.1466992 52.5684803,32.1317035 52.5641565,32.1172506 C52.6284894,32.0803262 52.6593321,32.0042757 52.638892,31.9329712 C52.6885084,31.9040953 52.7190303,31.8510172 52.7190303,31.7936099 C52.7190303,31.7362026 52.6885084,31.6831246 52.638892,31.6542487 C52.7371744,31.5505915 52.8247071,31.4210841 52.9252929,31.2726368 L52.9629166,31.2176089 C53.3140712,30.7029064 53.4922079,30.2678023 53.4922079,29.924326 C53.4922079,29.1045387 52.9275964,28.463656 52.1725628,28.4168183 Z" id="Shape" fill="#FFFFFF"></path>
                <path d="M13.6929815,30.205608 C12.7741115,30.205608 12.0292202,29.4607167 12.0292202,28.5418468 C12.0292202,27.6229768 12.7741115,26.8780855 13.6929815,26.8780855 C14.6118514,26.8780855 15.3567427,27.6229768 15.3567427,28.5418468 C15.3567427,29.4607167 14.6118514,30.205608 13.6929815,30.205608" id="Shape" fill="#22B573"></path>
                <path d="M6.27061768,14.8489933 C5.3518184,14.8489933 4.60698442,14.1041593 4.60698442,13.18536 C4.60698442,12.2665607 5.3518184,11.5217268 6.27061768,11.5217268 C7.18941696,11.5217268 7.93425094,12.2665607 7.93425094,13.18536 C7.93425094,14.1041593 7.18941696,14.8489933 6.27061768,14.8489933" id="Shape" fill="#009245"></path>
                <path d="M5.50278694,41.9790126 C4.58391698,41.9790126 3.83902571,41.2341213 3.83902571,40.3152514 C3.83902571,39.3963814 4.58391698,38.6514902 5.50278694,38.6514902 C6.4216569,38.6514902 7.16654817,39.3963814 7.16654817,40.3152514 C7.16654817,41.2341213 6.4216569,41.9790126 5.50278694,41.9790126" id="Shape" fill="#F7931E"></path>
                <path d="M19.3237402,46.0741099 C18.4049409,46.0741099 17.6601069,45.3292759 17.6601069,44.4104766 C17.6601069,43.4916773 18.4049409,42.7468434 19.3237402,42.7468434 C20.2425395,42.7468434 20.9873735,43.4916773 20.9873735,44.4104766 C20.9873735,45.3292759 20.2425395,46.0741099 19.3237402,46.0741099" id="Shape" fill="#1B1464"></path>
                <path d="M27.7698783,57.5915709 C26.851079,57.5915709 26.106245,56.8467369 26.106245,55.9279377 C26.106245,55.0091384 26.851079,54.2643044 27.7698783,54.2643044 C28.6886776,54.2643044 29.4335115,55.0091384 29.4335115,55.9279377 C29.4335115,56.8467369 28.6886776,57.5915709 27.7698783,57.5915709" id="Shape" fill="#FBB03B"></path>
                <path d="M42.6146058,53.4964737 C41.6957359,53.4964737 40.9508446,52.7515824 40.9508446,51.8327124 C40.9508446,50.9138425 41.6957359,50.1689512 42.6146058,50.1689512 C43.5334758,50.1689512 44.2783671,50.9138425 44.2783671,51.8327124 C44.2783671,52.7515824 43.5334758,53.4964737 42.6146058,53.4964737" id="Shape" fill="#006837"></path>
                <path d="M50.0369696,41.9790126 C49.1181703,41.9790126 48.3733364,41.2341786 48.3733364,40.3153794 C48.3733364,39.3965801 49.1181703,38.6517461 50.0369696,38.6517461 C50.9557689,38.6517461 51.7006029,39.3965801 51.7006029,40.3153794 C51.7006029,41.2341786 50.9557689,41.9790126 50.0369696,41.9790126" id="Shape" fill="#2E3192"></path>
                <path d="M52.3404618,20.7356956 C51.4215919,20.7356956 50.6767006,19.9908043 50.6767006,19.0719344 C50.6767006,18.1530644 51.4215919,17.4081731 52.3404618,17.4081731 C53.2593318,17.4081731 54.0042231,18.1530644 54.0042231,19.0719344 C54.0042231,19.9908043 53.2593318,20.7356956 52.3404618,20.7356956" id="Shape" fill="#ED1E79"></path>
                <path d="M42.3586623,33.0209874 C41.4397923,33.0209874 40.694901,32.2760961 40.694901,31.3572261 C40.694901,30.4383562 41.4397923,29.6934649 42.3586623,29.6934649 C43.2775322,29.6934649 44.0224235,30.4383562 44.0224235,31.3572261 C44.0224235,32.2760961 43.2775322,33.0209874 42.3586623,33.0209874" id="Shape" fill="#9E005D"></path>
                <path d="M20.8594017,13.5692754 C19.9406024,13.5692754 19.1957684,12.8244414 19.1957684,11.9056421 C19.1957684,10.9868429 19.9406024,10.2420089 20.8594017,10.2420089 C21.7782009,10.2420089 22.5230349,10.9868429 22.5230349,11.9056421 C22.5230349,12.8244414 21.7782009,13.5692754 20.8594017,13.5692754" id="Shape" fill="#C1272D"></path>
                <path d="M40.0551701,6.40285519 C39.1363708,6.40285519 38.3915368,5.65802121 38.3915368,4.73922193 C38.3915368,3.82042265 39.1363708,3.07558867 40.0551701,3.07558867 C40.9739693,3.07558867 41.7188033,3.82042265 41.7188033,4.73922193 C41.7188033,5.65802121 40.9739693,6.40285519 40.0551701,6.40285519" id="Shape" fill="#FBB03B"></path>
                <path d="M23.1628939,3.33153225 C22.2440946,3.33153225 21.4992606,2.58669827 21.4992606,1.66789899 C21.4992606,0.749099708 22.2440946,0.00426572631 23.1628939,0.00426572631 C24.0816931,0.00426572631 24.8265271,0.749099708 24.8265271,1.66789899 C24.8265271,2.58669827 24.0816931,3.33153225 23.1628939,3.33153225" id="Shape" fill="#662D91"></path>
                <g id="Group" transform="translate(0.000000, 8.194460)">
                    <path d="M6.51632351,0 C8.9841315,0 10.9845865,2.00071095 10.9845865,4.46877488 C10.9845865,6.93658287 8.9841315,8.93703788 6.51606757,8.93703788 C4.04800364,8.93703788 2.04754863,6.93658287 2.04754863,4.46877488 C2.04754863,2.00071095 4.04800364,0 6.51632351,0 Z" id="Shape" fill="#3B5998"></path>
                    <path d="M7.06020362,3.07644182 L7.63607667,3.07644182 L7.63607667,2.22568536 L6.9591059,2.22568536 L6.9591059,2.22875668 C6.13880673,2.25767831 5.9706518,2.71888864 5.95580708,3.20313389 L5.95427141,3.20313389 L5.95427141,3.62800023 L5.39529064,3.62800023 L5.39529064,4.46109658 L5.95401547,4.46109658 L5.95401547,6.6942043 L6.7958139,6.6942043 L6.7958139,4.46109658 L7.4853259,4.46109658 L7.61841656,3.62800023 L6.79606984,3.62800023 L6.79606984,3.37128882 C6.79606984,3.20748493 6.90484587,3.07644182 7.05969173,3.07644182 L7.06020362,3.07644182 Z" id="Shape" fill="#FFFFFF"></path>
                    <g transform="translate(0.000000, 27.897850)">
                        <circle id="Oval" fill="#55ACEE" cx="4.44727562" cy="4.44701968" r="4.44701968"></circle>
                        <path d="M7.17128313,3.19596747 C6.9772323,3.28192116 6.77137833,3.33825923 6.56060175,3.36309862 C6.78264232,3.23036099 6.94883862,3.0214103 7.02821067,2.77519622 C6.81950991,2.89906682 6.59115669,2.98632233 6.35303151,3.03318735 C6.02393852,2.68145953 5.49949483,2.59492175 5.07484825,2.82227597 C4.65020168,3.0496302 4.43145654,3.53406858 4.5417188,4.00295757 C3.68694891,3.96013339 2.8905689,3.55636129 2.35084177,2.89216244 C2.06808089,3.37779347 2.21218204,3.99961518 2.67972927,4.31136958 C2.51082868,4.30620278 2.3456372,4.26056008 2.19804345,4.17827892 L2.19804345,4.19158799 C2.19822547,4.69761314 2.55486791,5.13346189 3.05084746,5.23379024 C2.89432161,5.27662896 2.73004613,5.28293378 2.5706973,5.25221818 C2.70997379,5.68519335 3.10901432,5.98179976 3.56375839,5.99035946 C3.11841549,6.3402347 2.55220184,6.49861614 1.98996132,6.43058241 C2.47591491,6.74299972 3.04158277,6.90880811 3.61929815,6.90817313 C5.57470709,6.90817313 6.64378341,5.28856217 6.64378341,3.88368786 C6.64378341,3.83761802 6.64275964,3.79154817 6.64071209,3.74624616 C6.84893978,3.59589365 7.02862146,3.40953783 7.17128313,3.19596747 Z" id="Shape" fill="#F1F2F2"></path>
                    </g>
                    <path d="M43.6281424,39.9271983 C46.0959504,39.9271983 48.0964054,41.9279092 48.0964054,44.3959732 C48.0964054,46.8635252 46.0959504,48.8642362 43.6278865,48.8642362 C41.1598225,48.8642362 39.1593675,46.8635252 39.1593675,44.3959732 C39.1593675,41.9284211 41.1598225,39.9271983 43.6281424,39.9271983 Z" id="Shape" fill="#0E76A8"></path>
                    <path d="M41.6773405,46.0670288 L42.514276,46.0670288 L42.514276,43.2780116 L41.6773405,43.2780116 L41.6773405,46.0670288 Z M44.9372938,43.1815209 C44.5311114,43.1815209 44.1676715,43.3299681 43.9099363,43.657064 L43.9099363,43.2687976 L43.0704414,43.2687976 L43.0704414,46.0670288 L43.9099363,46.0670288 L43.9099363,44.5538903 C43.9099363,44.2339609 44.2029917,43.9222216 44.5700148,43.9222216 C44.9370379,43.9222216 45.027386,44.2339609 45.027386,44.5459561 L45.027386,46.0667728 L45.8643215,46.0667728 L45.8643215,44.4837618 C45.8643215,43.3842282 45.3434763,43.1815209 44.9372938,43.1815209 Z M42.0919691,42.999289 C42.3234358,42.9991477 42.5109621,42.8113922 42.5108207,42.5799255 C42.5106794,42.3484588 42.3229239,42.1609325 42.0914572,42.1610738 C41.8599904,42.1612152 41.6724642,42.3489706 41.6726055,42.5804374 C41.6727469,42.8119041 41.8605023,42.9994304 42.0919691,42.999289 Z" id="Shape" fill="#FFFFFF"></path>
                    <g transform="translate(48.117393, 6.398589)">
                        <circle id="Oval" fill="#D42428" cx="4.4782448" cy="4.4782448" r="4.4782448"></circle>
                        <path d="M7.64503469,1.31119895 C9.39389717,3.06031737 9.39389717,5.89591628 7.64503469,7.64503469 C5.89591628,9.39389717 3.06006143,9.39389717 1.31119895,7.64503469 L7.64477875,1.31119895 L7.64503469,1.31119895 Z" id="Shape" fill="#CC202D"></path>
                        <path d="M8.8884086,5.25324195 L5.87467296,2.23925037 L5.63152656,2.48239677 L5.38838016,2.23925037 L5.1219429,2.50568764 L5.30084746,2.68484814 L5.24249232,2.74320328 L4.77821067,2.27892162 L4.75850301,2.29888522 L4.1334888,1.673871 L3.86705153,1.94005233 L3.93973951,2.01325219 L3.83275509,2.12023661 L3.38203845,1.66951996 L3.19519964,1.85635878 L3.63465476,2.91468547 L3.43655443,3.72730634 L3.9778751,4.268627 L2.60908884,4.3643499 L2.58861335,6.73925037 L4.79075191,8.9442043 C6.85442498,8.79780457 8.53930156,7.25420885 8.88866454,5.2534979 L8.8884086,5.25324195 Z" id="Shape" fill="#BA202E"></path>
                        <path d="M6.08019565,5.51686384 L5.79123535,5.51686384 L5.79277102,5.34896485 C5.79277102,5.27448527 5.85394153,5.21331475 5.92867706,5.21331475 L5.94736094,5.21331475 C6.02209646,5.21331475 6.08352292,5.27448527 6.08352292,5.34896485 L6.08019565,5.51686384 Z M4.99704243,5.15726311 C4.92384257,5.15726311 4.86395177,5.20666022 4.86395177,5.26680696 L4.86395177,6.08249915 C4.86395177,6.14264589 4.92384257,6.19178705 4.99704243,6.19178705 C5.07049824,6.19178705 5.13038903,6.14264589 5.13038903,6.08249915 L5.13038903,5.26680696 C5.13038903,5.20666022 5.07049824,5.15726311 4.99704243,5.15726311 Z M6.7558867,4.70117165 L6.7558867,6.25270163 C6.7558867,6.62509953 6.43314185,6.92941645 6.03847685,6.92941645 L3.08898305,6.92941645 C2.69406211,6.92941645 2.3715732,6.62484359 2.3715732,6.25270163 L2.3715732,4.70117165 C2.3715732,4.32877375 2.69406211,4.02420089 3.08898305,4.02420089 L6.03847685,4.02420089 C6.43314185,4.02420089 6.7558867,4.32877375 6.7558867,4.70117165 Z M3.28554772,6.4211125 L3.28554772,4.78665681 L3.65103515,4.78665681 L3.65103515,4.54453418 L2.676402,4.54325446 L2.676402,4.78128199 L2.98071892,4.78204982 L2.98071892,6.4211125 L3.28554772,6.4211125 Z M4.38175407,5.03031509 L4.07666932,5.03031509 L4.07666932,5.9030827 C4.07666932,6.02926288 4.08434763,6.09248095 4.07641338,6.11474804 C4.05158685,6.18231714 3.93999545,6.25423729 3.89674099,6.1221704 C3.88931862,6.09887954 3.89571721,6.02900694 3.89571721,5.9089694 L3.89418155,5.03031509 L3.59114435,5.03031509 L3.59216813,5.89514845 C3.59216813,6.02772722 3.5890968,6.12652144 3.5931919,6.17156751 C3.60087021,6.25091002 3.59779889,6.3435616 3.67176658,6.39603003 C3.80869639,6.4950802 4.07155045,6.38144125 4.13758389,6.24016039 L4.13681606,6.42034467 L4.38149812,6.42085656 L4.38149812,5.03031509 L4.38175407,5.03031509 Z M5.3568991,6.02977477 L5.35638721,5.30315095 C5.35613127,5.02622 5.14907292,4.86036856 4.86753498,5.08457513 L4.8688147,4.54453418 L4.56424184,4.54479013 L4.56296212,6.40908315 L4.81327494,6.405244 L4.83605392,6.28904561 C5.15598339,6.58312479 5.35741099,6.38169719 5.3568991,6.02977477 Z M6.31105676,5.93353998 L6.08249915,5.93456376 L6.08173132,5.96553293 L6.08173132,6.09324878 C6.08173132,6.16158571 6.02542373,6.21712547 5.95683085,6.21712547 L5.91229667,6.21712547 C5.84365634,6.21726772 5.78781889,6.16188795 5.7873962,6.09324878 L5.7873962,5.75770675 L6.31080082,5.75770675 L6.31080082,5.56063019 C6.31080082,5.4167899 6.30721761,5.27269366 6.2954442,5.19053578 C6.2578205,4.92998521 5.89233307,4.88852235 5.7075418,5.0221249 C5.64969856,5.06358776 5.60542032,5.11938346 5.57957001,5.19437493 C5.55371971,5.2693664 5.54066659,5.37148789 5.54066659,5.50150722 L5.54066659,5.93456376 C5.54092253,6.65453305 6.41548174,6.5526675 6.31131271,5.93353998 L6.31105676,5.93353998 Z M5.13857923,3.58167444 C5.15393584,3.62006598 5.17850643,3.65077921 5.21177909,3.67458196 C5.24872562,3.69877572 5.29229393,3.71085318 5.33642362,3.70913434 C5.37826378,3.70989345 5.41921972,3.69704981 5.45313389,3.67253441 C5.48717438,3.64821977 5.51558412,3.61187578 5.53887499,3.5632465 L5.53298828,3.6830281 L5.87288136,3.6830281 L5.87288136,2.23771471 L5.60516437,2.23771471 L5.60516437,3.36258674 C5.60231311,3.42207161 5.55325411,3.46883541 5.49370094,3.46883541 C5.43414778,3.46883541 5.38508878,3.42207161 5.38223752,3.36258674 L5.38223752,2.23771471 L5.10325901,2.23771471 L5.10325901,3.21234786 C5.10325901,3.33673643 5.10530656,3.41940621 5.10888977,3.46138096 C5.11298487,3.50309976 5.12245478,3.5432829 5.13832329,3.58167444 L5.13857923,3.58167444 Z M4.10866227,2.76547037 C4.10866227,2.62674895 4.12043567,2.51848481 4.14321465,2.44042202 C4.16624957,2.36261517 4.20796838,2.30016494 4.26811512,2.25307132 C4.32826186,2.20546582 4.40530088,2.18191901 4.49846434,2.18191901 C4.57703902,2.18191901 4.64435218,2.19727562 4.70065977,2.22747697 C4.75696735,2.25793425 4.80098965,2.29734956 4.83119099,2.34597884 C4.86190422,2.39486407 4.88289159,2.44528495 4.89415311,2.49647367 C4.90567057,2.54868616 4.91104539,2.62726083 4.91104539,2.73322148 L4.91104539,3.09870891 C4.91104539,3.23282334 4.90592652,3.33136162 4.89543283,3.3940678 C4.88519509,3.45677397 4.86292799,3.51512911 4.82837561,3.56964509 C4.79708591,3.62128397 4.75171503,3.66292573 4.69758844,3.68968263 C4.64384029,3.71578887 4.58241383,3.72858605 4.51330907,3.72858605 C4.43575816,3.72858605 4.37049255,3.71783642 4.3167444,3.69531339 C4.26574997,3.67546118 4.22200695,3.64055603 4.19133204,3.59523945 C4.15962403,3.54598693 4.13804606,3.4909109 4.12785804,3.43322716 C4.11506086,3.3700091 4.10891821,3.27505403 4.10891821,3.14836196 L4.10891821,2.76547037 L4.10866227,2.76547037 Z M4.37484359,3.33980776 C4.37484359,3.42145376 4.43575816,3.48825503 4.5099818,3.48825503 C4.58420544,3.48825503 4.64486407,3.4217097 4.64486407,3.33980776 L4.64486407,2.57044136 C4.64486407,2.48853942 4.58420544,2.42199408 4.5099818,2.42199408 C4.43575816,2.42199408 4.37484359,2.48853942 4.37484359,2.57044136 L4.37484359,3.33980776 Z M3.43425094,3.72807417 L3.75494824,3.72807417 L3.75520419,2.61983847 L4.13400068,1.67028779 L3.78335798,1.67028779 L3.58193038,2.3756683 L3.37768741,1.66849619 L3.03088386,1.66849619 L3.43373905,2.6206063 L3.43425094,3.72807417 Z" id="Shape" fill="#FFFFFF"></path>
                    </g>
                </g>
            </g>
        </g>
    </g>
</svg>