<?xml version="1.0" encoding="UTF-8"?>
<svg width="75px" height="43px" viewBox="0 0 75 43" version="1.1" xmlns="http://www.w3.org/2000/svg" xmlns:xlink="http://www.w3.org/1999/xlink">
    <!-- Generator: Sketch 49.2 (51160) - http://www.bohemiancoding.com/sketch -->
    <title>docker-seeklogo.com 2</title>
    <desc>Created with Sketch.</desc>
    <defs></defs>
    <g id="Page-1" stroke="none" stroke-width="1" fill="none" fill-rule="evenodd">
        <g id="latest-Single-course-page-" transform="translate(-153.000000, -2998.000000)" fill-rule="nonzero">
            <g id="docker-seeklogo.com-2" transform="translate(153.000000, 2998.000000)">
                <path d="M43.2092572,13.4124228 L49.9082637,13.4124228 L49.9082637,20.2677728 L53.2955021,20.2677728 C54.8596758,20.2677728 56.468567,19.9888153 57.9498955,19.4863462 C58.677772,19.239274 59.4947698,18.8954463 60.2127615,18.4630307 C59.2671026,17.2270415 58.7843098,15.6663872 58.6421549,14.1280369 C58.4491632,12.0356983 58.8707637,9.31224969 60.2854078,7.67463072 L60.9895922,6.85927681 L61.8287133,7.53452368 C63.9414226,9.23371432 65.718201,11.6079948 66.0313808,14.3146368 C68.5752615,13.5655667 71.5619247,13.7427425 73.8042363,15.0382615 L74.7241632,15.5696316 L74.2399582,16.5156683 C72.3436192,20.2206517 68.3791318,21.3683672 64.503138,21.1652747 C58.7031902,35.6264586 46.0760461,42.4728556 30.7656902,42.4728556 C22.8558577,42.4728556 15.5987448,39.5128584 11.4662134,32.487558 L11.398431,32.3728965 L10.7963912,31.1466456 C9.39947698,28.0542379 8.93551254,24.6665374 9.25026149,21.2816641 L9.34471758,20.2677728 L15.0731171,20.2677728 L15.0731171,13.4124228 L21.7719665,13.4124228 L21.7719665,6.70613287 L35.1702929,6.70613287 L35.1702929,0 L43.2092572,0 L43.2092572,13.4124228" id="Shape" fill="#364548"></path>
                <path d="M64.9131275,15.9484861 C65.362343,12.4539775 62.7498955,9.70901023 61.1297071,8.40579476 C59.2627093,10.5666162 58.972594,16.2297997 61.9016736,18.6141327 C60.2670501,20.0676648 56.8223851,21.3851737 53.2955021,21.3851737 L10.3623954,21.3851737 C10.0194038,25.0708373 10.6658473,28.4648207 12.1419979,31.3700001 L12.6304393,32.2642036 C12.9396967,32.7896049 13.2775104,33.2966289 13.6426255,33.7848047 L13.6427824,33.7848047 C15.4077929,33.8982098 17.0351987,33.9374774 18.5240586,33.9044925 L18.5246862,33.9044925 C21.4506276,33.8396224 23.8379184,33.4940671 25.6473326,32.8664124 C25.9167364,32.7726412 26.2103033,32.9157327 26.3035042,33.1851088 C26.3965481,33.4544851 26.2540795,33.7485216 25.9849896,33.8419786 C25.7444561,33.9253831 25.4935669,34.0034471 25.2345188,34.0775845 C25.234205,34.0777414 25.2338912,34.0777414 25.2335774,34.0778986 C23.8088912,34.4850258 22.2812762,34.7591143 20.3100941,34.8808441 C20.4269875,34.8827287 20.1881799,34.898436 20.1875523,34.8985929 C20.1205544,34.9026768 20.0361402,34.9122583 19.9688285,34.9160278 C19.1930962,34.9595365 18.3557008,34.9686464 17.4996339,34.9686464 C16.5633891,34.9686464 15.6412657,34.9508977 14.610408,34.8985929 L14.5840481,34.9160278 C18.1612971,38.940964 23.7546025,41.3549836 30.7656902,41.3549836 C45.6040796,41.3549836 58.1901149,34.7702663 63.7633368,19.9872446 C67.7174687,20.3934294 71.5175209,19.3840932 73.2461297,16.006131 C70.4926254,14.4154762 66.9519352,14.9226575 64.9131275,15.9484861" id="Shape" fill="#22A0C8"></path>
                <path d="M64.9131275,15.9484861 C65.362343,12.4539775 62.7498955,9.70901023 61.1297071,8.40579476 C59.2627093,10.5666162 58.972594,16.2297997 61.9016736,18.6141327 C60.2670501,20.0676648 56.8223851,21.3851737 53.2955021,21.3851737 L12.9047071,21.3851737 C12.7294456,27.0296658 14.8219142,31.3142398 18.5240586,33.9044925 L18.5246862,33.9044925 C21.4506276,33.8396224 23.8379184,33.4940671 25.6473326,32.8664124 C25.9167364,32.7726412 26.2103033,32.9157327 26.3035042,33.1851088 C26.3965481,33.4544851 26.2540795,33.7485216 25.9849896,33.8419786 C25.7444561,33.9253831 25.4935669,34.0034471 25.2345188,34.0775845 C25.234205,34.0777414 25.2338912,34.0777414 25.2335774,34.0778986 C23.8088912,34.4850258 22.1499477,34.7942979 20.1787657,34.9160278 C20.178295,34.9160278 20.1310669,34.8703203 20.1304393,34.8704772 C25.1802301,37.4635571 32.5026149,37.45429 40.897594,34.2260164 C50.3108786,30.6060084 59.0700313,23.7090345 65.1819038,15.8206306 C65.0896444,15.8622543 64.9998955,15.9049775 64.9131275,15.9484861" id="Shape" fill="#37B1D9"></path>
                <path d="M10.4427301,25.8632589 C10.7096234,27.8374804 11.2864017,29.6860452 12.1419979,31.3700001 L12.6304393,32.2642036 C12.9396967,32.7896049 13.2775104,33.2966289 13.6427824,33.7848047 C15.4081067,33.8982098 17.0356695,33.9374774 18.5246862,33.9044925 C21.4506276,33.8396224 23.8379184,33.4940671 25.6473326,32.8664124 C25.9167364,32.7726412 26.2103033,32.9157327 26.3035042,33.1851088 C26.3965481,33.4544851 26.2540795,33.7485216 25.9849896,33.8419786 C25.7444561,33.9253831 25.4935669,34.0034471 25.2345188,34.0775845 C25.234205,34.0777414 25.2338912,34.0777414 25.2335774,34.0778986 C23.8088912,34.4850258 22.1587343,34.7767061 20.1875523,34.8985929 C20.1199268,34.9026768 20.0019352,34.9034622 19.933682,34.9072317 C19.1582636,34.9508977 18.3294979,34.9774425 17.4732741,34.9774425 C16.5371862,34.9774425 15.5799163,34.9595365 14.5492155,34.9072317 C18.1263075,38.9321682 23.7546025,41.3549836 30.7656902,41.3549836 C43.4687763,41.3549836 54.5207637,36.5282014 60.9353033,25.8632589 L10.4427301,25.8632589" id="Shape" fill="#1B81A5"></path>
                <path d="M13.2911611,25.8632589 C14.0505753,29.329652 15.875523,32.0510585 18.5246862,33.9044925 C21.4506276,33.8396224 23.8379184,33.4940671 25.6473326,32.8664124 C25.9167364,32.7726412 26.2103033,32.9157327 26.3035042,33.1851088 C26.3965481,33.4544851 26.2540795,33.7485216 25.9849896,33.8419786 C25.7444561,33.9253831 25.4935669,34.0034471 25.2345188,34.0775845 C25.234205,34.0777414 25.2338912,34.0777414 25.2335774,34.0778986 C23.8088912,34.4850258 22.1237448,34.7767061 20.1525628,34.8985929 C25.2020397,37.4912017 32.5032428,37.4539759 40.897594,34.2260164 C45.9759413,32.2728424 50.8634938,29.3651498 55.2484834,25.8632589 L13.2911611,25.8632589" id="Shape" fill="#1D91B4"></path>
                <path d="M16.1896443,14.5299807 L21.9953975,14.5299807 L21.9953975,20.3422244 L16.1896443,20.3422244 L16.1896443,14.5299807 Z M16.6732218,15.0143868 L17.1313808,15.0143868 L17.1313808,19.8581325 L16.6732218,19.8581325 L16.6732218,15.0143868 Z M17.5346234,15.0143868 L18.0111402,15.0143868 L18.0111402,19.8581325 L17.5346234,19.8581325 L17.5346234,15.0143868 Z M18.414069,15.0143868 L18.8905858,15.0143868 L18.8905858,19.8581325 L18.414069,19.8581325 L18.414069,15.0143868 Z M19.2939853,15.0143868 L19.7705021,15.0143868 L19.7705021,19.8581325 L19.2939853,19.8581325 L19.2939853,15.0143868 Z M20.1737448,15.0143868 L20.6502615,15.0143868 L20.6502615,19.8581325 L20.1737448,19.8581325 L20.1737448,15.0143868 Z M21.0533473,15.0143868 L21.5118201,15.0143868 L21.5118201,19.8581325 L21.0533473,19.8581325 L21.0533473,15.0143868 Z" id="Shape" fill="#23A3C2"></path>
                <path d="M22.8883368,7.82384786 L28.6947176,7.82384786 L28.6947176,13.6357773 L22.8883368,13.6357773 L22.8883368,7.82384786 Z M23.3725419,8.30825385 L23.830387,8.30825385 L23.830387,13.1515284 L23.3725419,13.1515284 L23.3725419,8.30825385 Z M24.2339435,8.30825385 L24.7101464,8.30825385 L24.7101464,13.1515284 L24.2339435,13.1515284 L24.2339435,8.30825385 Z M25.1132322,8.30825385 L25.589749,8.30825385 L25.589749,13.1515284 L25.1132322,13.1515284 L25.1132322,8.30825385 Z M25.9929916,8.30825385 L26.4695084,8.30825385 L26.4695084,13.1515284 L25.9929916,13.1515284 L25.9929916,8.30825385 Z M26.872908,8.30825385 L27.3494247,8.30825385 L27.3494247,13.1515284 L26.872908,13.1515284 L26.872908,8.30825385 Z M27.7523536,8.30825385 L28.2111402,8.30825385 L28.2111402,13.1515284 L27.7523536,13.1515284 L27.7523536,8.30825385 Z" id="Shape" fill="#23A3C2"></path>
                <path d="M22.8883368,14.5299807 L28.6947176,14.5299807 L28.6947176,20.3422244 L22.8883368,20.3422244 L22.8883368,14.5299807 Z M23.3725419,15.0143868 L23.830387,15.0143868 L23.830387,19.8581325 L23.3725419,19.8581325 L23.3725419,15.0143868 Z M24.2339435,15.0143868 L24.7101464,15.0143868 L24.7101464,19.8581325 L24.2339435,19.8581325 L24.2339435,15.0143868 Z M25.1132322,15.0143868 L25.589749,15.0143868 L25.589749,19.8581325 L25.1132322,19.8581325 L25.1132322,15.0143868 Z M25.9929916,15.0143868 L26.4695084,15.0143868 L26.4695084,19.8581325 L25.9929916,19.8581325 L25.9929916,15.0143868 Z M26.872908,15.0143868 L27.3494247,15.0143868 L27.3494247,19.8581325 L26.872908,19.8581325 L26.872908,15.0143868 Z M27.7523536,15.0143868 L28.2111402,15.0143868 L28.2111402,19.8581325 L27.7523536,19.8581325 L27.7523536,15.0143868 Z" id="Shape" fill="#34BBDE"></path>
                <path d="M29.587657,14.5299807 L35.3937237,14.5299807 L35.3937237,20.3422244 L29.587657,20.3422244 L29.587657,14.5299807 Z M30.0715482,15.0143868 L30.5293934,15.0143868 L30.5293934,19.8581325 L30.0715482,19.8581325 L30.0715482,15.0143868 Z M30.9327929,15.0143868 L31.4093098,15.0143868 L31.4093098,19.8581325 L30.9327929,19.8581325 L30.9327929,15.0143868 Z M31.8125522,15.0143868 L32.2890691,15.0143868 L32.2890691,19.8581325 L31.8125522,19.8581325 L31.8125522,15.0143868 Z M32.6923116,15.0143868 L33.1688285,15.0143868 L33.1688285,19.8581325 L32.6923116,19.8581325 L32.6923116,15.0143868 Z M33.5719143,15.0143868 L34.0487446,15.0143868 L34.0487446,19.8581325 L33.5719143,19.8581325 L33.5719143,15.0143868 Z M34.4516736,15.0143868 L34.9098325,15.0143868 L34.9098325,19.8581325 L34.4516736,19.8581325 L34.4516736,15.0143868 Z" id="Shape" fill="#23A3C2"></path>
                <path d="M29.587657,7.82384786 L35.3937237,7.82384786 L35.3937237,13.6357773 L29.587657,13.6357773 L29.587657,7.82384786 Z M30.0715482,8.30825385 L30.5293934,8.30825385 L30.5293934,13.1515284 L30.0715482,13.1515284 L30.0715482,8.30825385 Z M30.9327929,8.30825385 L31.4093098,8.30825385 L31.4093098,13.1515284 L30.9327929,13.1515284 L30.9327929,8.30825385 Z M31.8125522,8.30825385 L32.2890691,8.30825385 L32.2890691,13.1515284 L31.8125522,13.1515284 L31.8125522,8.30825385 Z M32.6923116,8.30825385 L33.1688285,8.30825385 L33.1688285,13.1515284 L32.6923116,13.1515284 L32.6923116,8.30825385 Z M33.5719143,8.30825385 L34.0487446,8.30825385 L34.0487446,13.1515284 L33.5719143,13.1515284 L33.5719143,8.30825385 Z M34.4516736,8.30825385 L34.9098325,8.30825385 L34.9098325,13.1515284 L34.4516736,13.1515284 L34.4516736,8.30825385 Z" id="Shape" fill="#34BBDE"></path>
                <path d="M36.2868202,14.5299807 L42.0927302,14.5299807 L42.0927302,20.3422244 L36.2868202,20.3422244 L36.2868202,14.5299807 Z M36.7707114,15.0143868 L37.2287133,15.0143868 L37.2287133,19.8581325 L36.7707114,19.8581325 L36.7707114,15.0143868 Z M37.6321131,15.0143868 L38.1086297,15.0143868 L38.1086297,19.8581325 L37.6321131,19.8581325 L37.6321131,15.0143868 Z M38.5115587,15.0143868 L38.9880753,15.0143868 L38.9880753,19.8581325 L38.5115587,19.8581325 L38.5115587,15.0143868 Z M39.3914748,15.0143868 L39.8679917,15.0143868 L39.8679917,19.8581325 L39.3914748,19.8581325 L39.3914748,15.0143868 Z M40.2712342,15.0143868 L40.7477511,15.0143868 L40.7477511,19.8581325 L40.2712342,19.8581325 L40.2712342,15.0143868 Z M41.1508368,15.0143868 L41.6091527,15.0143868 L41.6091527,19.8581325 L41.1508368,19.8581325 L41.1508368,15.0143868 Z" id="Shape" fill="#34BBDE"></path>
                <path d="M36.2868202,7.82384786 L42.0927302,7.82384786 L42.0927302,13.6357773 L36.2868202,13.6357773 L36.2868202,7.82384786 Z M36.7707114,8.30825385 L37.2287133,8.30825385 L37.2287133,13.1515284 L36.7707114,13.1515284 L36.7707114,8.30825385 Z M37.6321131,8.30825385 L38.1086297,8.30825385 L38.1086297,13.1515284 L37.6321131,13.1515284 L37.6321131,8.30825385 Z M38.5115587,8.30825385 L38.9880753,8.30825385 L38.9880753,13.1515284 L38.5115587,13.1515284 L38.5115587,8.30825385 Z M39.3914748,8.30825385 L39.8679917,8.30825385 L39.8679917,13.1515284 L39.3914748,13.1515284 L39.3914748,8.30825385 Z M40.2712342,8.30825385 L40.7477511,8.30825385 L40.7477511,13.1515284 L40.2712342,13.1515284 L40.2712342,8.30825385 Z M41.1508368,8.30825385 L41.6091527,8.30825385 L41.6091527,13.1515284 L41.1508368,13.1515284 L41.1508368,8.30825385 Z" id="Shape" fill="#23A3C2"></path>
                <path d="M36.2868202,1.11755792 L42.0927302,1.11755792 L42.0927302,6.92980154 L36.2868202,6.92980154 L36.2868202,1.11755792 Z M36.7707114,1.60164977 L37.2287133,1.60164977 L37.2287133,6.44539555 L36.7707114,6.44539555 L36.7707114,1.60164977 Z M37.6321131,1.60164977 L38.1086297,1.60164977 L38.1086297,6.44539555 L37.6321131,6.44539555 L37.6321131,1.60164977 Z M38.5115587,1.60164977 L38.9880753,1.60164977 L38.9880753,6.44539555 L38.5115587,6.44539555 L38.5115587,1.60164977 Z M39.3914748,1.60164977 L39.8679917,1.60164977 L39.8679917,6.44539555 L39.3914748,6.44539555 L39.3914748,1.60164977 Z M40.2712342,1.60164977 L40.7477511,1.60164977 L40.7477511,6.44539555 L40.2712342,6.44539555 L40.2712342,1.60164977 Z M41.1508368,1.60164977 L41.6091527,1.60164977 L41.6091527,6.44539555 L41.1508368,6.44539555 L41.1508368,1.60164977 Z" id="Shape" fill="#34BBDE"></path>
                <path d="M42.9858264,14.5299807 L48.7918934,14.5299807 L48.7918934,20.3422244 L42.9858264,20.3422244 L42.9858264,14.5299807 Z M43.4694038,15.0143868 L43.9278765,15.0143868 L43.9278765,19.8581325 L43.4694038,19.8581325 L43.4694038,15.0143868 Z M44.3308055,15.0143868 L44.8073221,15.0143868 L44.8073221,19.8581325 L44.3308055,19.8581325 L44.3308055,15.0143868 Z M45.2107219,15.0143868 L45.6872385,15.0143868 L45.6872385,19.8581325 L45.2107219,19.8581325 L45.2107219,15.0143868 Z M46.0901675,15.0143868 L46.5666841,15.0143868 L46.5666841,19.8581325 L46.0901675,19.8581325 L46.0901675,15.0143868 Z M46.9702406,15.0143868 L47.4466005,15.0143868 L47.4466005,19.8581325 L46.9702406,19.8581325 L46.9702406,15.0143868 Z M47.849843,15.0143868 L48.3080021,15.0143868 L48.3080021,19.8581325 L47.849843,19.8581325 L47.849843,15.0143868 Z" id="Shape" fill="#23A3C2"></path>
                <path d="M28.3311715,29.765523 C29.2156381,29.765523 29.9326884,30.4836503 29.9326884,31.3690577 C29.9326884,32.2544652 29.2156381,32.9722781 28.3311715,32.9722781 C27.4465481,32.9722781 26.729341,32.2544652 26.729341,31.3690577 C26.729341,30.4836503 27.4465481,29.765523 28.3311715,29.765523" id="Shape" fill="#D3ECEC"></path>
                <path d="M28.3311715,30.2203998 C28.4777197,30.2203998 28.6175209,30.2480441 28.7464958,30.2981496 C28.6066946,30.379041 28.5120816,30.5306142 28.5120816,30.7040204 C28.5120816,30.9628729 28.721705,31.172405 28.9802824,31.172405 C29.1574268,31.172405 29.3113494,31.0739217 29.3908995,30.9284743 C29.447071,31.0640265 29.478295,31.2129293 29.478295,31.3690577 C29.478295,32.003152 28.964749,32.5172444 28.3311715,32.5172444 C27.697751,32.5172444 27.1838912,32.003152 27.1838912,31.3690577 C27.1838912,30.7346491 27.697751,30.2203998 28.3311715,30.2203998" id="Shape" fill="#364548"></path>
                <path d="M0,26.4428498 L74.5099896,26.4428498 C72.8876045,26.0308533 69.3768829,25.4743519 69.9558577,23.3458871 C67.00591,26.7631169 59.8915796,25.7432569 58.0961297,24.0582026 C56.096705,26.961183 44.4571131,25.8577614 43.6452929,23.5962577 C41.1387554,26.5410189 33.371705,26.5410189 30.8650104,23.5962577 C30.0528765,25.8577614 18.4134414,26.961183 16.4138598,24.0582026 C14.61841,25.7432569 7.5047071,26.7631169 4.55444561,23.3458871 C5.1334205,25.4743519 1.62269875,26.0308533 0,26.4428498" id="Shape" fill="#364548"></path>
                <path d="M32.5890691,41.3202709 C28.6223849,39.4358937 26.4450314,36.8743852 25.2335774,34.0778986 C23.760251,34.499005 21.9889644,34.7680672 19.9310147,34.8836713 C19.1557531,34.9271798 18.3403243,34.9494838 17.4844142,34.9494838 C16.4978033,34.9494838 15.458159,34.9202686 14.3667364,34.8623097 C18.0043933,38.5016375 22.4796025,41.3037786 30.7656902,41.3549836 C31.3774582,41.3549836 31.9848325,41.3430462 32.5890691,41.3202709" id="Shape" fill="#BDD9D7"></path>
                <path d="M26.7070607,36.6582557 C26.1582113,35.9124844 25.6258368,34.9752435 25.2345188,34.0775845 C23.7608787,34.4988481 21.9892782,34.7680672 19.9310147,34.8836713 C21.3447176,35.6519039 23.3667364,36.3637482 26.7070607,36.6582557" id="Shape" fill="#D3ECEC"></path>
            </g>
        </g>
    </g>
</svg>