<?xml version="1.0" encoding="UTF-8"?>
<svg width="75px" height="76px" viewBox="0 0 75 76" version="1.1" xmlns="http://www.w3.org/2000/svg" xmlns:xlink="http://www.w3.org/1999/xlink">
    <!-- Generator: Sketch 49.2 (51160) - http://www.bohemiancoding.com/sketch -->
    <title>Shape</title>
    <desc>Created with Sketch.</desc>
    <defs></defs>
    <g id="Page-1" stroke="none" stroke-width="1" fill="none" fill-rule="evenodd">
        <g id="latest-Single-course-page-" transform="translate(-153.000000, -3541.000000)" fill="#DE4C36" fill-rule="nonzero">
            <path d="M226.585415,3575.32817 L193.839274,3542.42162 C191.954806,3540.52613 188.896042,3540.52613 187.009104,3542.42162 L180.209382,3549.25517 L188.835146,3557.92384 C190.83976,3557.24321 193.138153,3557.69972 194.736249,3559.30577 C196.34175,3560.92173 196.792706,3563.25141 196.098991,3565.27261 L204.412049,3573.62702 C206.423246,3572.93068 208.743858,3573.3814 210.350182,3574.99819 C212.595086,3577.25344 212.595086,3580.9088 210.350182,3583.1657 C208.104455,3585.4226 204.467184,3585.4226 202.220634,3583.1657 C200.532018,3581.46703 200.114802,3578.97444 200.969807,3576.88377 L193.217153,3569.09255 L193.21633,3589.59567 C193.763567,3589.86858 194.280355,3590.23163 194.736249,3590.68814 C196.981153,3592.94338 196.981153,3596.59875 194.736249,3598.8573 C192.490522,3601.11337 188.851604,3601.11337 186.609169,3598.8573 C184.364265,3596.59875 184.364265,3592.94338 186.609169,3590.68814 C187.163812,3590.13157 187.805683,3589.71062 188.490346,3589.42778 L188.490346,3568.73363 C187.805683,3568.45245 187.164635,3568.03398 186.609169,3567.47327 C184.90821,3565.76633 184.499222,3563.25802 185.370686,3561.15908 L176.868359,3552.61281 L154.415203,3575.176 C152.528266,3577.07315 152.528266,3580.14713 154.415203,3582.04263 L187.161343,3614.95 C189.046635,3616.84549 192.104576,3616.84549 193.992336,3614.95 L226.585415,3582.19562 C228.471528,3580.2993 228.471528,3577.22366 226.585415,3575.32817" id="Shape"></path>
        </g>
    </g>
</svg>