<?xml version="1.0" encoding="UTF-8"?>
<svg width="55px" height="75px" viewBox="0 0 55 75" version="1.1" xmlns="http://www.w3.org/2000/svg" xmlns:xlink="http://www.w3.org/1999/xlink">
    <!-- Generator: Sketch 49.2 (51160) - http://www.bohemiancoding.com/sketch -->
    <title>jenkins-seeklogo.com</title>
    <desc>Created with Sketch.</desc>
    <defs></defs>
    <g id="Page-1" stroke="none" stroke-width="1" fill="none" fill-rule="evenodd">
        <g id="latest-Single-course-page-" transform="translate(-771.000000, -2422.000000)" fill-rule="nonzero">
            <g id="jenkins-seeklogo.com" transform="translate(771.000000, 2422.000000)">
                <path d="M53.5202185,36.17041 C53.5202185,51.0117274 41.7656791,63.0543962 27.2578241,63.0543962 C12.749969,63.0543962 0.995429471,51.0117274 0.995429471,36.17041 C0.995429471,21.3290929 12.749969,9.28642417 27.2578241,9.28642417 C41.7656791,9.28642417 53.5202185,21.3290929 53.5202185,36.17041" id="Shape" fill="#D33833"></path>
                <path d="M2.07557634,42.8278011 C2.07557634,42.8278011 0.169434804,14.7989134 25.9870629,13.9932419 L24.1868183,10.9825747 L10.1872676,15.6893924 L6.18437033,20.2902007 L2.68977751,26.9899953 L0.698918564,34.7922878 L1.29194038,40.0079506" id="Shape" fill="#EF3D3A"></path>
                <path d="M9.27655549,17.8307825 C4.68063645,22.5588021 1.82142414,29.0677797 1.82142414,36.2764194 C1.82142414,43.4850594 4.68063645,49.994037 9.27655549,54.7220566 C13.8936539,59.4500763 20.2262797,62.354734 27.2578241,62.354734 C34.2893683,62.354734 40.6219941,59.4500763 45.2390925,54.7220566 C49.8350116,49.994037 52.6942239,43.4850594 52.6942239,36.2764194 C52.6942239,29.0677797 49.8350116,22.5588021 45.2390925,17.8307825 C40.6219941,13.1239647 34.2893683,10.1981051 27.2578241,10.1981051 C20.247459,10.1981051 13.8936539,13.1027629 9.27655549,17.8307825 Z M8.11169123,55.8457564 C3.21926126,50.8421122 0.190614154,43.909097 0.190614154,36.2764194 C0.190614154,28.6437421 3.21926126,21.7107269 8.11169123,16.6858809 C13.0041212,11.6822368 19.7815133,8.56556019 27.2578241,8.56556019 C34.7341347,8.56556019 41.5115268,11.6822368 46.4039567,16.6858809 C51.2963869,21.689525 54.3250339,28.6225402 54.3250339,36.2764194 C54.3250339,43.909097 51.2963869,50.8421122 46.4039567,55.8457564 C41.5115268,60.8706024 34.7341347,63.9660769 27.2578241,63.9660769 C19.7815133,63.9660769 13.0041212,60.8706024 8.11169123,55.8457564 Z" id="Shape" fill="#231F20"></path>
                <polyline id="Shape" fill="#F0D6B7" points="38.3134449 36.3188233 34.3105477 36.9124761 28.9098133 37.5273306 25.4152204 37.612138 22.0053452 37.5061286 19.400285 36.7004573 17.0917358 34.198635 15.291491 29.0889816 14.8890834 27.9864838 12.4958168 27.1808124 11.0979796 24.8698073 10.1025502 21.5623137 11.2038764 18.6576559 13.8089365 17.745975 15.9056922 18.7424634 16.9011216 20.9474591 18.1083446 20.7566422 18.5107523 20.247797 18.1083446 17.9367919 18.0024479 15.0321341 18.5954697 11.0249785 18.5742903 8.73517526 20.3957145 5.80931558 23.5937964 3.49831047 29.1851449 1.10249785 35.3906946 2.01417876 40.791429 5.91532498 43.2905923 9.92248062 44.9002229 12.8271384 45.3026305 20.0357782 44.0954077 26.2479295 41.8927552 31.7604188 39.8171789 34.7074803"></polyline>
                <polyline id="Shape" fill="#335061" points="34.9247488 53.6407607 20.6286873 54.2344132 20.6286873 56.6302259 21.8359103 65.0473729 21.2428885 65.747035 11.2462351 62.3335321 10.5473165 61.1250248 9.55188705 49.8032201 7.20097915 43.0186179 6.69267475 41.407275 14.6984692 35.8947857 17.1976326 34.8982972 19.400285 37.612138 21.3064265 39.3082887 23.509079 40.0079506 24.5045085 40.3047771 25.7117315 45.52044 26.6224434 46.6229378 28.9309926 45.8172662 27.3213621 48.9339429 36.0048959 53.0471079 34.9247488 53.6407607"></polyline>
                <polyline id="Shape" fill="#6D6B6D" points="11.2038764 18.7000596 13.8089365 17.7883787 15.9056922 18.7848672 16.9011216 20.9898628 18.1083446 20.7990459 18.4048555 19.5905387 17.8118337 17.2795336 18.4048555 11.7670443 17.8965511 8.75637714 19.6967959 6.65739083 23.5937964 3.56191611 22.4924701 2.05658252 16.9858391 4.77042338 14.6772899 6.57258331 13.3853495 9.37123169 11.3944905 12.0850725 10.8014687 15.2865567 11.2038764 18.7000596"></polyline>
                <path d="M15.3126704,9.28642417 C15.3126704,9.28642417 16.8164042,5.57609487 22.8101604,3.77393494 C28.8039165,1.971775 23.1066714,2.48062015 23.1066714,2.48062015 L16.6046108,4.9824422 L14.1054474,7.48426423 L13.0041212,9.47724111 L15.3126704,9.28642417" id="Shape" fill="#DCD9D8"></path>
                <path d="M12.3052026,18.0003975 C12.3052026,18.0003975 10.2084469,10.9825747 18.2142414,9.98608626 L17.9177305,8.77757902 L12.4110994,10.0708938 L10.8014687,15.2865567 L11.2038764,18.7000596 L12.3052026,18.0003975" id="Shape" fill="#DCD9D8"></path>
                <path d="M15.5032845,27.3080235 L16.8164042,26.0359107 C16.8164042,26.0359107 17.4094261,26.0995162 17.5153228,26.7991784 C17.6212196,27.4988406 17.9177305,33.8170013 22.2171387,37.2093024 C22.6195463,37.5273306 19.0190567,36.7004573 19.0190567,36.7004573 L15.8209748,31.696813" id="Shape" fill="#F7E4CD"></path>
                <path d="M33.9081401,25.3998543 C33.9081401,25.3998543 34.141113,22.3679853 34.9671076,22.6012058 C35.7931021,22.8344265 35.7931021,23.6613 35.7931021,23.6613 C35.7931021,23.6613 33.8022434,24.9334128 33.9081401,25.3998543" id="Shape" fill="#F7E4CD"></path>
                <path d="M42.2104455,14.2900682 C42.2104455,14.2900682 40.5584561,14.6292984 40.4102006,16.0922282 C40.2619453,17.555158 42.2104455,16.3890545 42.5069563,16.2830451" id="Shape" fill="#F7E4CD"></path>
                <path d="M30.1170362,14.3960776 C30.1170362,14.3960776 27.914384,14.692904 27.914384,16.0922282 C27.914384,17.4915524 30.4135473,17.385543 31.1124657,16.7918903" id="Shape" fill="#F7E4CD"></path>
                <path d="M16.5198933,20.9050553 C16.5198933,20.9050553 12.7287896,18.5940502 12.326382,20.7990459 C11.9239743,23.0040417 11.0344416,24.5941827 12.9194038,26.9051878 L11.6274634,26.5023521 L10.4202404,23.4068774 L10.0178328,20.3962102 L12.326382,18.0003975 L14.9314421,18.1912145 L16.4351759,19.3997217 L16.5198933,20.9050553" id="Shape" fill="#F7E4CD"></path>
                <path d="M18.3201381,14.5868946 C18.3201381,14.5868946 20.0144862,5.76691182 28.6133024,4.07076128 C35.6872054,2.67143709 39.4147711,4.36758763 40.8126084,5.97893062 C40.8126084,5.97893062 34.5011618,-1.52653548 28.5074057,0.763267739 C22.5136495,3.07427284 18.1083446,7.27224541 18.2142414,9.96488438 C18.3836762,14.5868946 18.3201381,14.5868946 18.3201381,14.5868946" id="Shape" fill="#F7E4CD"></path>
                <path d="M41.5115268,6.97541906 C41.5115268,6.97541906 38.6099559,6.86940966 38.5040592,9.47724111 C38.5040592,9.47724111 38.5040592,9.88007686 38.6946733,10.2829126 C38.6946733,10.2829126 41.0032225,7.67508115 42.4010596,9.07440536" id="Shape" fill="#F7E4CD"></path>
                <path d="M28.8250959,10.5585371 C28.8250959,10.5585371 28.3167916,6.57258331 24.9280955,8.88358842 C22.725443,10.388922 22.9372365,12.4879083 23.3184649,12.8907441 C23.7208725,13.2935798 23.6149758,14.0992513 23.9114866,13.5480024 C24.2079975,12.9967535 24.1232801,11.1945935 25.2246063,10.6857484 C26.3047532,10.1769032 28.1261775,9.62565427 28.8250959,10.5585371" id="Shape" fill="#F7E4CD"></path>
                <path d="M19.4214644,37.612138 L10.0178328,41.8101107 C10.0178328,41.8101107 13.9148332,57.329888 11.9239743,62.1427152 L10.5261372,61.6338701 L10.4202404,55.7185451 L7.81518032,44.5239515 L6.7138541,41.4284767 L16.5198933,34.8134897 L19.4214644,37.612138" id="Shape" fill="#49728B"></path>
                <path d="M20.3745351,46.1989002 L21.7088341,47.8314451 L21.7088341,53.8315776 L20.1203829,53.8315776 C20.1203829,53.8315776 19.9297688,49.6336049 19.9297688,49.1247598 C19.9297688,48.6159147 20.1203829,46.8137547 20.1203829,46.8137547" id="Shape" fill="#49728B"></path>
                <polyline id="Shape" fill="#49728B" points="20.4168938 54.7432585 15.9056922 54.9340754 17.1976326 55.8457564 20.3957145 56.3546015"></polyline>
                <polyline id="Shape" fill="#335061" points="35.8142815 53.7467701 39.5206678 53.6407607 40.43138 62.8423774 36.6402763 63.3512224 35.8142815 53.7467701"></polyline>
                <path d="M36.809711,53.7467701 L42.4010596,53.4499436 C42.4010596,53.4499436 44.7096088,47.6406282 44.7096088,47.3438017 C44.7096088,47.0469754 46.7004678,38.9266547 46.7004678,38.9266547 L42.1892661,34.219837 L41.278554,33.4141656 L38.8852874,35.8099782 L38.8852874,45.1176043 L36.809711,53.7467701" id="Shape" fill="#335061"></path>
                <path d="M39.3088744,53.0471079 L35.8142815,53.7467701 L36.3225861,56.5454184 C37.6145264,57.1390712 39.8171789,55.5489299 39.8171789,55.5489299" id="Shape" fill="#49728B"></path>
                <polyline id="Shape" fill="#49728B" points="39.4147711 35.5131517 46.4251361 40.7288147 46.6157502 38.3330021 41.3209127 33.4353673 39.4147711 35.5131517"></polyline>
                <polyline id="Shape" fill="#FFFFFF" points="23.8903072 73.4645199 21.8147309 65.0473729 20.7769428 58.8352216 20.607508 54.2344132 29.9899603 53.7255682 35.8142815 53.7255682 35.2847978 64.2417015 36.19551 72.3620222 36.0896132 73.8673558 28.4862263 74.4610083 23.8903072 73.4645199"></polyline>
                <path d="M34.5223412,53.6407607 C34.5223412,53.6407607 34.0140369,64.0508846 35.5177707,71.4715432 C35.5177707,71.4715432 32.510303,73.3797124 28.1261775,73.8673558 L36.5343796,73.5705295 L37.5298091,72.9768767 L36.3225861,56.5666203 L36.0048959,53.0471079" id="Shape" fill="#DCD9D8"></path>
                <polyline id="Shape" fill="#FFFFFF" points="40.5796355 62.0579077 44.4766359 60.9554098 51.8682292 60.5525741 52.9695554 57.1390712 50.9786966 51.2237462 48.6701474 50.9269197 45.4720654 51.9234081 42.422239 53.4287419 40.791429 53.1319154 39.5206678 53.6407607"></polyline>
                <path d="M40.5160973,60.0437288 C40.5160973,60.0437288 43.1211574,58.8352216 43.5235652,58.941231 L42.422239,53.4287419 L43.7141793,52.9198966 C43.7141793,52.9198966 44.6248915,58.1355596 44.6248915,58.7292122 C44.6248915,58.7292122 50.21624,59.0260385 50.7245443,59.0260385 C50.7245443,59.0260385 51.9317673,56.7150335 51.6352565,54.3192207 L52.7365825,57.5207049 L52.8424793,59.322865 L51.2328487,61.7186776 L49.432604,62.1215132 L46.4251361,62.0155038 L45.4297066,60.7221891 L41.9351138,61.2310342 L40.8337876,61.6338701" id="Shape" fill="#DCD9D8"></path>
                <path d="M36.5767381,52.9410985 L34.3740857,47.3438017 L32.0655367,44.0363081 C32.0655367,44.0363081 32.573841,42.636984 33.2727596,42.636984 L35.5813087,42.636984 L37.7839611,43.4426556 L37.593347,47.1529848 L36.5767381,52.9410985" id="Shape" fill="#FFFFFF"></path>
                <path d="M37.0215045,51.0329293 C37.0215045,51.0329293 34.2258304,45.6264494 34.2258304,44.8207778 C34.2258304,44.8207778 34.7341347,43.6122705 35.4330533,43.909097 C36.1319718,44.2059233 37.6357058,45.0115949 37.6357058,45.0115949 L37.6357058,43.1034254 L34.2258304,42.4037632 L31.9172811,42.7005897 L35.8142815,51.94461 L36.6190969,52.0506194" id="Shape" fill="#DCD9D8"></path>
                <polyline id="Shape" fill="#FFFFFF" points="24.77984 37.8241568 22.0053452 37.5273306 19.400285 36.721659 19.400285 37.63334 20.671046 39.0326641 24.6739432 40.8348241"></polyline>
                <path d="M20.3109971,38.1209833 C20.3109971,38.1209833 23.4031823,39.4142981 24.4197912,39.1174716 L24.5256879,40.3259788 L21.7300135,39.7323263 L20.0356655,38.523819 L20.3109971,38.1209833" id="Shape" fill="#DCD9D8"></path>
                <path d="M40.5796355,42.9762141 C38.8852874,42.9338105 37.3391948,42.7217915 36.0048959,42.3401577 C36.0896132,41.7889088 35.9201783,41.2588618 36.0684338,40.8560261 C36.449662,40.5804015 37.0638633,40.5804015 37.6357058,40.5167959 C37.1485807,40.2835752 36.449662,40.1775658 35.8989991,40.3259788 C35.8778197,39.9443451 35.7083848,39.7111244 35.602488,39.4142981 C36.555559,39.0750679 38.80057,36.8488703 40.071331,37.5697344 C40.6855323,37.9301662 40.9396843,39.9231432 40.9820431,40.9196316 C41.0244019,41.7253032 40.8973258,42.5309746 40.5796355,42.9762141" id="Shape" fill="#D33833"></path>
                <path d="M40.5796355,42.9762141 C38.8852874,42.9338105 37.3391948,42.7217915 36.0048959,42.3401577 C36.0896132,41.7889088 35.9201783,41.2588618 36.0684338,40.8560261 C36.449662,40.5804015 37.0638633,40.5804015 37.6357058,40.5167959 C37.1485807,40.2835752 36.449662,40.1775658 35.8989991,40.3259788 C35.8778197,39.9443451 35.7083848,39.7111244 35.602488,39.4142981 C36.555559,39.0750679 38.80057,36.8488703 40.071331,37.5697344 C40.6855323,37.9301662 40.9396843,39.9231432 40.9820431,40.9196316 C41.0244019,41.7253032 40.8973258,42.5309746 40.5796355,42.9762141 Z" id="Shape" stroke="#D33833" stroke-width="2" fill="#000000"></path>
                <path d="M32.4679442,40.1987677 C32.4679442,40.3259788 32.4679442,40.4531902 32.4467649,40.5804015 C31.9172811,40.9196316 31.0701072,40.9196316 30.4770853,41.2164579 C31.3242592,41.2588618 32.0019985,41.4708806 32.5950204,41.7465049 C32.573841,42.0645333 32.573841,42.4037632 32.5526616,42.7217915 C31.5784115,43.3790498 30.6888788,44.3755382 29.5451939,45.0115949 C28.9945308,45.3084212 27.1095686,46.0716889 26.5377261,45.9232756 C26.2200358,45.8384682 26.177677,45.4356325 26.0506011,45.0539985 C25.7752695,44.2483271 25.139889,42.9338105 25.076351,41.7041013 C25.0128128,40.1563639 24.8433781,37.5485325 26.5165467,37.8665607 C27.8720252,38.1209833 29.4392972,38.7358378 30.4770853,39.3082887 C31.1336451,39.6899224 31.4936941,40.11396 32.4679442,40.1987677" id="Shape" fill="#D33833"></path>
                <path d="M32.4679442,40.1987677 C32.4679442,40.3259788 32.4679442,40.4531902 32.4467649,40.5804015 C31.9172811,40.9196316 31.0701072,40.9196316 30.4770853,41.2164579 C31.3242592,41.2588618 32.0019985,41.4708806 32.5950204,41.7465049 C32.573841,42.0645333 32.573841,42.4037632 32.5526616,42.7217915 C31.5784115,43.3790498 30.6888788,44.3755382 29.5451939,45.0115949 C28.9945308,45.3084212 27.1095686,46.0716889 26.5377261,45.9232756 C26.2200358,45.8384682 26.177677,45.4356325 26.0506011,45.0539985 C25.7752695,44.2483271 25.139889,42.9338105 25.076351,41.7041013 C25.0128128,40.1563639 24.8433781,37.5485325 26.5165467,37.8665607 C27.8720252,38.1209833 29.4392972,38.7358378 30.4770853,39.3082887 C31.1336451,39.6899224 31.4936941,40.11396 32.4679442,40.1987677 Z" id="Shape" stroke="#D33833" stroke-width="2" fill="#000000"></path>
                <path d="M33.421015,42.0433314 C33.2727596,41.195256 33.1033247,40.9620355 33.1668629,40.2199694 C35.4330533,38.7146359 35.8354609,42.8065991 33.421015,42.0433314" id="Shape" fill="#D33833"></path>
                <path d="M33.421015,42.0433314 C33.2727596,41.195256 33.1033247,40.9620355 33.1668629,40.2199694 C35.4330533,38.7146359 35.8354609,42.8065991 33.421015,42.0433314 Z" id="Shape" stroke="#D33833" stroke-width="2" fill="#000000"></path>
                <path d="M36.6826349,42.7217915 C36.6826349,42.7217915 35.9837165,41.7253032 36.4920208,41.4284767 C37.0003251,41.1316504 37.4874503,41.4284767 37.7839611,40.9196316 C38.0804722,40.4107865 37.7839611,40.11396 37.8898579,39.5203075 C37.9957546,38.9266547 38.4828798,38.8206453 38.9911841,38.7146359 C39.4994887,38.6086265 40.8973258,38.4178096 41.0879399,38.9054528 L40.4949179,37.1032929 L39.2876952,36.7004573 L35.4965913,38.9054528 L35.3059772,40.0079506 L35.3059772,42.2129464" id="Shape" fill="#EF3D3A"></path>
                <path d="M26.177677,46.029285 C26.0506011,44.4603459 25.923525,42.9126085 25.7964488,41.3436692 C25.5846554,39.0114622 26.347112,39.4142981 28.3803295,39.4142981 C28.6980198,39.4142981 30.2864712,39.7747299 30.3923679,40.0079506 C30.943031,41.1316504 29.4816558,40.8772278 31.0277484,41.7253032 C32.3196887,42.4249652 34.6282379,41.3012654 34.0987542,39.7111244 C33.8022434,39.3506923 32.573841,39.605115 32.1290746,39.3718942 C31.3454386,38.9690585 30.5618026,38.5662226 29.7781668,38.163387 C28.7827373,37.6545419 26.4953675,36.8912741 25.4363998,37.612138 C22.7466224,39.4355 25.6058348,44.0151064 26.5589055,45.9232756" id="Shape" fill="#EF3D3A"></path>
                <path d="M28.8250959,10.5585371 C26.0929597,9.92248062 24.7374814,11.7034387 23.9114866,13.5480024 C23.1702094,13.3783873 23.4667202,12.360697 23.6573345,11.8518519 C24.1444595,10.5161333 26.1141391,8.71397335 27.7237697,8.96839594 C28.4015089,9.05320346 29.3334005,9.68925991 28.8250959,10.5585371" id="Shape" fill="#231F20"></path>
                <path d="M42.1045487,13.6540118 L42.2316249,13.6540118 C42.845826,14.9261247 43.3753097,16.2830451 44.1589457,17.4279467 C43.629462,18.6576559 40.2195865,19.71775 40.2619453,17.555158 C41.0032225,17.2371298 42.2739834,17.4915524 42.9305433,17.0675147 C42.5493151,16.0286225 42.0198314,15.1381435 42.1045487,13.6540118" id="Shape" fill="#231F20"></path>
                <path d="M30.2017538,13.6964156 C30.7947755,14.7777115 30.9853896,15.9014113 31.8113844,16.7070828 C32.1926126,17.0675147 32.9127106,17.5127543 32.5526616,18.5304446 C32.4679442,18.7636653 31.8537432,19.2937123 31.4936941,19.3997217 C30.2017538,19.7813556 27.1731065,19.4845293 28.1897154,17.8519844 C29.2698623,17.8943881 30.7100581,18.5516465 31.5148735,17.7671768 C30.9006722,16.7918903 29.799346,14.8413172 30.2017538,13.6964156" id="Shape" fill="#231F20"></path>
                <path d="M41.6174236,24.5941827 C39.6689234,25.8450938 37.4874503,27.223216 34.2681889,26.9051878 C33.5904499,26.311535 33.3151182,24.9758167 33.9928575,24.1065395 C34.3317271,24.7001921 34.1199336,25.80269 35.0941837,25.9723051 C36.9156078,26.2903333 39.0335429,24.8486053 40.3466626,24.360962 C41.1514778,22.9828397 40.2831245,22.4951964 39.5418472,21.6047175 C38.0381134,19.8025575 36.0472544,17.555158 36.1107926,14.862519 C36.7249937,14.4172795 36.7673525,15.5409793 36.8520698,15.7317962 C37.6357058,17.555158 39.6053854,19.9085669 41.0244019,21.4775062 C41.3844507,21.85914 41.9562932,22.2407739 42.0198314,22.4951964 C42.2104455,23.2160605 41.5327062,24.1065395 41.6174236,24.5941827" id="Shape" fill="#231F20"></path>
                <path d="M15.8209748,23.279666 C15.2067736,22.9192342 15.0585182,21.3926985 14.3384203,21.3502948 C13.3006321,21.2866892 13.4912462,23.3432718 13.4912462,24.5517791 C12.7923277,23.9157224 12.6652516,21.9227457 13.173556,20.9050553 C12.5805342,20.608229 12.326382,21.2230835 11.9875123,21.4351024 C12.4322787,18.3608295 16.498714,20.0145763 15.8209748,23.279666" id="Shape" fill="#231F20"></path>
                <path d="M42.845826,25.8874974 C41.9351138,27.6260517 40.6431735,29.5342212 37.9745754,29.5978267 C37.9110373,29.0465778 37.8686785,28.1773006 37.9745754,27.8380707 C40.0289724,27.6260517 41.2997333,26.5871596 42.845826,25.8874974" id="Shape" fill="#231F20"></path>
                <path d="M30.0534983,27.0111972 C31.7478462,27.9016763 34.8823902,28.0076857 37.2121186,27.9440801 C37.3391948,28.4529252 37.3391948,29.0889816 37.3391948,29.7038361 C34.3529065,29.8310474 30.8371343,29.0889816 30.0534983,27.0111972" id="Shape" fill="#231F20"></path>
                <path d="M29.735808,28.664944 C30.9218516,31.6332075 34.9671076,31.2939774 38.376983,31.2091699 C38.2287275,31.5908036 37.9110373,32.0572451 37.4874503,32.2056583 C36.386124,32.6508979 33.3786564,32.9901278 31.8537432,32.1844564 C30.9006722,31.6756111 30.2652918,30.5095077 29.735808,29.8310474 C29.5028352,29.5130192 28.2320742,28.6861459 29.735808,28.664944" id="Shape" fill="#231F20"></path>
                <path d="M41.4691683,45.0115949 C40.0925104,47.3862056 38.7582112,49.824422 37.1274013,51.9022064 C37.8051405,49.8880276 38.1016514,46.4957265 38.2075481,43.909097 C39.647744,43.2306368 40.8761464,44.05751 41.4691683,45.0115949" id="Shape" fill="#81B0C4"></path>
                <path d="M48.9031203,53.5347513 C47.3570277,53.8527795 46.2768808,55.358113 44.7519676,55.2521036 C45.5991416,54.0860002 47.0393374,53.5771549 48.9031203,53.5347513" id="Shape" fill="#231F20"></path>
                <path d="M49.5808593,55.9517658 C48.3100984,56.0789769 46.8275439,56.2909957 45.5567828,56.1849863 C46.1709841,55.2521036 48.5007125,55.5913338 49.5808593,55.9517658" id="Shape" fill="#231F20"></path>
                <path d="M50.0256257,58.0507519 C48.6066092,58.0719538 46.8487231,58.0507519 45.4932448,57.9447425 C46.29806,57.0754654 49.1149138,57.6267143 50.0256257,58.0507519" id="Shape" fill="#231F20"></path>
                <path d="M38.80057,63.77526 C39.0123635,65.5562182 39.7112822,67.358378 39.6265646,69.3089511 C38.8429288,69.5633737 38.3981624,69.7965944 37.3391948,69.7965944 C37.2756568,68.1428476 37.0426839,65.5986218 37.1062219,64.0084808 C37.6145264,64.0508846 38.376983,63.6480487 38.80057,63.77526" id="Shape" fill="#DCD9D8"></path>
                <path d="M36.5132002,37.4849267 C35.7931021,37.9513682 35.2000805,38.523819 34.5011618,39.0326641 C32.9762486,39.1174716 32.150254,38.9266547 31.0489278,38.0573776 C31.0701072,37.993772 31.1760039,38.0149739 31.1760039,37.9301662 C32.8068139,38.6510303 34.8823902,37.63334 36.5132002,37.4849267" id="Shape" fill="#F0D6B7"></path>
                <path d="M27.9991013,48.5735109 C28.4438677,46.6441397 30.2017538,45.6264494 31.790205,44.5663553 C33.421015,46.6441397 34.4164445,49.3155767 35.5177707,51.9022064 C32.9127106,51.1177368 30.2652918,49.8668256 27.9991013,48.5735109" id="Shape" fill="#81B0C4"></path>
                <path d="M37.1062219,64.0296827 C37.0426839,65.6198237 37.2544774,68.1428476 37.3391948,69.8177964 C38.3981624,69.8177964 38.8429288,69.5845756 39.6265646,69.330153 C39.7112822,67.3795799 39.0123635,65.5774201 38.80057,63.796462 C38.376983,63.6480487 37.6145264,64.0508846 37.1062219,64.0296827 Z M20.7557634,55.0400848 C21.4546821,61.4218513 22.4501116,66.7647254 24.292715,72.4256278 C28.3803295,73.6765389 33.2939388,73.7825483 36.9156078,72.6588485 C36.2590479,69.4785662 36.5343796,65.5986218 36.1531512,62.185119 C35.8566403,59.6196912 36.0048959,57.0542635 35.602488,54.4464321 C31.2183625,53.5347513 25.0339922,54.2344132 20.7557634,55.0400848 Z M36.6402763,54.4888359 C36.5979175,57.2238786 36.7673525,59.9377194 36.979146,62.6727622 C38.0381134,62.5243489 38.7370321,62.4183395 39.7112822,62.185119 C39.3935919,59.5560857 39.4359505,56.5666203 38.7793906,54.2344132 C38.0381134,54.2556152 37.3815535,54.2344132 36.6402763,54.4888359 Z M41.9562932,54.0435964 C41.4479889,53.937587 40.8761464,54.0435964 40.4102006,54.0435964 C40.6431735,56.269794 41.1726572,58.7292122 41.3632715,61.0826212 C42.1045487,61.1038229 42.5069563,60.743391 43.1211574,60.6373816 C43.1635162,58.5807991 42.9517227,55.739747 41.9562932,54.0435964 Z M50.0256257,61.4218513 C51.5928977,61.0402173 52.5671478,59.1320479 52.1223814,57.1602731 C51.8258706,55.8457564 51.317566,53.3439342 50.7457237,52.495859 C50.3433159,51.8810045 49.2208105,51.054131 48.3100984,51.6265818 C46.8487231,52.5594647 44.2860218,52.8350891 43.2270542,53.9587889 C43.7565381,55.739747 43.9259728,58.1567613 44.1377663,60.4041609 C45.9591904,60.5101703 48.1830222,59.8953158 49.7079355,60.5525741 C48.648968,60.8918041 47.2934895,60.8918041 46.3827776,61.4006494 C47.1452342,61.7610812 48.8819409,61.6974756 50.0256257,61.4218513 Z M35.4965913,51.9022064 C34.3952651,49.3155767 33.3998356,46.6441397 31.7690256,44.5663553 C30.1805744,45.6264494 28.4438677,46.6441397 27.9779219,48.5735109 C30.2652918,49.8668256 32.9127106,51.1177368 35.4965913,51.9022064 Z M38.2075481,43.909097 C38.1016514,46.4957265 37.8051405,49.8880276 37.1274013,51.9022064 C38.7582112,49.8032201 40.0925104,47.3862056 41.4691683,45.0115949 C40.8761464,44.05751 39.647744,43.2306368 38.2075481,43.909097 Z M35.1365423,42.8278011 C34.5223412,42.7641953 33.9928575,43.548665 33.1880421,43.2094348 C32.997428,43.4214536 32.8279933,43.6334724 32.637379,43.8454912 C34.4164445,46.0080831 35.2424392,49.0611543 36.6190969,51.584178 C37.3603742,49.1459618 37.2756568,46.4957265 37.4450915,43.8454912 C36.4284828,43.8878951 35.8566403,42.8914066 35.1365423,42.8278011 Z M33.1668629,40.2199694 C33.1033247,40.9620355 33.2727596,41.195256 33.421015,42.0433314 C35.8354609,42.8065991 35.4330533,38.7146359 33.1668629,40.2199694 Z M30.4770853,39.3294906 C29.4392972,38.7570397 27.8720252,38.142185 26.5165467,37.8877626 C24.8433781,37.5697344 25.0128128,40.1775658 25.076351,41.7253032 C25.139889,42.9550122 25.7752695,44.2483271 26.0506011,45.0752004 C26.177677,45.4568342 26.2200358,45.8596701 26.5377261,45.9444776 C27.1095686,46.0716889 29.01571,45.3296231 29.5451939,45.0327966 C30.6888788,44.4179421 31.5784115,43.4214536 32.5526616,42.7429934 C32.573841,42.4249652 32.573841,42.085735 32.5950204,41.7677068 C32.0019985,41.4708806 31.3454386,41.2800637 30.4770853,41.2376598 C31.0489278,40.9408335 31.9172811,40.9408335 32.4467649,40.6016034 C32.4467649,40.4743921 32.4467649,40.3471808 32.4679442,40.2199694 C31.4936941,40.11396 31.1336451,39.6899224 30.4770853,39.3294906 Z M20.5227906,37.5273306 C19.6544372,38.4178096 22.9584159,39.605115 23.996204,39.6687205 C23.996204,39.1174716 24.3138944,38.5874246 24.2503562,38.1845889 C23.0007747,37.9725701 21.3699645,38.1209833 20.5227906,37.5273306 Z M31.1971833,37.9301662 C31.1971833,38.0149739 31.0912866,37.993772 31.0701072,38.0573776 C32.1926126,38.9266547 33.0186074,39.1174716 34.5223412,39.0326641 C35.2000805,38.5450209 35.8142815,37.9513682 36.5343796,37.4849267 C34.8823902,37.63334 32.8068139,38.6510303 31.1971833,37.9301662 Z M40.9820431,40.8984297 C40.9396843,39.9231432 40.6855323,37.9089643 40.071331,37.5485325 C38.80057,36.8064667 36.555559,39.053866 35.602488,39.3930962 C35.7083848,39.6899224 35.8778197,39.9231432 35.8989991,40.3047771 C36.4708414,40.1563639 37.1485807,40.2623733 37.6357058,40.495594 C37.0638633,40.5591996 36.449662,40.5591996 36.0684338,40.8348241 C35.9413577,41.2376598 36.1107926,41.7677068 36.0048959,42.3189558 C37.3391948,42.7005897 38.8852874,42.8914066 40.5796355,42.9550122 C40.8973258,42.5309746 41.0244019,41.7253032 40.9820431,40.8984297 Z M19.0614154,38.3754058 C18.7860838,38.1845889 16.9434804,35.7887763 16.6893282,35.8947857 C13.3641701,37.2093024 10.2508056,39.4779036 7.47631071,41.6404955 C10.1237295,47.3438017 11.2038764,54.3192207 11.3944905,61.0402173 C14.4231376,62.4607434 17.0917358,64.5173259 21.2217091,64.7293447 C20.7345841,61.3582455 20.3109971,58.3263765 20.0356655,55.1460942 C18.9978774,54.7008547 17.5153228,55.1672962 16.5410727,55.0188829 C16.5410727,53.8527795 18.0236272,54.5100378 18.1507033,53.7255682 C18.2354207,53.1319154 17.3247087,53.0895118 17.6212196,52.1566288 C18.3836762,52.4322534 18.7860838,53.0471079 19.5908992,53.2803286 C20.3321764,51.6689857 19.5908992,48.8067316 19.6967959,47.4498111 C19.7179753,47.1953887 19.823872,46.050487 20.3957145,46.2413038 C20.9040189,46.410919 20.3745351,49.3155767 20.4168938,50.5876897 C20.4592525,51.7749951 20.2686384,52.8986947 20.7557634,53.6407607 C24.7374814,53.0895118 28.7827373,52.7502816 33.1033247,52.6230703 C32.150254,52.2202346 31.0277484,51.8386006 29.799346,51.1389387 C29.121607,50.7573047 27.0248512,49.972835 26.8342369,49.3367786 C26.5165467,48.3190882 27.6390523,47.7890412 27.8296664,46.9197641 C25.8176282,48.022262 25.4363998,45.8596701 24.9492749,44.3543365 C24.5256879,42.9762141 24.2715356,41.937322 24.1656389,41.1528524 C22.4077528,40.2623733 20.5439699,39.4355 19.0614154,38.3754058 Z M39.224157,36.17041 C41.998652,34.8346917 42.5069563,41.195256 41.4056301,43.2518387 C41.575065,43.8666932 42.1469073,44.0999139 42.3798802,44.6511628 C40.8337876,47.4286092 39.1182603,50.0152389 37.5298091,52.7502816 C38.6946733,52.0082158 40.3890212,52.6230703 41.7656791,52.0718214 C42.2739834,51.8810045 42.6340325,50.7149009 43.0152607,49.7820182 C44.0742283,47.2377923 45.1755546,44.0151064 45.6626795,41.5980919 C45.7685763,41.0468429 46.0862665,39.8383357 46.0015491,39.3506923 C45.874473,38.4602132 44.6884294,37.8029549 44.0742283,37.2729079 C42.9517227,36.2552177 42.2528041,35.3859406 41.0667605,34.4318558 C40.6219941,35.1315179 39.6053854,35.5979594 39.224157,36.17041 Z M12.7287896,11.5550255 C11.4156699,13.0179553 11.6910014,15.7317962 11.8392569,17.6823693 C14.2325235,16.1770357 17.3882467,17.8095806 17.3670674,20.3538064 C18.5107523,20.3326045 17.7906544,18.9332803 17.5788609,18.0215994 C16.9011216,15.0745379 18.7225458,11.8942556 17.6635783,9.20161665 C15.6091813,9.37123169 13.9360126,10.1981051 12.7287896,11.5550255 Z M22.1747799,3.09547472 C19.1884915,3.94355 15.3550291,6.1273438 14.1266267,8.81998278 C15.0796975,8.67156959 15.7362574,8.20512821 16.6681488,8.14152256 C17.0281978,8.12032068 17.4941435,8.28993573 17.8965511,8.18392632 C18.7013664,7.9719075 19.400285,6.14854568 20.0144862,5.47008547 C20.607508,4.81282714 21.3276059,4.51600079 21.8147309,3.9223481 C22.1324211,3.77393494 22.5983669,3.77393494 22.6195463,3.30749355 C22.4924701,3.15908036 22.3442148,3.05307096 22.1747799,3.09547472 Z M37.7416026,3.90114622 C34.6282379,2.14139004 29.375759,0.826873385 26.0717803,2.48062015 C23.4031823,3.8163387 19.8026927,6.0213344 18.5742903,8.7987809 C19.7179753,11.4914199 18.2354207,13.9508381 18.129524,16.6858809 C18.0871653,18.1488107 18.8072632,19.3997217 18.8708012,20.9898628 C18.4683936,21.6471212 17.28235,21.7107269 16.4563553,21.6683231 C16.1810237,20.2689989 15.6938987,18.7000596 14.2537029,18.5304446 C12.2204852,18.2972239 10.7167513,19.9933744 10.6320339,21.7531306 C10.5261372,23.830915 12.2204852,27.2656199 14.6349312,27.0323991 C15.5668226,26.9475917 15.7997954,26.0147088 16.8164042,26.0147088 C17.3670674,27.1172066 15.9692302,27.4564368 15.8209748,28.2409064 C15.7786161,28.4529252 15.9268715,29.2373949 16.0327683,29.6190286 C16.4775346,31.4211887 17.4517848,33.7745974 18.4048555,35.1527199 C19.6332579,36.9124761 22.0265244,37.1668985 24.6104053,37.3365137 C25.076351,36.3400252 26.770699,36.4248327 27.8720252,36.6792553 C26.5377261,36.1492083 25.3093237,34.8770953 24.292715,33.7533955 C23.1278506,32.4600808 21.941807,31.0819585 21.878269,29.3858079 C24.1021007,32.4600808 25.923525,35.1527199 29.9476015,36.5096402 C32.997428,37.5273306 36.555559,36.0431989 38.9064668,34.3894521 C39.8807169,33.7109919 40.4525594,32.608494 41.1514778,31.6332075 C43.7353587,27.9016763 44.9425817,22.6012058 44.6884294,17.4491486 C44.5825327,15.3289604 44.5825327,13.2087723 43.8624348,11.7882462 C43.1211574,10.3041145 40.6008147,8.94719406 39.1182603,10.3041145 C38.8429288,8.84118466 40.3466626,7.95070562 42.1045487,8.48075267 C40.854967,6.84820778 39.5418472,4.91883654 37.7416026,3.90114622 Z M43.5447446,51.8386006 C45.9803698,50.6300934 50.5127509,48.5947128 52.0164847,51.8386006 C52.5883272,53.0471079 53.2448871,55.0612868 53.5202185,56.3121976 C53.9226263,58.0507519 53.0754521,61.7398795 51.2752075,62.3123301 C49.6867561,62.8211754 47.8441526,62.7999735 45.9380112,62.4183395 C45.7050383,62.2275226 45.4720654,61.9094944 45.2814513,61.5702643 C43.9259728,61.5278607 42.6340325,61.6338701 41.575065,62.2063207 C41.6809618,63.2240111 41.0032225,63.3724244 40.3466626,63.5844432 C39.8807169,65.4714107 41.2997333,67.9308288 40.9608637,69.6269795 C40.7278908,70.8566885 39.224157,71.0475056 38.1228308,71.2595244 C38.0804722,71.9379844 38.1651895,72.5104353 38.2499069,73.0828861 C37.9957546,74.0157688 36.8732492,74.545816 35.7931021,74.6730271 C32.2561508,75.097065 26.8977751,75.2878818 23.509079,74.0581726 C22.5560083,71.7259656 21.8147309,68.9061154 21.031095,66.2558801 C17.7271163,66.6163122 15.0373388,64.8353541 12.5169961,63.6480487 C11.6486427,63.245213 10.4414198,63.0119923 10.1025502,62.3123301 C9.78485991,61.6338701 9.91193601,60.3405551 9.82721861,59.1320479 C9.63660445,56.0153714 9.4459903,53.0047043 8.64117497,49.824422 C8.28112602,48.382694 7.62456615,47.1317829 7.1797998,45.7536607 C6.7562128,44.4815476 6.03611488,42.8914066 5.84550072,41.6192938 C5.57016916,39.7323263 7.34923461,39.6263169 8.47174018,38.7994434 C10.2296263,37.5273306 11.606284,36.8276684 13.5124256,35.6827669 C14.084268,35.3435368 15.7786161,34.4954615 15.9692302,34.0926256 C16.3504585,33.3081562 15.3126704,32.2056583 15.0373388,31.5908036 C14.5925725,30.6155171 14.3595996,29.7886438 14.2960616,28.834559 C12.7076103,28.5801365 11.4792079,27.6260517 10.75911,26.5659577 C9.55188705,24.7849996 8.70471302,21.4987079 9.76368056,19.0180879 C9.84839796,18.8272709 10.2508056,18.4244352 10.3143437,18.1276088 C10.4414198,17.5339561 10.0813708,16.7494865 10.0601915,16.1134301 C9.95429471,12.8695422 10.6108546,10.0708938 12.7923277,9.09560724 C13.6818604,5.55489299 16.8587629,4.38878951 19.8450514,2.62903333 C20.9675569,1.971775 22.1959593,1.54773736 23.4667202,1.08129597 C28.0202807,-0.593652686 35.0306455,-0.275624462 38.8217494,2.58662957 C40.43138,3.79513682 42.9940815,6.36056451 43.9047934,8.22633009 C46.3404188,13.1239647 46.1498047,21.3290929 44.4554565,27.3080235 C44.2224837,28.1136951 43.9047934,29.2797985 43.4388479,30.255085 C43.1211574,30.9335453 42.1257281,32.2692639 42.2316249,32.8629167 C42.3587008,33.4777712 44.5189947,35.110316 44.9849403,35.5555556 C45.810935,36.3612271 47.3993862,37.4213212 47.5264624,38.4390115 C47.6747179,39.5203075 47.0605166,41.0044391 46.7428264,42.0433314 C45.7262177,45.52044 44.7096088,48.7219241 43.5447446,51.8386006 Z" id="Shape" fill="#231F20"></path>
                <path d="M27.3425415,27.753263 C27.4696176,27.5836481 28.1897154,27.3080235 29.2063243,27.7956669 C29.2063243,27.7956669 27.9991013,27.9864838 28.1049981,30.0006626 L27.5966935,29.8946532 C27.6178729,29.9158551 27.0883892,28.0924932 27.3425415,27.753263" id="Shape" fill="#F7E4CD"></path>
                <path d="M36.1107926,44.969191 C36.1107926,45.2660173 35.8566403,45.52044 35.5601295,45.52044 C35.2636184,45.52044 35.0094664,45.2660173 35.0094664,44.969191 C35.0094664,44.6723647 35.2636184,44.4179421 35.5601295,44.4179421 C35.8778197,44.4179421 36.1107926,44.6723647 36.1107926,44.969191" id="Shape" fill="#1D1919"></path>
                <path d="M36.6614557,47.5346188 C36.6614557,47.8314451 36.4073034,48.0858675 36.1107926,48.0858675 C35.8142815,48.0858675 35.5601295,47.8314451 35.5601295,47.5346188 C35.5601295,47.2377923 35.8142815,46.9833699 36.1107926,46.9833699 C36.4284828,46.9833699 36.6614557,47.2165904 36.6614557,47.5346188" id="Shape" fill="#1D1919"></path>
            </g>
        </g>
    </g>
</svg>