<?xml version="1.0" encoding="UTF-8"?>
<svg width="59px" height="69px" viewBox="0 0 59 69" version="1.1" xmlns="http://www.w3.org/2000/svg" xmlns:xlink="http://www.w3.org/1999/xlink">
    <!-- Generator: Sketch 49.2 (51160) - http://www.bohemiancoding.com/sketch -->
    <title>Linux_Tux 2</title>
    <desc>Created with Sketch.</desc>
    <defs></defs>
    <g id="Page-1" stroke="none" stroke-width="1" fill="none" fill-rule="evenodd">
        <g id="latest-Single-course-page-" transform="translate(-161.000000, -2425.000000)">
            <g id="Linux_Tux-2" transform="translate(161.000000, 2425.000000)">
                <polyline id="Fill-2" fill="#FFFFFE" points="20.3542746 17.5943005 20.2419689 9.94119171 24.7955959 7.2746114 31.5572539 2.72098446 34.3361399 2.60867876 37.2277202 5.71670984 38.7860104 16.0449482 36.6735751 19.8194301 27.9036269 19.5944301 20.3542746 17.5943005"></polyline>
                <polyline id="Fill-3" fill="#FFFFFE" points="11.3593264 39.4713731 13.6882124 32.9180052 18.2418394 27.4810881 20.5707254 22.8147668 21.5752591 21.2650259 38.2233161 18.7111399 41.5563472 23.9316062 50.8804404 46.2415803 47.659715 50.232513 39.2189119 64.344171 37.2277202 64.7856218 21.7917098 65.2270725 11.0220207 53.2367876 9.24689119 43.2462435 11.3593264 39.4713731"></polyline>
                <path d="M32.6737047,22.4860104 C32.6737047,22.4860104 32.1195596,22.3733161 33.6696891,22.0356218 C35.2275907,21.7068653 35.2365285,21.3777202 35.6694301,20.9273316 C36.1108808,20.4858808 36.3358808,19.4817358 36.3358808,18.3734456 C36.3358808,17.265544 36.8900259,14.0448187 36.7773316,13.1619171 C36.6735751,12.2700777 34.7775907,8.94559585 34.0069948,8.49559585 C33.2278497,8.05414508 24.5705959,7.2746114 24.5705959,7.2746114 L21.9040155,9.38704663 L19.9042746,11.2659326 L20.3542746,17.265544 C20.3542746,17.265544 19.7915803,19.1525907 19.9042746,19.9231865 C20.0169689,20.7023316 21.1334197,21.594171 21.5752591,22.0356218 C22.0167098,22.4860104 23.6787565,24.2693005 24.2329016,24.8148964 C24.7955959,25.3686528 24.9082902,25.9227979 26.2326425,25.4813472 C27.5659326,25.0398964 28.3450777,25.0398964 29.3496114,24.2607513 C30.3452073,23.4812176 32.6737047,22.4860104 32.6737047,22.4860104" id="Fill-4" fill="#FBD020"></path>
                <path d="M27.5659326,13.0492228 C27.9036269,12.157772 28.3450777,10.4953368 29.1156736,9.94119171 C29.8948187,9.38704663 31.5658031,8.92849741 32.561399,9.04974093 C33.565544,9.16204663 35.4440415,10.1576425 35.8944301,10.9367876 C36.3358808,11.7159326 36.3358808,14.8239637 36.3358808,14.8239637 L36.1108808,17.3778497 L34.5611399,17.265544 L31.2281088,15.9322539 L30.6739637,15.9322539 C30.6739637,15.9322539 30.1198187,16.1487047 28.4492228,15.2658031 C26.7867876,14.3739637 27.2282383,13.9410622 27.5659326,13.0492228" id="Fill-5" fill="#FFFFFE"></path>
                <path d="M24.0164508,15.4908031 C24.0685233,15.4387306 24.1722798,15.3695596 24.3110104,15.2914508 C24.9860104,14.919171 26.4580311,14.3739637 26.4580311,14.3739637 C26.4580311,14.3739637 27.8950777,10.7203368 26.6744819,9.27474093 C25.4624352,7.82875648 22.7958549,8.05414508 22.7958549,8.05414508 C22.7958549,8.05414508 19.9128238,9.71619171 20.0169689,10.3826425 C20.1292746,11.0494819 20.2419689,13.3783679 20.3542746,13.7071244 C20.4584197,14.0448187 20.9084197,17.5943005 20.9084197,17.5943005 L21.9040155,17.1528497 L23.35,16.0449482 C23.35,16.0449482 23.6876943,15.8284974 24.0164508,15.4908031" id="Fill-6" fill="#FFFFFE"></path>
                <path d="M45.2185233,49.0204663 C45.2185233,49.0204663 45.9195596,49.0725389 46.8284974,49.1420984 C47.0624352,49.1591969 47.2963731,49.1677461 47.5299223,49.1766839 C48.7244819,49.2198187 49.7721503,49.4016839 50.8889896,49.5400259 C51.625,49.6266839 52.8455959,50.094171 52.9322539,51.0205959 C53.0534974,52.3884715 52.6551813,53.8946891 53.8151554,54.4573834 C55.0011658,55.2625648 57.6502591,57.1239637 57.6502591,57.1239637 L58.4294041,58.5610104 L56.1009067,60.6734456 L44.6643782,67.5559585 L39.4524611,65.7812176 L39.4524611,61.565285 L39.6689119,55.9033679 L39.1147668,50.7955959 L39.998057,48.7954663 L42.2227979,48.1290155 L45.2185233,49.0204663" id="Fill-7" fill="#FBD020"></path>
                <path d="M12.1474093,46.5275907 C12.034715,46.4234456 10.0089378,47.0207254 9.87914508,47.0467617 C8.93523316,47.1854922 7.74067358,47.834456 7.74067358,48.8650259 C7.74067358,49.3931347 7.69753886,49.938342 7.45505181,50.4143782 C7.26463731,50.786658 6.83173575,51.3493523 6.84028497,51.4705959 C6.69300518,51.8774611 6.42487047,52.4490933 6.05259067,52.6915803 C5.61968912,52.734715 3.69766839,52.9076425 3.69766839,52.9076425 L2.02668394,52.9076425 L1.03108808,54.1196891 L1.81023316,57.3489637 L1.58523316,59.8943005 L0.814637306,62.7858808 L2.69352332,63.7814767 L16.9089378,67.5559585 L20.1292746,66.5603627 L21.7917098,62.4481865 L21.4540155,60.8984456 L19.9042746,57.7904145 C19.9042746,57.7904145 13.1515544,47.9817358 12.1474093,46.5275907" id="Fill-8" fill="#FBD020"></path>
                <path d="M19.384715,11.6813472 C19.1511658,3.93303109 22.1725389,0.513341969 28.4492228,0.401036269 C34.7169689,0.279792746 38.6472798,3.58678756 39.4524611,7.92435233 C40.2490933,12.2529793 39.7901554,17.9580311 41.3919689,20.9187824 C42.9848446,23.8884715 44.0064767,26.165285 46.7507772,29.5849741 C49.4865285,33.0046632 51.1920984,36.4849741 51.988342,40.709456 C52.7935233,44.9257772 53.2439119,46.9169689 51.1920984,49.0900259 C49.140285,51.2541451 45.4952073,54.7865285 42.7598446,50.7955959 C41.3830311,48.7954663 41.2361399,46.3111399 43.5560881,45.7830311 C45.036658,45.436399 46.1014249,45.5490933 47.2007772,46.1203368 C48.3090674,46.6919689 48.5686528,46.4234456 47.2443005,45.436399 C45.9110104,44.4497409 45.642487,45.3586788 46.1014249,43.7654145 C46.5603627,42.1725389 47.1576425,39.3069948 45.9110104,36.155829 C45.330829,34.7012953 43.3656736,30.7189119 41.5217617,29.7408031 C41.3573834,29.6455959 40.8724093,29.4462435 41.2011658,29.8531088 C41.6946891,30.4678756 44.3527202,34.3810881 45.105829,36.7099741 C45.9110104,39.2117876 46.0233161,41.6012953 45.6079016,43.1164508 C45.192487,44.6401554 44.4650259,45.2459845 43.5906736,45.2459845 C42.7163212,45.2459845 41.9196891,45.661399 41.9196891,43.6531088 C41.9196891,41.6358808 42.1275907,38.5970207 41.0457254,36.0260363 C39.9634715,33.4632124 38.6472798,31.6974093 38.361658,30.6151554 C38.0845855,29.5329016 37.4527202,26.6242228 36.1454663,24.9703368 C34.8296632,23.3168394 34.2580311,22.2349741 34.9419689,20.3475389 C35.6259067,18.4686528 35.115285,17.9580311 33.7474093,17.559715 C32.3795337,17.161399 30.5527202,16.5901554 30.1027202,15.6726684 C29.6437824,14.763342 29.9294041,12.9369171 30.9510363,12.4865285 C31.9812176,12.0275907 33.6867876,12.6512953 33.7474093,13.9670984 C33.8080311,15.2743523 33.1761658,15.9582902 33.3490933,16.2439119 C33.5224093,16.5295337 34.4313472,16.9884715 34.890285,16.4778497 C35.340285,15.9582902 35.4615285,14.3654145 35.0025907,12.8848446 C34.5436528,11.4042746 34.3186528,10.3740933 32.6651554,10.0367876 C31.011658,9.69015544 30.2670984,9.80284974 29.4704663,10.8330311 C28.6742228,11.8546632 28.3279793,13.5081606 28.5615285,14.711658 C28.7865285,15.9062176 28.3279793,15.2222798 27.5313472,15.161658 C26.7351036,15.1095855 26.9601036,15.0493523 26.1634715,15.1095855 C25.367228,15.161658 25.6528497,14.6510363 25.592228,13.7937824 C25.5401554,12.9369171 25.4274611,11.1707254 24.2243523,10.4867876 C23.0294041,9.80284974 20.9775907,10.5990933 21.0296632,13.4560881 C21.090285,16.3045337 22.0598446,17.6724093 22.6314767,16.642228 C23.2027202,15.6205959 22.9170984,16.1312176 22.3454663,15.6726684 C21.7742228,15.2222798 21.3759067,13.3348446 21.9992228,12.7721503 C22.6314767,12.2009067 23.3670984,12.2009067 23.7739637,12.538601 C24.1722798,12.8848446 24.7955959,14.0277202 24.6829016,14.763342 C24.5705959,15.5079016 24.5099741,15.5599741 23.7739637,16.0795337 C23.0294041,16.5901554 22.7437824,17.0490933 21.8869171,17.6117876 C21.0296632,18.1830311 20.6919689,19.4992228 21.3759067,19.8365285 C22.0598446,20.182772 22.1204663,20.1225389 22.6831606,20.9794041 C23.2547927,21.836658 24.2243523,22.2349741 26.6224093,21.836658 C29.0119171,21.438342 29.9985751,20.8667098 31.8082902,20.2348446 C33.1240933,19.7848446 32.6651554,19.8365285 33.1240933,19.3259067 C33.5740933,18.815285 34.3186528,19.5509067 33.634715,20.0098446 C32.9507772,20.4687824 31.4099741,20.9187824 30.2670984,21.3170984 C29.1331606,21.7239637 27.8169689,22.8582902 25.4274611,22.7455959 C23.0294041,22.6329016 24.6829016,22.6849741 23.9387306,22.6329016 C23.2027202,22.5722798 22.8564767,22.6849741 23.6531088,23.2562176 C24.4579016,23.8278497 24.3972798,24.0007772 25.0812176,24.2257772 C25.7651554,24.459715 26.6744819,24.459715 27.765285,24.061399 C28.8471503,23.6545337 31.5829016,22.4599741 32.4401554,21.888342 C33.2884715,21.3170984 33.9724093,22.061658 33.1240933,22.6329016 C32.2668394,23.2045337 32.0332902,23.0312176 31.236658,23.5418394 C30.4404145,24.061399 28.9598446,24.909715 27.990285,25.8275907 C27.0207254,26.7365285 26.7953368,26.7971503 25.592228,26.8492228 C24.3972798,26.9098446 23.6531088,25.6542746 23.1420984,25.0830311 C22.6314767,24.5117876 22.6831606,24.1740933 22.0598446,23.4901554 C21.4365285,22.8062176 21.3759067,22.9705959 21.263601,23.7151554 C21.1509067,24.459715 20.2940415,26.3382124 19.5494819,27.5937824 C18.8134715,28.8489637 18.7528497,30.3901554 18.865544,31.4724093 C18.9778497,32.5542746 18.692228,32.6669689 17.8439119,33.9221503 C16.986658,35.1773316 15.5581606,38.8830311 15.3331606,40.0775907 C15.1081606,41.2725389 14.8225389,43.7312176 14.9348446,45.1507772 C15.0475389,46.5792746 14.6492228,46.8648964 13.6190415,45.8953368 C12.5974093,44.9257772 12.2511658,43.8435233 12.3117876,42.4150259 C12.3638601,41.1944301 12.5282383,40.3375648 12.6840674,39.8871762 C12.8398964,39.4367876 12.6926166,39.1255181 12.3638601,39.6792746 C11.6624352,40.8913212 11.6278497,42.986658 11.8007772,43.7312176 C11.965544,44.4668394 12.0261658,45.7830311 13.9046632,47.5488342 C15.7920984,49.3150259 18.5278497,51.7651554 20.8046632,53.4186528 C23.0900259,55.0721503 23.886658,57.1239637 20.5190415,58.6045337 C22.6314767,61.4611399 23.7739637,62.9417098 22.8564767,64.8202073 C24.7435233,63.738342 24.0164508,61.1840674 23.107513,60.5001295 C22.1896373,59.8165803 22.7437824,59.2880829 23.5404145,59.8076425 C24.336658,60.3186528 24.6226684,61.340285 27.765285,61.2882124 C30.8989637,61.2275907 34.2755181,60.9159326 36.1625648,58.1716321 C38.0414508,55.4358808 38.4051813,57.7387306 37.9462435,59.3401554 C37.4962435,60.9330311 36.3704663,64.5345855 38.136658,64.1972798 C38.361658,62.0848446 38.8812176,60.2580311 38.8812176,57.9812176 C38.8812176,55.6954663 39.1062176,54.596114 38.9332902,51.2891192 C38.7599741,48.1029793 40.136399,47.8865285 41.5563472,47.8865285 C42.9848446,47.8865285 42.5259067,48.8040155 41.6169689,48.7437824 C40.6990933,48.6831606 39.7380829,49.0294041 39.6778497,51.3668394 C39.617228,53.7042746 39.6778497,53.4792746 40.0757772,55.5831606 C40.4740933,57.6952073 40.534715,58.3185233 40.1884715,60.6563472 C39.8507772,62.9937824 39.5651554,64.2489637 41.1063472,65.6774611 C42.638601,67.1059585 44.9760363,66.6990933 46.1791451,65.7901554 C47.3740933,64.880829 49.6509067,62.7687824 51.7027202,62.0848446 C53.7630829,61.4005181 55.9275907,60.8898964 57.0704663,59.7470207 C58.2044041,58.6045337 57.9187824,57.8079016 56.7238342,57.1845855 C55.5292746,56.5527202 54.386399,56.838342 53.4774611,55.8167098 C52.5599741,54.7865285 52.1095855,52.509715 52.4472798,51.3062176 C52.7935233,50.111658 53.1918394,50.6222798 53.1918394,51.4795337 C53.1918394,52.336399 53.2439119,53.1330311 54.1007772,54.215285 C54.9580311,55.2971503 55.7542746,55.8167098 57.1221503,56.6650259 C58.4900259,57.5222798 59.3472798,58.8901554 57.6331606,60.0936528 C55.9275907,61.2882124 54.9580311,61.9721503 53.5295337,62.5433938 C52.1095855,63.1146373 49.7721503,64.4829016 48.3436528,65.9024611 C46.9151554,67.3309585 46.1189119,68.5861399 43.3225389,68.5861399 C40.534715,68.5861399 39.2534974,67.9111399 38.4222798,66.2487047 C37.8510363,65.1062176 37.5654145,65.2791451 36.2581606,65.2185233 C34.9419689,65.1668394 30.5527202,65.1062176 27.1330311,65.1668394 C23.713342,65.2185233 22.5708549,65.7901554 21.0296632,67.0453368 C19.4974093,68.3005181 18.9261658,69.2700777 16.0170984,68.3005181 C13.1084197,67.3309585 11.567228,66.2487047 7.23860104,65.3918394 C2.90103627,64.5345855 5.2388601,64.9329016 2.61541451,64.361658 C-0.00764248705,63.7989637 0.165284974,62.5433938 0.511917098,61.5132124 C0.849222798,60.4915803 1.70647668,58.8901554 0.961917098,56.7862694 C0.225906736,54.6738342 0.511917098,52.509715 2.50272021,52.509715 C4.50284974,52.509715 6.38134715,52.9076425 7.17797927,50.2845855 C7.9742228,47.6615285 8.20816062,49.713342 7.9742228,50.3972798 C7.7492228,51.0812176 7.6369171,52.959715 5.87072539,53.2453368 C4.10453368,53.5309585 3.70621762,53.1330311 2.61541451,53.1330311 C1.53316062,53.1330311 1.08316062,53.8775907 1.64585492,55.132772 C2.21709845,56.3879534 2.84935233,57.6952073 2.73665803,58.7774611 C2.61541451,59.859715 2.50272021,60.2580311 1.70647668,61.2882124 C0.90984456,62.3098446 1.02253886,62.8290155 2.45103627,63.1667098 C3.87098446,63.5129534 6.44196891,64.1972798 8.83147668,64.7685233 C11.2295337,65.3312176 11.4028497,65.3312176 15.5581606,66.4220207 C19.7224093,67.5042746 20.865285,65.5647668 21.2029793,63.2273316 C21.5492228,60.8898964 19.9474093,58.6651554 18.467228,56.4400259 C16.986658,54.215285 15.3937824,51.6524611 13.4546632,49.3150259 C11.5151554,46.9775907 10.3722798,46.8042746 9.40272021,47.315285 C8.43316062,47.834456 8.26023316,47.7221503 8.20816062,46.4059585 C8.14753886,45.0990933 8.03484456,44.2418394 9.11709845,42.3027202 C10.1993523,40.3632124 11.1689119,38.2507772 12.3117876,35.0044041 C13.4546632,31.7580311 14.4759067,31.1257772 16.4154145,28.3294041 C18.3545337,25.5419689 17.4976684,26.6242228 18.865544,24.7453368 C20.2330311,22.8582902 19.8351036,23.2045337 19.7224093,20.2348446 C19.6101036,17.2740933 19.4974093,15.5599741 19.384715,11.6813472 Z M13.9392487,34.8660622 C14.2338083,35.2208549 14.6492228,34.3810881 15.0821244,34.0608808 C15.4715026,33.7056995 15.6362694,33.1950777 15.5496114,32.7015544 C15.5064767,32.4330311 15.0735751,32.5196891 14.9869171,32.6148964 C14.7183938,32.8834197 14.7790155,33.3163212 14.588601,33.688601 C14.3721503,34.138601 13.6450777,34.5023316 13.9392487,34.8660622 Z M38.4483161,22.9534974 C39.0630829,23.4726684 39.4439119,23.923057 39.7816062,23.1524611 C40.1278497,22.3818653 40.1278497,22.0702073 39.2966321,21.7585492 C38.4743523,21.438342 38.1020725,21.1006477 37.7297927,20.6762953 C37.357513,20.2437824 37.2277202,20.9794041 37.530829,21.6979275 C37.9027202,22.5812176 38.119171,22.6849741 38.4483161,22.9534974 Z M25.6007772,15.8801813 C25.1764249,15.7935233 24.6658031,15.8284974 24.3801813,16.1658031 C24.267487,16.2784974 24.3195596,16.5987047 24.5185233,16.6853627 C24.7784974,16.798057 24.9514249,16.5380829 25.0034974,16.3391192 C25.0295337,16.2524611 25.0641192,16.1401554 25.1507772,16.1141192 C25.2630829,16.0534974 25.4274611,16.1051813 25.5487047,16.0534974 C25.6874352,16.0014249 25.6353627,15.8801813 25.6007772,15.8801813 Z M27.6180052,15.9582902 C27.7909326,16.2178756 28.1025907,16.2178756 28.3625648,16.3305699 C28.5009067,16.3911917 28.7865285,16.4778497 28.8731865,16.2784974 C29.0725389,15.6466321 28.215285,15.8455959 27.8169689,15.8455959 C27.7306995,15.8455959 27.5313472,15.8195596 27.6180052,15.9582902 Z M31.7737047,13.1965026 C32.1630829,13.213601 32.6911917,13.9064767 32.7432642,14.711658 C32.7518135,14.8329016 33.0805699,14.8239637 33.1501295,14.7027202 C33.3316062,14.382513 33.2022021,14.0277202 33.115544,13.6465026 C33.0459845,13.3348446 32.6737047,13.0146373 32.3620466,12.8762953 C32.1545337,12.7721503 31.9380829,12.7375648 31.6610104,12.7721503 C31.5918394,12.8067358 31.3493523,13.1704663 31.7737047,13.1965026 Z M23.2804404,12.9971503 C22.9256477,13.0231865 23.0554404,13.3002591 23.0729275,13.5252591 C23.5664508,13.8023316 23.6095855,14.4256477 23.713342,14.919171 C23.7222798,15.1095855 24.0079016,15.0233161 24.0339378,14.9626943 C24.2503886,14.5643782 23.9818653,14.1139896 23.886658,13.6465026 C23.8,13.4044041 23.6356218,13.1273316 23.4106218,12.9625648 C23.3760363,12.9279793 23.3150259,12.9971503 23.2804404,12.9971503 Z M34.1717617,4.26217617 C33.8165803,3.9765544 33.2624352,3.8638601 33.098057,4.33134715 C32.9251295,4.72966321 32.9943005,5.1365285 32.8990933,5.56943005 C32.8990933,5.70777202 32.7257772,5.74235751 32.6305699,5.87215026 C32.492228,6.0369171 32.5268135,6.24481865 32.5959845,6.30505181 C32.9251295,6.64274611 33.5309585,5.97629534 33.9724093,5.74235751 C34.3015544,5.53484456 34.7775907,5.80297927 35.1413212,5.56943005 C35.2450777,5.50025907 35.2796632,5.33549223 35.1759067,5.20569948 C34.9419689,4.7988342 34.5351036,4.56528497 34.1717617,4.26217617 Z" id="Fill-9" fill="#1A1919"></path>
                <path d="M44.4393782,49.5920984 C44.4910622,49.3581606 44.6123057,48.8996114 44.8373057,48.8300518 C44.9154145,48.8040155 44.9845855,48.8389896 45.0106218,48.9167098 C45.0626943,49.0639896 44.9068653,49.9037565 44.967487,50.094171 C45.036658,50.2931347 45.2702073,50.267487 45.4349741,50.2154145 C45.8243523,50.0856218 46.0493523,49.6266839 46.0322539,49.5835492 C46.0322539,49.5660622 46.0233161,49.5660622 46.0062176,49.5660622 C45.9455959,49.5835492 45.8935233,49.8 45.7205959,49.8516839 C45.6079016,49.8862694 45.5212435,49.869171 45.486658,49.7564767 C45.4520725,49.6352332 45.5993523,48.7694301 45.5301813,48.5704663 C45.4695596,48.3715026 45.2702073,48.3194301 45.0797927,48.3800518 C44.655829,48.5183938 44.4739637,49.1677461 44.3612694,49.5485751 L44.3527202,49.5485751 L44.413342,48.6571244 L43.8852332,48.8300518 L43.8591969,50.6743523 L44.3527202,50.5095855 C44.3612694,50.1893782 44.3787565,49.8256477 44.4393782,49.5920984" id="Fill-10" fill="#1A1919"></path>
                <path d="M46.7247409,49.7910622 C47.1490933,49.6527202 47.3395078,49.1506477 47.3220207,49.0900259 C47.3134715,49.0725389 47.3049223,49.0639896 47.2874352,49.0639896 C47.2528497,49.0810881 47.1747409,49.3670984 46.9326425,49.4448187 C46.8284974,49.4794041 46.7332902,49.4533679 46.7072539,49.3841969 C46.6726684,49.2804404 46.6987047,49.0985751 46.6987047,48.9427461 L46.7161917,48.1115285 L47.2963731,47.921114 L47.2874352,47.7221503 L46.7072539,47.9125648 L46.7332902,47.1244819 L46.2141192,47.4190415 L46.1880829,49.1766839 C46.1880829,49.3670984 46.1705959,49.5314767 46.2051813,49.6181347 C46.2747409,49.8431347 46.5082902,49.869171 46.7247409,49.7910622" id="Fill-11" fill="#1A1919"></path>
            </g>
        </g>
    </g>
</svg>