<?xml version="1.0" encoding="UTF-8"?>
<svg width="52px" height="47px" viewBox="0 0 52 47" version="1.1" xmlns="http://www.w3.org/2000/svg" xmlns:xlink="http://www.w3.org/1999/xlink">
    <!-- Generator: Sketch 49.2 (51160) - http://www.bohemiancoding.com/sketch -->
    <title>laptop (1)</title>
    <desc>Created with Sketch.</desc>
    <defs></defs>
    <g id="Page-1" stroke="none" stroke-width="1" fill="none" fill-rule="evenodd">
        <g id="Artboard-9" transform="translate(-169.000000, -90.000000)" fill-rule="nonzero">
            <g id="laptop-(1)" transform="translate(170.000000, 91.000000)">
                <rect id="Rectangle-path" x="20.6771429" y="6.25183673" width="8.67346939" height="18.2346939"></rect>
                <path d="M0.932244898,45.4355102 L49.0546939,45.4355102 C49.564898,45.4355102 49.9832653,45.0171429 49.9832653,44.5069388 C49.9832653,44.3334694 49.9322449,44.16 49.8506122,44.0273469 L45.1873469,34.5681633 L45.1873469,9.08857143 C45.1873469,8.57836735 44.7689796,8.16 44.2587755,8.16 L34.0036735,8.16 C33.4934694,8.16 33.075102,8.57836735 33.075102,9.08857143 C33.075102,9.59877551 33.4934694,10.0171429 34.0036735,10.0171429 L43.3404082,10.0171429 L43.3404082,33.8640816 L6.7077551,33.8640816 L6.7077551,10.0171429 L15.8097959,10.0171429 C16.32,10.0171429 16.7383673,9.59877551 16.7383673,9.08857143 C16.7383673,8.57836735 16.32,8.16 15.8097959,8.16 L5.76897959,8.16 C5.25877551,8.16 4.84040816,8.57836735 4.84040816,9.08857143 L4.84040816,34.5681633 L0.0955102041,44.0987755 C-0.0473469388,44.3844898 -0.0269387755,44.7212245 0.136326531,44.9967347 C0.309795918,45.2722449 0.615918367,45.4355102 0.932244898,45.4355102 Z M18.6159184,43.5885714 L19.4322449,41.9559184 L30.575102,41.9559184 L31.3812245,43.5885714 L18.6159184,43.5885714 Z M6.34040816,35.7110204 L43.6771429,35.7110204 L47.5546939,43.5783673 L33.4322449,43.5783673 L31.9730612,40.6089796 C31.82,40.2926531 31.4934694,40.0885714 31.1465306,40.0885714 L18.8506122,40.0885714 C18.5036735,40.0885714 18.1771429,40.282449 18.0240816,40.5987755 L16.5444898,43.5681633 L2.42204082,43.5681633 L6.34040816,35.7110204 Z" id="Shape" stroke="#8BC0FF"></path>
                <path d="M30.2689796,3.39469388 C30.2689796,1.55795918 28.7791837,0.0579591837 26.9322449,0.0579591837 L23.075102,0.0579591837 C21.2383673,0.0579591837 19.7383673,1.5477551 19.7383673,3.39469388 L19.7383673,5.92530612 C19.7383673,5.98653061 19.7485714,6.03755102 19.7587755,6.08857143 C19.7485714,6.13959184 19.7383673,6.20081633 19.7383673,6.25183673 L19.7383673,24.4865306 C19.7383673,24.4967347 19.7383673,24.5069388 19.7383673,24.5069388 C19.7383673,24.5477551 19.7485714,24.5987755 19.7485714,24.6395918 C19.7485714,24.6497959 19.7485714,24.66 19.7587755,24.6804082 C19.7689796,24.7314286 19.7893878,24.782449 19.8097959,24.8334694 C19.82,24.8436735 19.82,24.8538776 19.8302041,24.8742857 C19.8506122,24.915102 19.8710204,24.9457143 19.8914286,24.9763265 C19.9016327,24.9865306 19.9118367,25.0069388 19.9220408,25.0171429 C19.9322449,25.0273469 19.9322449,25.037551 19.942449,25.0477551 L24.2791837,30.7314286 C24.4526531,30.9559184 24.7281633,31.0987755 25.0138776,31.0987755 C25.2995918,31.0987755 25.575102,30.9661224 25.7485714,30.7314286 L30.0853061,25.0477551 C30.0955102,25.037551 30.0955102,25.0273469 30.1057143,25.0171429 C30.1159184,25.0069388 30.1261224,24.9865306 30.1363265,24.9763265 C30.1567347,24.9457143 30.1771429,24.904898 30.197551,24.8742857 C30.2077551,24.8640816 30.2077551,24.8538776 30.2179592,24.8334694 C30.2383673,24.782449 30.2485714,24.7314286 30.2689796,24.6804082 C30.2689796,24.6702041 30.2689796,24.66 30.2791837,24.6395918 C30.2893878,24.5987755 30.2893878,24.5477551 30.2893878,24.5069388 C30.2893878,24.4967347 30.2893878,24.4865306 30.2893878,24.4865306 L30.2893878,6.22122449 C30.2893878,6.17020408 30.2791837,6.11918367 30.2791837,6.06816327 C30.2893878,6.01714286 30.2893878,5.96612245 30.2893878,5.91510204 L30.2893878,3.39469388 L30.2689796,3.39469388 Z M21.6057143,6.85387755 L24.0955102,6.85387755 L24.0955102,23.5579592 L21.6057143,23.5579592 L21.6057143,6.85387755 Z M25.942449,6.85387755 L28.4322449,6.85387755 L28.4322449,23.5579592 L25.942449,23.5579592 L25.942449,6.85387755 Z M21.6057143,3.39469388 C21.6057143,2.57836735 22.2689796,1.91510204 23.0853061,1.91510204 L26.942449,1.91510204 C27.7587755,1.91510204 28.4220408,2.57836735 28.4220408,3.39469388 L28.4220408,4.99673469 L21.6057143,4.99673469 L21.6057143,3.39469388 Z M25.0138776,28.6497959 L22.5444898,25.415102 L27.4730612,25.415102 L25.0138776,28.6497959 Z" id="Shape" stroke="#8BC0FF"></path>
            </g>
        </g>
    </g>
</svg>