<?xml version="1.0" encoding="UTF-8"?>
<svg width="75px" height="75px" viewBox="0 0 75 75" version="1.1" xmlns="http://www.w3.org/2000/svg" xmlns:xlink="http://www.w3.org/1999/xlink">
    <!-- Generator: Sketch 49.2 (51160) - http://www.bohemiancoding.com/sketch -->
    <title>vagrant-seeklogo.com</title>
    <desc>Created with Sketch.</desc>
    <defs></defs>
    <g id="Page-1" stroke="none" stroke-width="1" fill="none" fill-rule="evenodd">
        <g id="latest-Single-course-page-" transform="translate(-153.000000, -3262.000000)" fill-rule="nonzero">
            <g id="vagrant-seeklogo.com" transform="translate(153.000000, 3262.000000)">
                <g id="Group">
                    <path d="M74.7095842,5.5499614 C74.1704703,5.11258688 69.9337275,2.86455599 69.9337275,2.86455599 L65.4129118,5.4634749 L65.4104146,5.46193051 L69.93123,2.86332046 L65.4119753,0.198301158 L65.4104146,5.46193051 L60.6954303,2.85065637 C60.6954303,2.85065637 56.838596,5.08138995 54.9659005,6.15073358 C52.6087207,7.4965251 46.8273712,10.9025483 46.8273712,10.9025483 L46.8273712,15.9323552 L42.0646253,28.2103475 L42.0646253,34.8772202 L38.7219316,36.8077219 L37.391784,40.2505019 L28.0186305,16.1911969 L28.0201913,10.9149035 L9.34006377,0.192432432 L0.00905286928,5.53698843 L0,5.53482625 L0,10.9720463 L5.81912193,24.8401544 L9.35535998,26.9010039 L9.35848167,33.2253281 L23.3770058,66.9155212 L37.3871015,74.8488032 L37.3871015,74.8945173 L51.3787793,66.8830888 L74.7601554,10.8614672 L74.7095842,5.5499614" id="Shape" fill="#3185B8"></path>
                    <polyline id="Shape" fill="#3185B8" points="37.397403 74.8546717 23.3770058 66.9155212 9.35848167 33.2253281 9.35535998 26.9010039 5.81912193 24.8401544 0 10.9720463 0 5.53482625 4.60447661 8.1911969 4.60447661 13.5437838 9.36347636 16.2764479 9.36410069 10.8926641 18.6623339 16.2159073 19.1106071 21.4857143 32.6281019 56.2032431 42.0221707 61.6179151 42.0221707 72.2359845 37.384292 69.5366794 37.397403 74.8546717"></polyline>
                    <polyline id="Shape" fill="#61A5CE" points="28.0186305 16.1911969 37.391784 40.2505019 37.3724297 53.5033205 32.6215463 56.1769885 19.1106071 21.4471042 18.6623339 16.2159073 28.0201913 10.9149035 28.0186305 16.1911969"></polyline>
                    <polyline id="Shape" fill="#61A5CE" points="4.60447661 8.1911969 4.60447661 13.5437838 9.36410069 10.8926641 4.60447661 8.1911969"></polyline>
                    <polyline id="Shape" fill="#EAE9E6" points="9.36347636 16.2764479 9.36410069 10.8926641 4.60447661 13.5437838 9.36347636 16.2764479"></polyline>
                    <polyline id="Shape" fill="#3185B8" points="37.3724297 53.5033205 42.0580698 56.1562934 47.27502 43.1956758 51.292621 45.5610811 51.292621 33.1397684 52.5743823 30.1408494 55.9951181 32.1229344 55.9951181 26.8719691 51.3385097 24.1949035 56.0210283 21.5051737 51.4165514 18.8796911 51.4043769 13.5428571 46.8273712 10.9025483 46.8273712 15.9323552 42.0646253 28.2103475 42.0646253 34.8772202 38.7219316 36.8077219 37.391784 40.2505019 37.3724297 53.5033205"></polyline>
                    <polyline id="Shape" fill="#61A5CE" points="37.3081229 58.9288031 42.0221707 61.6179151 41.9987581 72.2384557 51.3787793 66.8830888 74.7601554 10.8614672 74.7095842 5.5499614 60.6954303 13.5428571 60.6954303 24.206332 55.9951181 26.8719691 55.9951181 32.1229344 52.5743823 30.1408494 51.292621 33.1397684 51.292621 45.5351351 44.7826714 49.3229343 42.0580698 56.1562934 37.3081229 58.9288031"></polyline>
                    <polyline id="Shape" fill="#EAE9E6" points="18.632678 21.5437838 23.334551 18.8410811 23.334551 24.188417 18.632678 21.5437838"></polyline>
                    <polyline id="Shape" fill="#3185B8" points="23.334551 24.188417 27.997403 26.794749 27.997403 21.5437838 23.334551 18.8410811 23.334551 24.188417"></polyline>
                    <polyline id="Shape" fill="#61A5CE" points="14.0022914 34.8058688 14.0022914 40.1918146 18.7100956 37.5113514 14.0022914 34.8058688"></polyline>
                    <polyline id="Shape" fill="#EAE9E6" points="23.4091591 40.2168339 18.68481 42.9386873 14.0022914 40.1918146 18.7100956 37.5113514 23.4091591 40.2168339"></polyline>
                    <polyline id="Shape" fill="#61A5CE" points="23.3454769 56.2162161 23.3454769 61.6478765 28.0776302 58.9405404 23.3454769 56.2162161"></polyline>
                    <polyline id="Shape" fill="#EAE9E6" points="32.6377789 66.8580695 37.4042708 69.5993823 37.4214399 64.0824709 32.6377789 66.8580695"></polyline>
                    <polyline id="Shape" fill="#61A5CE" points="37.3871015 74.8945173 37.4042708 69.5993823 41.9987581 72.2384557 37.3871015 74.8945173"></polyline>
                    <polyline id="Shape" fill="#EAE9E6" points="37.3724297 53.5033205 32.6215463 56.1769885 37.3081229 58.9288031 42.0580698 56.1562934 37.3724297 53.5033205"></polyline>
                    <polyline id="Shape" fill="#3185B8" points="60.6954303 24.206332 60.6954303 13.5428571 56.0556789 10.9294208 56.0556789 16.2421622 51.4165514 18.8796911 60.6954303 24.206332"></polyline>
                    <polyline id="Shape" fill="#EAE9E6" points="51.3385097 24.1949035 56.0210283 21.5051737 60.6954303 24.206332 55.9951181 26.8719691 51.3385097 24.1949035"></polyline>
                    <polyline id="Shape" fill="#61A5CE" points="51.4165514 18.8796911 56.0556789 16.2421622 56.0556789 10.9294208 51.4043769 13.5428571 51.4165514 18.8796911"></polyline>
                    <polyline id="Shape" fill="#3185B8" points="65.4104146 5.46223937 65.4119753 0.198301158 69.93123 2.86332046 65.4104146 5.46223937"></polyline>
                    <path d="M74.7095842,5.5499614 L60.6954303,13.5428571 L56.0556789,10.9294208 L51.4043769,13.5428571 L46.8273712,10.9025483 C46.8273712,10.9025483 52.6087207,7.4965251 54.9659005,6.15073358 C56.838596,5.08138995 60.6954303,2.85065637 60.6954303,2.85065637 L65.4129118,5.4634749 L69.9337275,2.86455599 C69.9337275,2.86455599 74.1704703,5.11258688 74.7095842,5.5499614 C73.4346904,6.2869498 74.7095842,5.5499614 74.7095842,5.5499614" id="Shape" fill="#EAE9E6"></path>
                    <polyline id="Shape" fill="#EAE9E6" points="28.0201913 10.9149035 18.6623339 16.2159073 0.00905286928 5.53698843 9.34006377 0.192432432 28.0201913 10.9149035"></polyline>
                    <polyline id="Shape" fill="#3185B8" points="70.0049018 13.4211583 70.0049018 8.23320463 65.4453772 10.8364479 70.0049018 13.4211583"></polyline>
                    <polyline id="Shape" fill="#3185B8" points="56.1842919 37.5400772 60.7213404 34.9646331 60.7213404 40.1300386 56.1842919 37.5400772"></polyline>
                    <polyline id="Shape" fill="#EAE9E6" points="46.7031282 58.8932818 46.7031282 64.2458687 51.4290383 61.5406949 46.7031282 58.8932818"></polyline>
                    <polyline id="Shape" fill="#3185B8" points="51.4583821 61.5406949 51.4000066 56.2313514 46.7031282 58.8932818 51.4583821 61.5406949"></polyline>
                </g>
            </g>
        </g>
    </g>
</svg>